<?xml version="1.0" encoding="utf-8"?>
<!-- Generator: Adobe Illustrator 25.3.1, SVG Export Plug-In . SVG Version: 6.00 Build 0)  -->
<svg version="1.1" id="Layer_1" xmlns="http://www.w3.org/2000/svg" xmlns:xlink="http://www.w3.org/1999/xlink" x="0px" y="0px"
	 viewBox="0 0 1224 792" style="enable-background:new 0 0 1224 792;" xml:space="preserve">
<style type="text/css">
	.st0{fill:#1C1C1C;}
	.st1{fill:#FFFFFF;}
	.st2{fill:none;}
	.st3{fill:#A3A0A0;}
	.st4{fill:#F59043;}
	.st5{fill:#F59B43;}
	.st6{fill:#1C1C1C;stroke:#1C1C1C;stroke-width:2;stroke-linecap:round;stroke-miterlimit:10;}
	.st7{fill:#1C1C1C;stroke:#1C1C1C;stroke-miterlimit:10;}
	.st8{fill:none;stroke:#F59B43;stroke-width:4;stroke-linecap:round;stroke-miterlimit:10;}
</style>
<g>
	<path class="st0" d="M1121.5,542.9c-7.5-5.9-15.4-11.3-23.5-16.3c-8.1-5-16.5-9.7-25.2-13.7c-8.6-4-17.7-6.9-27-9.3
		c-9.2-2.5-18.7-4.4-28.1-6.6c-9.4-2.2-18.8-4.7-27.9-8.2l-1.7-0.6l-1.7-0.7l-3.4-1.4c-2.2-1-4.4-2.1-6.6-3.1
		c-4.4-2.2-8.6-4.7-12.7-7.4c-8.2-5.3-15.8-11.3-23.5-17.1c-1.9-1.5-3.9-2.8-5.8-4.2l-5.9-4.1l-5.9-4.2c-1.9-1.3-3.9-2.6-5.9-3.7
		c-2-1.1-4-2.1-6.1-2.9c-0.5-0.2-1-0.4-1.5-0.5l-1.7-0.5l-3.5-1c-4.6-1.4-9.2-2.7-13.9-4.2l-13.8-4.7l-1.7-0.6l-1.7-0.6l-3.4-1.3
		l-6.7-2.6c-9-3.5-18-7-26.9-11c-4.4-2-8.9-4.1-13.2-6.3c-4.3-2.2-8.7-4.6-12.7-7.1l-12.6-7.2l-3.1-1.8c-1-0.6-2.1-1.3-3.1-1.9
		l-6.2-3.9l-6.2-3.9c-1-0.6-2-1.3-3-1.9c-1-0.6-2-1.2-3-1.8c-4-2.4-8.2-4.4-12.6-6.1c-4.3-1.7-8.8-3.1-13.4-4.4
		c-4.6-1.2-9.2-2.3-13.9-3.2c-9.3-1.8-18.8-2.9-28.3-3.1l0.8-0.1c-2.9,1-5.4,2.7-7.4,5c-2,2.3-3.5,5.1-4.6,8.2l-6.3,19.4
		c-2.1,6.5-4.1,12.9-6.2,19.4c-2,6.5-4,13-5.9,19.5c-1.9,6.5-3.6,13.1-5.3,19.7c-0.8,3.3-1.5,6.6-2.2,9.9l-2.1,10l-1.1,5
		c-0.3,1.6-0.8,3.4-1.2,5c-0.8,3.3-1.6,6.6-2.2,9.8c-0.3,1.6-0.6,3.3-0.8,4.9c-0.1,0.8-0.2,1.6-0.3,2.4c-0.1,0.8-0.2,1.7-0.2,2.5
		l-0.2,2.4c0,0.8,0.1,1.5,0.1,2.3c0,0.8,0.2,1.5,0.3,2.2c0.1,0.7,0.2,1.5,0.4,2.2c0.2,0.7,0.4,1.5,0.7,2.2l0.9,2.1l1.1,2
		c0.3,0.7,0.8,1.3,1.3,1.9c1.8,2.5,3.9,4.8,6.4,6.8c2.5,2,5.2,3.8,8,5.4l2.1,1.1l2.2,1c1.5,0.7,3,1.3,4.6,2
		c12.7,5.4,25,11.7,36.6,19c23.4,14.4,44.7,31.8,65.7,49l0.1,0.1l0.1,0.1c3.3,3.3,7.2,6.1,11.4,8.7c4.1,2.6,8.5,5.1,12.8,8.2
		c1,0.7,2.2,1.6,3.1,2.4l2.9,2.3l5.8,4.7c4.2,3.1,7.7,6.6,11.6,8.6c0.5,0.2,1,0.5,1.5,0.7l1.7,0.7l3.5,1.5l6.9,2.9
		c4.6,2,9.2,4,13.8,6c9.2,4.1,18.3,8.3,27.3,12.7c18,8.9,35.6,18.7,52.3,30c4.2,2.8,8.3,5.8,12.3,8.7c4,3.1,8,6.1,11.9,9.3
		c2,1.6,3.9,3.2,5.8,4.7c1.9,1.5,3.8,2.9,5.8,4.2c4,2.6,8.4,4.7,12.9,6.2l0.2,0.1l0.1,0.1l18.2,8.6l18.3,8.5
		c12.2,5.7,24.4,11.6,36.3,17.8c1,0.5,1.3,1.7,0.8,2.6c-0.5,1-1.7,1.3-2.6,0.8c-12-6.1-24.2-11.7-36.4-17.3l-18.4-8.3l-18.4-8.5
		l0.3,0.1c-5-1.6-9.7-3.8-14.1-6.6c-2.2-1.4-4.3-2.9-6.3-4.5c-2-1.6-3.9-3.2-5.9-4.7c-3.8-3.1-7.8-6-11.8-9c-4-2.9-8.1-5.8-12.2-8.5
		c-16.5-11.1-33.9-20.6-51.8-29.3c-9-4.3-18-8.5-27.1-12.4c-4.6-2-9.1-4-13.7-5.9l-6.9-2.9l-3.4-1.4l-1.7-0.7
		c-0.6-0.3-1.3-0.5-1.9-0.9c-2.5-1.3-4.7-2.9-6.7-4.5l-2.9-2.4c-1-0.8-1.9-1.4-2.9-2.3l-5.9-4.7l-3-2.4c-1-0.8-1.8-1.4-2.8-2.1
		c-3.9-2.8-8.2-5.3-12.5-8c-4.3-2.7-8.6-5.7-12.4-9.5l0.2,0.2C765,589.2,744,572,721,557.9c-11.5-7.1-23.4-13.3-35.8-18.5
		c-1.5-0.7-3.2-1.3-4.8-2.1l-2.4-1.1l-2.4-1.3c-3.1-1.7-6.1-3.7-8.9-6c-2.8-2.3-5.4-5-7.5-8c-0.5-0.8-1.1-1.5-1.5-2.4l-1.3-2.5
		l-1.1-2.6c-0.4-0.9-0.5-1.8-0.8-2.7c-0.3-0.9-0.4-1.9-0.5-2.8c-0.1-0.9-0.3-1.9-0.3-2.8c0-0.9,0-1.9,0-2.8l0.3-2.7
		c0.1-1,0.2-1.7,0.3-2.6c0.1-0.9,0.3-1.8,0.4-2.6c0.3-1.7,0.7-3.4,1.1-5.1c0.8-3.4,1.7-6.7,2.7-10c0.5-1.7,0.9-3.2,1.4-4.9l1.3-4.9
		l2.6-9.9l1.3-4.9c0.4-1.6,0.9-3.3,1.4-4.9c1.8-6.6,3.8-13.1,5.7-19.6l5.8-19.6l6-19.5l6-19.5c1.1-3.4,2.7-6.7,5.1-9.6
		c2.4-2.9,5.6-5.2,9.1-6.5l0.4-0.1l0.4,0c9.8,0,19.5,0.8,29.1,2.5c4.8,0.8,9.6,1.8,14.3,3c4.8,1.1,9.5,2.5,14.1,4.2
		c4.6,1.7,9.2,3.7,13.6,6.2c1.1,0.6,2.2,1.2,3.2,1.9l3.1,1.9l6.1,3.7l6.1,3.7c1,0.6,2,1.2,3.1,1.8l3.1,1.7l12.6,7
		c4.2,2.5,8.3,4.7,12.5,6.9c4.2,2.1,8.5,4.2,12.9,6.2c8.7,3.9,17.6,7.5,26.5,11.1l6.7,2.7l3.3,1.4l1.7,0.7l1.7,0.6l13.5,4.9
		c4.5,1.6,9.1,3,13.7,4.5l3.4,1.1l1.7,0.6c0.6,0.2,1.3,0.5,1.9,0.7c2.4,1,4.7,2.2,6.8,3.5c2.2,1.3,4.2,2.7,6.2,4.2l5.8,4.4l5.8,4.3
		c1.9,1.5,3.9,2.9,5.8,4.4c7.6,5.9,15.1,12,22.9,17.3c3.9,2.6,8,5.2,12.2,7.3c2.1,1,4.2,2.1,6.4,3.1l3.3,1.4l1.6,0.7l1.7,0.6
		c8.9,3.4,18.1,5.9,27.4,8.2c9.3,2.3,18.7,4.3,28.1,6.8c9.4,2.5,18.7,5.4,27.6,9.5c8.8,4.1,17.3,8.8,25.6,13.8
		c8.3,5,16.3,10.5,24,16.4c0.9,0.7,1,1.9,0.4,2.7S1122.4,543.6,1121.5,542.9L1121.5,542.9z"/>
</g>
<path class="st1" d="M580,468.1c16.7-0.5,46-3.4,47.4-5.5s-45.1,0-51.2,0S570.1,468.4,580,468.1z"/>
<path class="st1" d="M612.1,409l-0.5-7.5l14.7-1l-1-14.7l7.5-0.5l1,16.3c-0.6,2.9-2.7,5.3-5.5,6.4L612.1,409z"/>
<path class="st1" d="M561.5,322.6l0.5,7.5l-14.7,0.9l1,14.7l-7.5,0.5l-1-16.3c0.7-2.9,2.8-5.3,5.6-6.3L561.5,322.6z"/>
<path class="st1" d="M630,340.6l-7.5,0.5l-1-14.7l-14.7,0.9l-0.5-7.5l16.3-1c2.9,0.7,5.3,2.8,6.3,5.6L630,340.6z"/>
<path class="st1" d="M571.3,366.1c-1,3.9-2.9,10.3-3.7,12.8c-0.2,0.6,0.1,1.3,0.7,1.7l24.2,13.2c0.7,0.4,1.7,0.1,2-0.7l18.8-44.7
	c0.7-1.6-1.5-2.8-2.5-1.4l-23,32.1c-0.5,0.7-1.6,0.8-2.2,0.1l-11.9-13.6C573,364.6,571.6,365,571.3,366.1z"/>
<g>
	<path d="M801.1,630.8c-3,2.8-6.4,5.2-9.8,7.5c-3.4,2.2-7,4.2-10.6,6c-3.6,1.8-7.2,3.5-10.8,5.1l-5.3,2.5c-1.7,0.8-3.5,1.6-5.2,2.5
		c-13.8,6.6-27.2,14.2-40.6,21.8l-20.3,11.6c-6.8,3.8-13.8,7.7-20.8,11.4l-5.3,2.7l-5.5,2.8c-0.9,0.5-1.8,0.9-2.8,1.4l-2.9,1.3
		c-1.8,0.8-3.7,1.6-5.5,2.4c-7.4,3.1-15,6.1-23,8.6c-4,1.3-8.1,2.4-12.2,3.5l-1.6,0.4l-1.4,0.3c-0.9,0.2-1.8,0.4-2.8,0.7l-5.7,1.4
		c-3.8,0.9-7.6,1.8-11.4,2.7c-1.9,0.5-3.9,0.8-5.8,1.2c-2,0.4-3.9,0.7-5.9,1.1c-7.9,1.3-15.8,2.3-23.8,3.1c-8,0.8-15.9,1.3-23.9,1.7
		c-15.9,0.8-31.8,1.2-47.7,1.7c-15.6,0.5-31.2,0.9-46.8,1.5c-31.2,1.2-62.3,2.7-93.5,4.1c-31.2,1.5-62.3,2.6-93.5,3.5l-46.8,1.3
		l-23.4,0.6l-23.4,0.5l-46.8,1c-15.6,0.2-31.2,0.5-46.8,0.7c-3.8,0-6.9-3-6.9-6.8c0-3.6,2.8-6.6,6.4-6.9c15.6-1.1,31.1-2.1,46.7-3.1
		l46.7-2.8l23.4-1.4l23.4-1.3l46.7-2.4c31.2-1.6,62.3-3,93.5-4.1c31.2-1.1,62.4-2.1,93.5-3.4c15.6-0.6,31.2-1.5,46.7-2.2
		c15.4-0.8,30.6-2.7,45.6-5.5c7.5-1.4,15-2.9,22.5-4.5l22.3-4.9l11.2-2.4c3.8-0.9,7.6-1.7,11.4-2.5l5.7-1.2c0.9-0.2,1.9-0.4,2.9-0.5
		l1.5-0.3l1.3-0.2c3.5-0.7,7-1.4,10.5-2.4c7-1.8,14.1-4,21.3-6.5l5.4-1.9l2.6-0.9c0.8-0.3,1.7-0.6,2.5-1l5.1-2.1l5.3-2.2
		c7.1-3,14.1-6,21.2-9.2c7.1-3.1,14.3-6.3,21.5-9.3c3.6-1.5,7.3-3.1,10.9-4.6c3.7-1.5,7.4-2.9,11.1-4.3c7.4-2.8,15-5.5,22.7-7.7
		c7.7-2.3,15.3-4.2,22.6-6.3c7.3-2.1,14.3-4.6,20.8-8.3l0,0c1.5-0.8,3.3-0.3,4.1,1.2C802.4,628.4,802.1,629.9,801.1,630.8z"/>
</g>
<g>
	<path d="M618.1,260.2c15.9-0.9,32-1,48.1,0.5c4,0.3,8.1,0.9,12,1.4c4,0.5,7.9,1.1,11.9,1.7c7.9,1.2,15.8,2.4,23.6,3.9
		c15.7,2.8,31.4,6,46.9,9.6l5.8,1.4l5.7,1.4l11.5,2.8l2.9,0.7c1,0.2,1.9,0.5,2.9,0.6l5.8,1.1l5.8,1.1l5.9,1.2
		c31.3,6.4,62.5,14.2,92.9,24.7c30.4,10.5,60.2,23.5,88.1,39.8l-0.6-0.3c6.2,3.1,12.4,6.1,18.6,9.3l18.3,9.3c3.1,1.5,6.1,3,9.2,4.5
		l4.6,2.2l4.7,2.2c2.8,1.3,5.3,3.3,7,5.8c1.8,2.5,2.8,5.4,3.1,8.4c0.3,3-0.3,6.1-1.6,8.8c-0.2,0.3-0.3,0.7-0.5,1
		c-0.1,0.2-0.1,0.2-0.2,0.3l-0.2,0.3l-0.7,1.1l-1.4,2.3c-7.4,12.2-16.3,23.5-26,33.6c-4.8,5.1-9.8,10-14.8,14.7
		c-5,4.8-10.1,9.4-15.1,14.1c-1.2,1.1-3.1,1-4.3-0.2c-1-1.1-1-2.8-0.1-3.9c4.3-5.4,8.7-10.7,13.1-16c4.4-5.3,8.8-10.5,12.9-15.9
		c8.3-10.7,15.8-21.7,22-33.5l1.2-2.2l0.6-1.1l0.1-0.3c0-0.1,0.1-0.2,0.1-0.2c0-0.1,0-0.1,0.1-0.2c0.1-0.4,0.2-0.9,0.1-1.3
		c-0.1-0.4-0.3-0.8-0.5-1.1c-0.3-0.3-0.6-0.5-0.9-0.6l-4.8-2l-4.8-2c-3.2-1.4-6.4-2.8-9.6-4.2c-6.3-2.9-12.6-5.8-18.8-8.8l-18.6-8.8
		c-0.2-0.1-0.3-0.2-0.5-0.3l-0.1-0.1c-27.1-15.3-55.7-28-85.2-38.4c-29.5-10.4-59.8-18.7-90.5-25.8l-5.8-1.4l-5.9-1.3l-5.9-1.3
		c-1-0.2-2-0.5-2.9-0.7l-2.9-0.8l-11.5-3.2l-5.8-1.6l-5.7-1.5c-15.2-4.1-30.5-8-45.9-11.4c-7.7-1.7-15.4-3.4-23.1-5
		c-3.9-0.8-7.7-1.6-11.6-2.3c-3.9-0.8-7.7-1.4-11.5-2c-7.7-1.2-15.5-2.1-23.3-2.6c-7.8-0.6-15.7-1-23.6-1.3l0,0
		c-1.7-0.1-3-1.4-2.9-3.1C615.3,261.6,616.6,260.3,618.1,260.2z"/>
</g>
<g>
	<path d="M0.7,395.8c-0.1-0.1-0.3-0.1-0.4-0.1c-0.1,0,0,0,0,0l0,0c0,0,0,0,0.1,0l0.1,0l0.7-0.2l1.5-0.5c1.1-0.4,2.1-0.8,3.2-1.1
		l6.5-2.4l13.1-4.9c8.8-3.2,17.6-6.4,26.4-9.4c17.7-6.1,35.5-11.9,53.4-17.3c17.9-5.4,35.9-10.7,54.1-15.1
		c9.1-2.2,18.3-4.1,27.5-5.9c9.3-1.7,18.5-3.2,28-4.1c1.7-0.2,3.2,1.1,3.3,2.7c0.1,1.3-0.6,2.5-1.8,3c-8.6,4-17.4,7.4-26.1,10.7
		c-8.8,3.3-17.6,6.3-26.5,9.2c-17.8,5.8-35.8,10.8-53.8,15.8c-18,5-36.1,9.8-54.3,14.3c-9.1,2.2-18.2,4.4-27.4,6.4
		c-4.6,1-9.2,2-13.8,2.8c-2.3,0.4-4.6,0.9-7,1.3c-1.2,0.2-2.4,0.4-3.6,0.5c-0.6,0.1-1.2,0.2-1.9,0.2c-0.4,0-0.7,0.1-1.1,0.1l-0.3,0
		l-0.4,0l-0.2,0l-0.3,0c-0.3,0-0.6-0.1-0.8-0.1c-1.6-0.4-2.6-2-2.2-3.6C-2.5,396.4-0.9,395.4,0.7,395.8z"/>
</g>
<path class="st2" d="M210.3,111.5c2.1,0.2,2.7,0.4,3.1,0.6c-1.5-0.2-3-0.3-3.6-0.6C209.7,111.5,210,111.5,210.3,111.5z"/>
<polygon class="st3" points="173.3,57.5 173.3,57.5 173.4,57.6 "/>
<path class="st0" d="M195.3,99.7c0.2,0,0.4-0.1,0.6-0.1l2-0.1c1-0.1,2-0.1,3-0.1c4-0.1,8.1,0.2,12.1,0.7c4,0.5,8,1.3,11.9,2.3
	c5.5,1.4,11.5,3.8,15.9,5.8c4.8,2.1,9.5,5,12.8,7.9c5.4,4.7,10.3,10.2,11.8,17.6c0.6,2.9,0.7,5.9,0.4,8.9c1-0.2,2-0.4,2.9-0.6
	c5-0.5,10.1-0.7,15,0c9.8,1.2,19.1,4.4,27.2,8.9c5.9,2.9,11.5,6.5,16.7,10.4c1.3,1,2.6,2,3.9,3.1l3.7,3.2c2.4,2.2,4.9,4.6,7.2,7.5
	c2.3,2.9,4.4,6.6,5.2,10.9c0.9,4.1,0.4,8.7-1,12.5c-1.4,3.9-3.6,7.1-6.1,9.9c-2.5,2.8-5.2,5.1-8.1,7.1c-2.8,2-6.7,4-10.2,5.3
	c-7.6,2.8-15.2,4.8-22.9,6.3c-6.7,1.2-13.5,2.3-19.8,2.1c-1.2,0-3,0.3-4.1,0.3c-11,0.3-22,0.7-32.7-0.3c-1-0.1-2.8-0.2-3.1-0.1
	c-1.8,0.6-6.7,0.1-10.3-0.2c-4.5-0.3-9.1-0.3-13.6-0.3c-4.5,0.1-8.7,0.3-12.7,0.4c0,0-1,0.2-1.4,0.3c-1.6,0.5-4,0.9-6.2,1.5
	c-4.9,1.3-9.9,3.8-15.2,6.5c-2.7,1.3-5.5,2.7-8.5,4c-3,1.1-6,2.4-9.1,3.2c-12.3,3.8-25.1,4.9-37.6,4.6c-19.3-0.6-38-5-56-9.1
	c-6.2-1.4-10.1-2.7-11.8-3.9c-1.5-1-1.9-1.7-2.1-2.2c-0.1-0.4-0.9-0.7-5.4-2.7c-2.3-1.1-4.6-2.1-6.8-3.6c-2.2-1.5-4.5-3.4-6.5-6.6
	c-0.5-0.9-0.9-1.7-1.2-2.3c-0.2-0.6-0.4-1.2-0.5-1.5c-0.2-0.8-0.2-1.1-0.1-1.2c0.2-0.2,0.6,0.2,0.5-1c0-0.9-0.1-1.7,0-2.3
	c0.1-0.6,0.2-1.1,0.4-1.5c0.3-0.8,0.6-1.1,1-1.1c0.7,0,1.5,1.2,2.5,2.6c0.7,0.9,1.6,3.4,4.2,6.4c2.9,3.1,5.2,4.1,6.5,4.7
	c1.3,0.5,1.9,0.4,2.4,0.4c0.9-0.2,3.2,0.7,9.6,2.8c3.5,1.1,7.4,2,11.3,2.9c3.8,0.9,7.6,1.8,11.2,2.8c4.3,1.1,6.5,1.4,7.2,1.2
	c2-0.6,7.7,0.3,17.3,1.7c6.4,0.9,11.2,1,12.9,0.4c0.5-0.2,1.7-0.3,3.2-0.4c1.6-0.1,3.6-0.2,6-0.1c9.1,0.1,17.6-1.3,26-3.5l4.5-1.3
	l4.4-1.7c2.9-1.1,5.8-2.6,8.8-4c3-1.5,6.2-3.1,9.6-4.5c3.4-1.4,7.2-2.7,10.9-3.5c7.5-1.6,14.8-1.9,21.8-1.9c7,0.1,13.8,0.3,20.6,0.6
	c6.6,0.3,11.8,0.5,16.5,1l-0.2,0c2,0.1,4.2,0.3,5.7,0.1c2.9-0.4,7.4-0.4,11.3-0.3c7.6,0.2,15.4-0.5,22.9-1.5
	c0.7-0.1,1.4-0.2,2.1-0.3c1.6-0.5,4-1,6.2-1.5c2.1-0.4,4.2-0.9,6.2-1.5l3.1-0.9l3-1.1c1-0.4,2.1-0.7,3-1.1c0.9-0.4,1.8-0.7,2.7-1.1
	c1.8-0.8,3.5-1.7,5.1-2.6l0,0c5.1-4,9.7-9,10.3-13.3c0.4-2-0.1-4.1-0.9-5.3c-1.4-2.1-3.7-5.1-6.5-7.6c0.3,0.2,0.6,0.4,0.7,0.4
	c0.2,0,2.1,1.7,1.4,0.9c-0.6-0.7-1.5-1.3-1.8-1.4c-0.1,0-0.2,0-0.2,0c-3.7-3.4-7.4-6.6-11.6-9.4c-4.1-2.9-8.5-5.4-13.2-7.6
	c-6.2-2.8-12.5-5.1-19.1-6.2c-6.5-1.1-13.1-1.1-19.2,0.8c-1,0.3-2,0.7-3,1c-0.9,0.4-1.9,0.9-2.8,1.3l-1.2,0.5
	c-1,0.9-2.2,1.7-3.4,2.3c-0.9,0.4-1.7,0.8-2.5,1.1l-5.9-10.8c1.8-1.2,3.3-2.5,5.1-3.7c0.2-0.3,0.5-0.7,0.7-1c0.8-1.6,1-2,1.5-2.9
	c0.9-2.1,0.8-3.6,0.2-4.6c-0.1-2.2-0.5-4-1.6-6.1c-1-2.1-2.5-4.1-4.6-6c-1.8-1.7-4.4-3.6-7-5.2c-2.6-1.6-5.1-2.8-6.6-3.7
	c-3.4-1.9-5.3-2.3-7.1-2.8c-2.7-0.7-4.3-0.9-6.5-1.9c-0.6-0.3-4.4-1-6.8-1.4l-1.5,0c-3-0.3-6.6,0-8.2-0.7c-0.3-0.1,1.2-0.3-0.6-0.4
	c-2.3,0-1.6,0.2-1.9,0.4c-0.6,0.2-3.1,0.2-3.8,0.3l-0.8,0.1c-0.7,0-1.2,0.1-1.8,0.2c-1.2,0.2-2.3,0.3-3.5,0.5
	c-1.2,0.2-2.3,0.2-3.6,0.5l-3.8,0.8c-5,1-10.2,2.1-14.9,3.5c0.7-0.3,3.2-1.1-1.5,0c-0.8,0.2-1.3,0.3-1.5,0.3
	c-0.2,0.1-0.3,0.1-0.3,0.2c0,0.1,0.3,0.1,0.2,0.2c-1.2,0.2-2.4,0.4-3.6,0.6c4.7-4.8,10.8-10.8,15-15.4l3-3.4c0.6-0.6,0.7-1,1.1-1.6
	l0.8-1.5l0.8-1.5l0.4-0.7c0.3-0.5,0.2-0.6,0.3-0.7l0.5-1.4c1.4-3.7,1.9-7.8,1.8-11.7c-0.1-4-1.1-7.9-2.8-11.3
	c-1.8-3.4-4.1-6.8-7.2-9.2c0.2-0.1,2,1.3,0.2-0.6c-0.6-0.7-1.2-1-1.7-1.3c-0.5-0.3-1-0.6-1.4-0.8c-0.8-0.6-1.9-1-2.8-1.5
	c-0.5-0.2-0.9-0.4-1.4-0.6c-0.5-0.1-0.9-0.3-1.3-0.3l0.1,0c-3.5-1.3-7.3-1.9-11.4-2.4c-5.2-0.4-10.5,0-15.6,1.1l-3.8,1l-3.8,1.3
	l-6.1,2.8l-6.8,3.5c-1-3.5-1.9-6.9-3-10.4c-0.3-0.9-0.6-1.6-0.9-2.4l-0.5-1.4l-1.2-2.5c-0.7-1.7-1.7-3.2-2.6-4.8
	c-1-1.5-2-3.1-3.1-4.5c-3-4.1-8-8.2-10.7-10.3c-4-3.3-10.1-6-15.6-6.9c-1.9-0.2-3.3-0.6-4.3-0.6c-1,0-1.7-0.1-2-0.1
	c-0.8-0.1-0.5-0.3-0.3-0.7c0.2-0.4,2.1-0.9,2.5-1.3c0.2-0.2,0-0.4-0.9-0.6c-1-0.2-2.8-0.5-5.9-0.2c-1.4,0.1-2.2-0.1-2.1-0.3
	c0.6-0.9,0.8-1.8,1.8-2.8c0.5-0.5,1.3-1,2.4-1.5c1.2-0.5,2.8-0.9,5-1.3c1.1-0.2,2.2-0.2,3.5-0.2c0.6,0,1.3,0,2,0
	c0.7,0.1,1.5,0.2,2.3,0.3c0.8,0.1,1.7,0.3,2.6,0.5c0.9,0.2,1.8,0.5,2.8,0.8c1,0.3,2.1,0.6,3.2,1.1c1.1,0.5,2.2,1,3.4,1.6
	c1.7,0.9,3.3,1.9,4.9,2.8c1.5,1.1,3.2,2.1,4.7,3.3c5.3,4.2,9.8,9.2,13.5,14.9c0.9,1.4,1.7,2.9,2.5,4.3l2.2,4.5l0.6,1.5l0.1,0.2
	l0.1,0.3l0.2-0.1l0.1-0.1l0.4-0.2L129,45l2.7-0.9c3.9-1.4,8-2.2,12.1-2.9c8.2-1.1,16.8-0.7,25.1,1.8c5.7,1.9,10.4,4.3,15.3,7.8
	c1.4,1.1,3,2.2,4.4,3.8c0.7,0.8,1.4,1.6,2.2,2.4c0.7,0.9,1.3,1.8,1.9,2.7c2.6,3.7,4.4,8.2,5.1,12.1c0.9,4.9,1.1,10.1,0.4,15.3
	c-0.3,2.6-0.9,5.2-1.7,7.7c-0.4,1.3-0.9,2.5-1.3,3.7c0.1-0.2,0-0.1,0-0.1l0,0l0,0.1l-0.1,0.2c-0.2,0.3-0.4,0.6-0.6,0.8
	c0,0.1-0.2,0.2-0.1,0.2l0.3-0.1C194.9,99.7,195.1,99.7,195.3,99.7z M329.4,201.7c-1,0.8-2.4,1.8-3.9,2.7c1.3-0.8,2-1,3.5-2.3
	C329.7,201.6,329.8,201.4,329.4,201.7z M213.4,112.1c-0.5-0.2-1.1-0.4-3.1-0.6c-0.2,0-0.6,0-0.5,0
	C210.4,111.8,211.9,112,213.4,112.1z"/>
<polygon class="st4" points="249.5,473.1 119.2,503.5 263.9,574.3 "/>
<g>
	<path class="st0" d="M215.7,236.9c21.7-5.8,43.5-10.8,65.3-15.6c10.9-2.3,21.9-4.7,32.8-6.9c11-2.2,22-4,33-5.9
		c22.1-3.7,44-8.1,65.7-13.5c10.9-2.6,21.7-5.4,32.7-7.7l0.5-0.1l0.4-0.1l0.5-0.1c0.7-0.1,1.4-0.2,2.2-0.1c1.5,0,2.9,0.3,4.3,0.9
		c2.7,1.1,5,3.1,6.4,5.6c0.3,0.6,0.7,1.3,0.9,2c0.1,0.3,0.2,0.7,0.3,1l0.1,0.5l0.1,0.4l0.4,2.1l0.8,4.1c1,5.5,2,11,2.9,16.5
		c3.8,22.1,7.2,44.2,11.5,66.1c4.1,22,9.4,43.8,13.5,65.8c1.1,5.5,2,11,3,16.5l2.7,16.6c1.8,11,3.5,22.1,5.2,33.2
		c1.6,11.1,3.2,22.2,4.7,33.3c1.5,11.1,2.9,22.2,4.1,33.4c0.2,1.9-1.2,3.7-3.1,3.9c-1.8,0.2-3.3-1-3.8-2.6
		c-2.8-10.9-5.3-21.8-7.8-32.7c-2.5-10.9-4.8-21.9-7.2-32.8c-2.3-11-4.6-21.9-6.7-32.9l-3.2-16.5c-1-5.5-2.1-11-3-16.5
		c-3.8-22-6.5-44.3-10.3-66.3c-3.7-22.1-8.2-44-12.3-66c-1.1-5.5-2-11-3-16.5l-0.7-4.1l-0.4-2.1l0-0.1l0,0c0,0,0,0,0,0c0,0,0,0,0,0
		c0,0,0,0.1,0,0.1c0.1,0.1,0.2,0.2,0.3,0.2c0.1,0,0.1,0,0.2,0c0,0,0.1,0,0.1,0l0,0c0,0,0,0-0.1,0L448,200c-11,2.1-22.1,3.8-33.1,5.6
		c-22.1,3.5-44,8-65.8,13.2c-10.9,2.5-21.8,5.1-32.7,7.4c-10.9,2.3-21.9,4.4-32.9,6.5c-22,4.1-44.1,7.9-66.3,11.1
		c-1.9,0.3-3.7-1.1-4-3C212.9,239,214,237.3,215.7,236.9z"/>
</g>
<polygon class="st5" points="498.9,437.1 506.8,489.3 263.9,574.3 216.4,240.3 453.4,192.2 "/>
<g id="BNuLAg">
	<path class="st1" d="M423,439.3l-2.8-14.4l28.6-5.5l-5.5-28.6l14.6-2.8l6,31.6c-0.7,5.8-4.2,11-9.3,13.8L423,439.3z"/>
	<path class="st1" d="M303.2,283l2.8,14.4l-28.6,5.5l5.5,28.6l-14.4,2.8l-6-31.6c0.7-5.8,4.2-11,9.3-13.8L303.2,283z"/>
	<path class="st1" d="M441.2,301.3l-14.4,2.8l-5.5-28.6l-28.6,5.5l-2.8-14.4l31.6-6c5.8,0.7,11,4.2,13.8,9.3L441.2,301.3z"/>
	<path class="st1" d="M285,421l14.4-2.8l5.5,28.6l28.6-5.5l2.8,14.4l-31.6,6c-5.8-0.7-11-4.2-13.8-9.3L285,421z"/>
	<path class="st1" d="M294.9,314.7l42.5-8.1l8.1,42.7l-42.5,8.1L294.9,314.7z M328.5,337.6l-2.7-13.9l-14.1,2.7l2.7,14.1
		L328.5,337.6z"/>
	<path class="st1" d="M374.8,343.8l-8.1-42.7l42.7-8.1l8.1,42.7L374.8,343.8z M383.8,312.4l2.8,14.1l14.1-2.7l-2.7-14.1L383.8,312.4
		z"/>
	<path class="st1" d="M316.9,429.3l-8.1-42.7l42.7-8.1l8.1,42.7L316.9,429.3z M339.8,395.8l-14.1,2.7l2.7,14.1l14.1-2.7L339.8,395.8
		z"/>
	<path class="st1" d="M400.2,399.1l-21.4,4.2l2.7,13.9l-14.3,2.7l-5.5-28.4l21.1-4l-1-7.5l14.6-2.2l-0.2-0.2l3.8,21.4H400.2z"/>
	<path class="st1" d="M374,381.1l-13.9,2.7l-2.7-13.8l-14.1,2.7l-2.7-14.6l28.1-5.3L374,381.1z"/>
	<path class="st1" d="M367.3,345.3l-13.8,2.7l-5.5-28.4l13.8-2.7L367.3,345.3z"/>
	<path class="st1" d="M415.2,396.4l-4.2-21.6l13.6-2.7l4.2,21.4L415.2,396.4L415.2,396.4z"/>
	<path class="st1" d="M393.4,362.9l-14.3,2.7l-2.7-14.1l14.1-2.7l2.7,14.3L393.4,362.9z"/>
	<path class="st1" d="M408,360.2l2.7,13.6l-14.4,3.8l0.2,0.2c-1-5-2-10-3.2-14.9l-0.2,0.2L408,360.2L408,360.2z"/>
	<path class="st1" d="M408.2,360.4l-2.8-14.6l13.6-2.7l2.8,14.4l-13.8,2.7L408.2,360.4z"/>
	<path class="st1" d="M307.1,379.2l-2.7-13.9l13.8-2.7l2.7,13.9L307.1,379.2z"/>
	<path class="st1" d="M415,396.3l2.7,13.8l-14.8,2.8c-0.8-4.8-1.8-9.3-2.7-13.9l-0.2,0.2L415,396.3L415,396.3z"/>
</g>
<path d="M492.7,290.5c-4.1-3.5-7.9-7.2-11.6-11c-3.7-3.8-7.3-7.7-10.8-11.7c-3.5-4-6.9-8.1-10.2-12.3s-6.4-8.4-9.3-13
	c4.1,3.5,7.9,7.1,11.6,11c3.7,3.8,7.3,7.7,10.8,11.7c3.5,4,6.9,8.1,10.2,12.3C486.7,281.7,489.8,286,492.7,290.5z"/>
<path d="M489,298c-4.3-0.6-8.6-1.4-12.8-2.4c-2.1-0.4-4.3-0.9-6.3-1.4l-6.3-1.5l-6.3-1.6c-2.1-0.6-4.2-1.1-6.3-1.7
	c-4.2-1.2-8.4-2.4-12.5-3.8c4.3,0.6,8.6,1.4,12.8,2.4c2.2,0.4,4.3,0.9,6.3,1.4l6.3,1.5l6.3,1.6c2.1,0.6,4.2,1.1,6.3,1.7
	C480.7,295.3,484.9,296.5,489,298z"/>
<path d="M489.3,304.2c-7.2,2.9-14.5,5.4-21.9,7.8c-3.7,1.2-7.4,2.3-11,3.5l-11.1,3.2l-11.2,3c-3.8,0.9-7.4,1.9-11.3,2.8
	c-7.5,1.8-15,3.5-22.6,4.8c7.2-2.9,14.5-5.4,21.9-7.8c3.7-1.2,7.4-2.3,11-3.5l11.1-3.2l11.2-3c3.8-0.9,7.5-1.9,11.3-2.8
	C474.1,307.3,481.6,305.5,489.3,304.2z"/>
<g>
	<g>
		<g>
			<path class="st0" d="M563.6,394.4c0-0.2,0.1-0.4,0.3-0.5c0,0-0.1,0-0.3,0c0,0-0.1,0-0.2,0c-0.1,0-0.3,0-0.5-0.1
				c-0.6-0.1-1.7-0.4-3.4-1c-0.2,0.3-0.5,0.7-0.7,1c0,0,0,0.1-0.1,0.1c0.2,0.1,0.4,0.1,0.6,0.2c0.2,0.1,0.4,0.1,0.5,0.2
				c0.1,0,0.1,0,0.2,0.1c0.2,0.1,0.4,0.1,0.6,0.2c0.5,0.2,1,0.3,1.4,0.4c0.3,0.1,0.6,0.1,0.8,0.2c0.1,0,0.2,0,0.2,0
				c0.1,0,0.2,0,0.2,0c0.1,0,0.2,0,0.3,0c0,0,0,0,0,0c0,0,0,0,0,0c0,0,0,0,0,0c0.2,0,0.4,0,0.5,0c0.1,0,0.2,0,0.3-0.1l0.1,0l0.4-0.6
				L563.6,394.4z M599.6,409.5c-0.1-0.1-0.2-0.2-0.2-0.3c0-0.1,0-0.2-0.1-0.2c-0.3-0.2-0.7-0.4-1-0.5c-0.1,0-0.3-0.1-0.3-0.1
				c-0.1,0,0,0.1,0,0.1c0,0,0,0-0.1,0c-0.1-0.1-0.2-0.1-0.3-0.2c-0.1-0.1-0.2-0.1-0.2-0.1c0,0.1-0.1,0.1-0.2,0.2
				c-0.1,0.1-0.2,0.2-0.4,0.2c0,0,0,0,0,0.1c0,0,0,0,0,0c-0.1-0.2-0.1,0.1-0.2,0c0,0-0.1-0.1-0.1,0.1c0,0,0,0,0,0
				c-0.1-0.2-0.1,0.1-0.2,0c0,0,0,0,0,0c0-0.1-0.1,0-0.1,0c-0.1,0-0.1,0-0.1,0c0,0,0,0-0.1,0c-0.2,0.2-0.3-0.1-0.4-0.1
				c0-0.2-0.2-0.1-0.2-0.2c0,0-0.1,0.1-0.1,0c0-0.1-0.1,0-0.1-0.1c0-0.1-0.1,0-0.1-0.1c0,0,0-0.1-0.1,0c-0.1,0-0.1,0-0.1-0.1
				c0-0.1-0.1-0.2-0.2-0.3c0-0.1,0-0.1,0.1-0.2c0.1-0.1,0-0.1-0.1-0.1c-0.1,0-0.1,0-0.1-0.1c0.1-0.2,0-0.3,0-0.5c0,0,0,0,0-0.1
				c0,0-0.1-0.1-0.2-0.2c-0.4-0.2-0.8-0.3-1.2-0.5c-0.1,0-0.1,0-0.2,0c-0.2,0.1-0.5-0.1-0.7-0.2c-0.2-0.1-0.2-0.1-0.3,0
				c-0.1,0.1-0.1,0.2-0.3,0.3c-0.1,0.1-0.1,0.2-0.1,0.3c-0.1,0.3-0.2,0.7-0.2,1.1c0,0.1,0,0.2,0.1,0.2c0,0,0,0.1,0.1,0.1
				c0,0,0.1,0,0,0.1c0,0.1-0.1,0-0.1,0c0,0.4,0.1,0.7,0.2,1.1c0,0,0.1-0.1,0.1,0c0,0,0,0-0.1,0.1c0.1,0,0,0.2,0.1,0.2
				c0,0,0,0.1,0.1,0c0,0,0.1-0.1,0.1,0c0,0-0.1,0-0.1,0.1c-0.1,0.1,0,0.1,0.1,0.2l0.1,0c0,0,0.1,0.1,0,0.1c-0.1,0.1,0,0.1,0.1,0.1
				c0,0,0.1,0,0.1,0.1c0,0.1,0.1,0.2,0.2,0.3c0.1,0.1,0.1,0.2,0.2,0.3c0.1-0.1,0.2-0.1,0.1,0c0,0,0,0.1,0,0.1
				c0.1,0.1,0.2,0.3,0.3,0.4c0.3,0.2,0.5,0.4,0.8,0.5c0.2,0.1,0.4,0.2,0.6,0.3h0c0.1,0,0.2,0.1,0.3,0c0.1,0,0.1,0,0.2,0.1
				c0.1,0.1,0.2,0.1,0.3,0.1c0.1,0,0.1,0,0.2-0.1c0.2,0.1,0.4,0.1,0.5,0.1c0.1,0,0.1,0,0.1-0.1h0c0.2,0,0.3,0,0.5,0.1
				c0.1,0,0.2,0,0.2-0.1c0-0.1,0.1,0,0.1,0c0.1,0.1,0.2,0.1,0.4,0c0.5-0.1,1-0.4,1.5-0.6c0.2-0.1,0.3-0.2,0.5-0.3
				c0.1,0,0.1-0.2,0-0.3c-0.1-0.2-0.1-0.3,0-0.3c0.1-0.1,0.2-0.3,0-0.5c-0.1-0.1-0.1-0.1,0-0.2c0.2,0,0.2-0.2,0.3-0.3
				C599.8,409.7,599.7,409.5,599.6,409.5z M551.2,361c-0.1-0.4-0.3-0.7-0.6-1c-0.1-0.1-0.1-0.3-0.2-0.3c-0.1,0-0.1,0.1-0.1,0.2
				c0,0.1-0.1,0-0.1,0c-0.1-0.1-0.1-0.2-0.2-0.3c-0.1-0.1-0.1-0.2-0.2-0.1c-0.2,0.1-0.4,0.1-0.6,0.2c-0.3,0.1-0.5,0.1-0.8,0.1
				c0,0-0.1,0-0.1,0c0,0,0,0,0,0c-0.1-0.2-0.2,0-0.3-0.1c0,0-0.1-0.1-0.1,0c0,0,0,0,0,0c-0.1-0.2-0.3,0-0.4-0.1c0,0-0.1,0-0.1,0
				c0-0.2-0.1-0.1-0.2-0.1c-0.1,0-0.2-0.1-0.2-0.1c0,0-0.1-0.1-0.1-0.1c-0.4,0-0.5-0.3-0.7-0.5c0-0.2-0.3-0.3-0.3-0.5
				c0,0-0.1,0-0.1-0.1c0-0.1-0.1-0.1-0.1-0.3c0.1-0.1-0.1-0.1-0.1-0.2c0,0,0-0.1-0.1-0.1c-0.1,0-0.1-0.1-0.1-0.2
				c0-0.2-0.1-0.4-0.1-0.7c0-0.1,0-0.2,0.2-0.3c0.1-0.1,0.1-0.2,0-0.2c-0.1-0.1-0.1-0.1,0-0.2c0.1-0.3,0.2-0.6,0.3-0.9
				c0,0,0-0.1,0-0.1c0.1-0.1,0-0.2-0.1-0.3c-0.3-0.3-0.7-0.6-1-0.9c0,0-0.1-0.1-0.1,0c-0.3,0.1-0.4-0.2-0.6-0.3
				c-0.2-0.1-0.1-0.1-0.3,0c-0.1,0.1-0.2,0.2-0.4,0.3c-0.1,0-0.2,0.2-0.2,0.3c-0.2,0.4-0.4,0.8-0.6,1.2c0,0.1,0,0.1,0,0.2v0.1
				c0,0,0,0.1,0,0.2c0,0,0,0.1,0,0.1c-0.1,0.1-0.1,0-0.1,0c-0.1,0.4-0.2,0.9-0.2,1.3c0,0,0.1,0,0.1,0c0,0.1-0.1,0-0.1,0
				c0.1,0.1-0.1,0.2,0.1,0.3c0,0,0,0.1,0.1,0.1c0,0,0.1,0,0.1,0c0,0-0.1,0-0.1,0c-0.2,0.1,0,0.1,0,0.2l0.1,0c0,0.1,0,0.1,0,0.2
				c-0.1,0.1,0,0.1,0,0.2c0,0,0.1,0.1,0,0.2c-0.1,0.1,0,0.3,0.1,0.4c0.1,0.1,0,0.3,0.1,0.4c0.2,0,0.2,0,0.1,0.1c0,0-0.1,0.1,0,0.1
				c0.1,0.2,0.1,0.4,0.2,0.6c0.2,0.3,0.3,0.7,0.6,0.9c0.2,0.2,0.4,0.4,0.5,0.6c0.1,0,0.1,0.2,0.3,0.2c0.1,0,0.1,0.1,0.2,0.2
				c0.1,0.2,0.2,0.3,0.4,0.3h0c0.1,0.2,0.4,0.2,0.5,0.4c0,0,0.1,0,0.2,0l0,0c0.2,0.1,0.4,0.2,0.5,0.3c0.1,0.1,0.2,0.1,0.3,0
				c0.1,0,0.1,0,0.1,0c0.1,0.1,0.2,0.2,0.4,0.2c0.6,0.2,1.3,0.2,2,0.2c0.2,0,0.5-0.1,0.7-0.1c0.1,0,0.2-0.1,0.2-0.2
				c0-0.2,0.1-0.3,0.3-0.3c0.2,0,0.3-0.2,0.3-0.4c0-0.1,0-0.2,0.1-0.1c0.2,0,0.3-0.1,0.5-0.1c0.2,0,0.2-0.2,0.1-0.3
				c0-0.2-0.1-0.3,0.1-0.4C551.3,361.2,551.3,361.1,551.2,361z M555.2,261.1c-0.2-0.1-0.3-0.2-0.5-0.3c-0.1,0-0.2,0-0.3-0.1
				c-4.5-0.7-18.4,10.5-24.6,14.5c-6.6,4.3-9.1,7.9-9.1,7.9c0.6,1,0.9,2,1.6,2.4c0.1,0.1,0.2,0.1,0.3,0.2c0.1,0.1,0.3,0.1,0.4,0.1
				c1.6,0.2,4.6-1.4,11.8-6.6C547.6,269.9,558.4,263.9,555.2,261.1z M571.7,250.4c-0.5-1-1.3-1.8-2.3-2.1c-0.1,0-0.2-0.1-0.3-0.1
				c-0.3-0.1-0.5-0.1-0.8-0.1c-0.2,0-0.5,0-0.7,0c-0.1,0-0.2,0-0.3,0.1h0c-0.1,0-0.2,0-0.3,0.1c-0.1,0-0.2,0-0.3,0.1
				c-0.1,0-0.3,0.1-0.4,0.2c-2.1,1-3,3.4-2,5.5c0.1,0.1,0.1,0.3,0.2,0.4c0.1,0.1,0.2,0.3,0.3,0.4c0.1,0.1,0.2,0.2,0.3,0.3
				c0.1,0.1,0.2,0.2,0.3,0.3c0.1,0.1,0.2,0.2,0.3,0.2c0.1,0.1,0.2,0.1,0.3,0.2c0,0,0.1,0,0.1,0c0.2,0.1,0.5,0.2,0.8,0.3
				c0.3,0.1,0.6,0.1,0.9,0.1c0.7,0.1,1.4-0.1,2-0.4C571.8,254.9,572.7,252.5,571.7,250.4z M593.8,440.2c0,0.1,0,0.2,0,0.2
				C593.7,440.3,593.7,440.2,593.8,440.2z M595.3,441.4l-0.4,1.4l-1.4,2.3l1.9-2l0.2-1.2C595.8,441.8,595.6,441.6,595.3,441.4z
				 M641.1,322c-0.1,0-0.3-0.1-0.4-0.2c-0.1-0.1-0.3-0.2-0.3-0.3c0-0.2-0.1-0.2-0.3-0.2c-0.1,0-0.2,0-0.2-0.1
				c-0.2-0.4-0.4-0.7-0.5-1.1c0,0,0-0.1,0-0.1c0-0.1-0.1-0.2-0.2-0.2c-0.3-0.1-0.7-0.1-1.1-0.1c0,0-0.1,0-0.1,0.1
				c-0.2,0.3-0.4,0.2-0.6,0.2c-0.2,0-0.2,0-0.3,0.2c-0.1,0.2-0.1,0.4-0.2,0.6c0,0.1,0,0.3,0,0.5c0,0.2,0,0.3,0.1,0.5l0.1,0.1
				l0.8,1.2l0,0l0.1,0.1l0,0l0.1,0.2l0.1,0.1c0.3,0.3,0.7,0.5,1.1,0.6c0,0,0-0.1,0.1,0c0.1,0,0,0,0,0.1c0.2,0,0.2,0.2,0.4,0.1
				c0,0,0.1,0,0.1,0c0,0,0-0.1,0.1-0.1c0,0,0,0.1,0,0.1c0,0.2,0.1,0.1,0.3,0.1l0.1-0.1c0.1,0,0.2,0,0.2,0.1c0.1,0.1,0.1,0,0.2,0
				c0.1,0,0.2,0,0.3,0c0.1,0.1,0.4,0.1,0.6,0.1c0.2,0,0.4,0,0.6,0c0.1-0.1,0.1-0.1,0.2-0.1c0,0,0.1,0.1,0.2,0c0.1,0,0.2,0,0.3,0
				L641.1,322z M671.5,382.6l-25.2-36.9h0l-1.5-2.2l-0.2-0.3l0,0l0,0c-0.3-0.1-0.6-0.3-1-0.4c-0.1,0-0.2-0.1-0.3-0.1
				c0,0,0,0.1-0.2,0c-0.1-0.1,0-0.1,0-0.1c0-0.1-0.3-0.2-0.6-0.3l-0.1,0c-0.2-0.1-0.4-0.3-0.5-0.3c-0.1-0.2-0.2-0.2-0.4-0.3
				c-0.1-0.1-0.3-0.1-0.4-0.4c-0.1-0.1-0.2-0.2-0.4-0.4c-0.1-0.1-0.2-0.2-0.2-0.3c-0.1-0.1-0.1-0.2-0.2-0.2
				c-0.3-0.3-0.4-0.7-0.6-1.1c-0.1,0-0.2-0.2-0.2-0.4c0,0,0-0.1,0-0.1c-0.9-0.3-1.8-0.6-2.6-1c0,0,0.1,0.1-0.1,0.1
				c0,0-0.1,0-0.1-0.1c-0.1,0-0.1-0.1,0-0.1c0,0,0,0,0,0c0,0,0,0-0.1,0c-0.5-0.1-1-0.5-1.5-0.7c-0.1,0-0.3-0.2-0.4-0.2
				c0,0,0,0.1-0.3,0c-0.2-0.1,0-0.1,0-0.1c-0.1-0.2-0.5-0.3-0.9-0.5l-0.2-0.1c-0.3-0.2-0.7-0.4-0.7-0.5c-0.2-0.2-0.4-0.3-0.7-0.5
				c-0.2-0.1-0.4-0.2-0.7-0.5c-0.1-0.2-0.4-0.4-0.6-0.6c-0.1-0.1-0.2-0.3-0.4-0.4c-0.1-0.1-0.2-0.3-0.3-0.4c-0.5-0.5-0.7-1.1-1-1.7
				c-0.2-0.1-0.3-0.2-0.3-0.6c0-0.2,0-0.2-0.1-0.5c-0.3-0.8-0.3-1.8-0.4-2.6c0-0.7,0-1.4,0.2-2c0-0.1,0.1-0.3,0.1-0.4
				c0.2-0.7,0.5-1.4,0.9-2c0.2-0.4,0.5-0.8,0.8-1.1l-1.4-2.1l-43.2-63.3c-0.8-1.1-2-1.9-3.4-2.4l-0.5-0.2c-0.7-0.2-1.5-0.4-2.2-0.5
				c-0.2,0-0.5-0.1-0.8-0.1c-0.1,0-0.1,0-0.2,0c-2.8-0.2-5.6,0.4-7.2,1.6l-62.2,44.3c-3.5,2.5-4.1,7.6-1.3,11.4l26,37.6l2,3
				c0,0,0,0,0,0c0.3-0.2,0.7-0.4,1-0.6c1.4-0.7,2.4-1.2,2.7-1.4c0.4-0.3,1.9-0.9,4-1.2c3.1-0.4,4.9-0.1,5.5-0.3c0.2,0,1,0,2.3,0.5
				c1.1,0.4,2.2,1,3.1,1.7c1,0.7,1.8,1.6,2.5,2.6c1.2,1.8,1.4,2.6,1.7,2.8c0.1,0.1,0.2,0.2,0.4,0.6c0.2,0.4,0.4,1.2,0.4,2.6
				c0,0.4,0,0.8-0.1,1.1c-0.6,0.1-1.3,0.2-1.9,0.4c-1.6,0.4-3.1,0.9-4.6,1.6c-2.1,0.8-4,2.1-5.9,3.4c-0.4,0.2-0.6,0.5-0.9,0.8
				c0,0-0.1,0.1-0.1,0.1c-0.1,0-0.1,0.1-0.2,0.1c0.3,0.3,0.6,0.6,0.8,0.9c0.4,0.5,0.8,1.1,1.2,1.7c0,0,0.1,0,0.1-0.1
				c0.2-0.1,0.4-0.3,0.6-0.4c0.4-0.3,0.8-0.5,1.2-0.8c1.4-1,2.9-1.7,4.4-2.5c0.6-0.3,1.2-0.5,1.7-0.7c0.6-0.2,1.2-0.3,1.7-0.5
				c0.4-0.1,1-0.2,1.4-0.4c0.2-0.1,0.6-0.1,1-0.2c0.9-0.1,1.7-0.1,2.6-0.3c1,0.1,2,0.1,2.9,0.3c0.2,0.1,0.5,0,0.7,0l0.2,0.1
				c0.8,0.2,1.7,0.5,2.3,0.9c0.2,0.1,0.4,0.2,0.5,0.3c0.2,0.1,0.4,0.1,0.5,0.2c0.2,0,0.3,0.2,0.5,0.3c0.2,0.2,0.3,0.4,0.5,0.5
				c0.2,0.2,0.4,0.4,0.5,0.6c0.2,0.3,0.4,0.5,0.5,0.8c0.2,0.3,0.3,0.6,0.4,0.8c0.2,0.6,0.4,1.2,0.4,1.8c0.1,1.3-0.2,2.7-0.6,4.1
				c-0.3,1-0.6,1.9-1.2,2.8c-0.3,0.5-0.4,0.9-0.3,1.1c0.1,0.2-0.2,0.8-0.6,1.5c-0.6,1-0.9,1.7-0.8,2c0,0.1,0,0.2-0.1,0.5
				c0.6,0.9,1.1,1.9,1.4,3c0.1,0.3,0.1,0.6,0.1,1c0.9-0.8,1.8-1.4,2.7-2c0.3-0.3,0.8-0.5,1.1-0.8c0.2-0.2,0.5-0.3,0.9-0.5
				c0.8-0.3,1.6-0.5,2.3-0.9c0.9-0.2,1.9-0.5,2.8-0.5c0.2,0,0.5-0.1,0.7-0.1l0.2,0c0.8,0,1.7,0,2.5,0.2c0.1,0,0.2,0,0.3,0.1
				c0.3,0.1,0.6,0.1,0.9,0.1c0.2,0,0.3,0.1,0.5,0.2c0.4,0.2,0.9,0.5,1.5,0.8c0.6,0.3,1,0.7,1.3,1c0.3,0.3,0.5,0.8,0.6,1.4
				c0.2,0.6,0.2,1.3,0.3,2l0,1.1l0,1.1c-0.1,0.9-0.1,1.7-0.2,2.6c0,0.1,0,0.3-0.1,0.4c-0.1,0.5-0.1,0.9,0,1.1
				c0.2,0.2,0.1,0.8-0.1,1.5c-0.3,1.1-0.4,1.7-0.2,2c0.1,0.1,0,0.4-0.1,0.8c-0.3,0.8-0.6,1.7-0.9,2.5c0,0.1,0,0.1-0.1,0.2
				c-0.5,0.6-1,1.2-1.5,1.8c-0.4,0.5-0.8,1-1.1,1.5c0.6,1.2,1.1,2.4,1.5,3.7c0.3-0.5,0.7-1,1-1.5c0.7-1,1.4-2,2.2-2.8
				c0,0-0.2,0.1,0-0.1c0.2-0.2,0.2-0.1,0.2,0c0.1-0.2,0.3-0.4,0.6-0.6c0.2-0.2,0.5-0.4,0.6-0.6c0-0.1,0.3-0.2,0.3-0.3
				c0,0-0.1,0,0.1-0.2c0.2-0.1,0.1,0,0.1,0c0.3,0,0.5-0.4,0.8-0.6l0.1-0.2c0.2-0.2,0.6-0.4,0.7-0.4c0.3,0,0.4-0.2,0.7-0.4
				c0.2-0.1,0.3-0.3,0.8-0.4c0.4-0.1,1.2-0.3,1.8-0.4c0.4,0,0.7,0,1,0c0.1,0,0.3,0,0.5,0.1c0.1,0,0.3,0.1,0.4,0.1
				c0.2-0.1,0.4-0.1,0.6,0.1c0.1,0.1,0.1,0.2,0.4,0.3c0.8,0.3,1.4,1,1.9,1.6c1,1.2,1.6,2.7,1.9,4.2c0.1,0.3,0.1,0.6,0.2,0.9
				c0,0.3,0,0.5,0,0.9c0,0.6-0.1,1.2-0.1,1.8c0,0.5-0.2,1-0.2,1.4c0,0.3-0.1,0.6-0.3,1c-0.3,0.8-0.7,1.7-0.8,2.6
				c-0.5,1-0.8,2.1-1.3,3.1c-0.1,0.3-0.2,0.6-0.2,0.8l-0.1,0.3c-0.4,0.9-0.7,1.9-1.2,2.8c-0.2,0.5-0.4,1-0.4,1.4
				c0,0.2-0.1,0.4-0.2,0.7c-0.3,0.6-0.5,1.2-0.8,2c-1,3-1.9,6.1-2.7,9.2c0.1,0.1,0.1,0.2,0.2,0.3c0.4,0.7,0.6,1.5,0.5,2.3
				c0,0.4-0.1,0.8-0.3,1.2l0,0l1.1,1.7c0.2,0.4,0.5,0.7,0.7,1c0.6,0.8,1.2,1.5,1.8,2.1c1.2,1.2,2.4,1.9,3.4,2.3
				c0.4,0.1,0.8,0.2,1.1,0.3c2.5,0.3,4.5-1.3,6.4-2.7l61.2-46.6C674.6,393,674.3,386.4,671.5,382.6z M688.1,391.1l-8-11.7l-1-1.4
				l-5.6-8.2l-3.8-5.6l-0.7-1c-1.8-0.6-3.7-1.3-5.4-2.4c0,0,0,0-0.1,0l1,1.5l3.6,5.2l10.7,15.7l0.9,1.3l1.6,2.4
				c3.1,4.3,3.4,11.7-0.5,14.5l-68.7,52.3c-1.7,1.2-3.5,2.7-5.6,3c-0.1,0-0.3,0-0.4,0c-0.3,0-0.6,0-0.9,0c-0.4,0-0.9-0.1-1.4-0.3
				c-0.2-0.1-0.5-0.2-0.8-0.3c-0.1-0.1-0.3-0.1-0.4-0.2c-1.7-0.9-3.5-2.6-5.6-5.6l-0.4-0.6l-1.3-1.9l-1.8-2.6c0,1.7,0,4.7,0,7.4
				l2.9,4.2l0.8,1.1l0.9,1.3l0.3,0.4c4.2,5.9,11.8,6.6,17,2.9l70.9-53.8C691.5,404.9,692.3,397,688.1,391.1z M566.4,374.2
				c0.1-0.1,0-0.3-0.1-0.3c-0.2-0.1-0.3-0.2-0.2-0.4c0-0.1-0.1-0.2-0.2-0.2c-0.3-0.2-0.7-0.3-1.1-0.3c-0.1,0-0.3-0.1-0.4-0.1
				c-0.1,0,0,0.1,0,0.2c0,0.1,0,0.1-0.1,0c-0.1,0-0.2-0.1-0.4-0.1c-0.1-0.1-0.2-0.1-0.2,0c0,0.1-0.1,0.1-0.1,0.2
				c-0.1,0-0.1,0.1-0.2,0.2c-0.1,0.2-0.4,0.3-0.6,0.4c0,0-0.1,0-0.1,0.1c0,0,0,0,0,0c-0.2-0.1-0.2,0.1-0.3,0.1c0,0-0.1-0.1-0.1,0.1
				c0,0,0,0,0,0c-0.2-0.1-0.2,0.1-0.4,0c0,0,0,0.1,0,0c-0.1-0.1-0.1,0-0.2,0c-0.1,0-0.2,0-0.2,0c0,0-0.1,0-0.1,0
				c-0.3,0.1-0.5-0.2-0.6-0.3c0-0.1-0.1-0.1-0.1-0.2c-0.1,0-0.1-0.1-0.2-0.2c0,0-0.1,0-0.1,0c0-0.1-0.2-0.1-0.1-0.2
				c0.1-0.1-0.1-0.1-0.1-0.2c0,0,0-0.1-0.1-0.1c-0.1,0,0-0.1-0.1-0.2c0-0.2-0.1-0.4-0.1-0.6c0-0.1,0-0.2,0.2-0.3
				c0.1,0,0.1-0.1,0-0.2c-0.1-0.1-0.1-0.1,0-0.2c0.2-0.2,0.3-0.5,0.4-0.7c0,0,0-0.1,0-0.1c0.1,0,0.1-0.1,0-0.3
				c-0.2-0.4-0.4-0.8-0.7-1.1c0,0-0.1-0.1-0.1-0.1c-0.3,0-0.4-0.3-0.5-0.5c-0.1-0.2-0.1-0.2-0.3-0.1c-0.2,0-0.3,0.2-0.5,0.2
				c-0.1,0-0.2,0.2-0.3,0.3c-0.4,0.4-0.7,0.8-0.9,1.2c-0.1,0.1-0.1,0.2-0.1,0.3l0,0c0,0.1,0,0.1,0,0.2c0,0,0,0.1,0,0.1
				c-0.1,0.1-0.1,0-0.1,0c-0.2,0.5-0.3,1-0.3,1.5c0,0,0.1,0,0.1,0c0,0.1-0.1,0-0.1,0c0.1,0.1-0.1,0.3,0,0.4c0,0,0,0.1,0.1,0.1
				c0,0,0.1,0,0.1,0c0,0-0.1,0-0.1,0c-0.2,0.1,0,0.2,0,0.2l0.1,0c0,0.1,0,0.2,0,0.2c-0.1,0.1,0,0.1,0,0.2c0,0.1,0.1,0.1,0,0.2
				c-0.1,0.1,0,0.3,0.1,0.5c0.1,0.2,0.1,0.3,0.1,0.5c0.2,0,0.2,0,0.2,0.1c0,0.1-0.1,0.1,0,0.2c0.1,0.2,0.2,0.4,0.3,0.6
				c0.3,0.3,0.5,0.7,0.9,0.9c0.3,0.2,0.5,0.3,0.8,0.5c0,0,0,0,0,0c0,0,0.1-0.1,0.1,0c0,0-0.1,0-0.1,0c0,0,0,0,0,0
				c0.1,0,0.2,0.1,0.4,0.1c0.1,0,0.2,0,0.2,0.1c0,0,0.1,0.1,0.2,0.1l0.3,0l0.1,0l0.2,0c0.5,0,1.1-0.1,1.7,0c0.3,0.1,0.5,0.1,0.8,0.2
				c0,0,0,0,0,0c0.7-0.2,1.4-0.5,2-0.9c0.2-0.1,0.4-0.3,0.6-0.5c0.1-0.1,0.1-0.2,0.1-0.3c-0.1-0.2,0-0.3,0.1-0.4
				c0.2-0.2,0.2-0.4,0-0.5c-0.1-0.1-0.1-0.1,0-0.2C566.3,374.5,566.3,374.3,566.4,374.2z M584.4,392.4c-0.1-0.2-0.2-0.3-0.1-0.4
				c0-0.1,0-0.2,0-0.3c-0.2-0.3-0.5-0.6-0.8-0.8c-0.1-0.1-0.2-0.2-0.3-0.2c-0.1,0,0,0.1,0,0.2c0,0.1,0,0-0.1,0
				c-0.1-0.1-0.2-0.2-0.2-0.3c-0.1-0.1-0.2-0.2-0.2-0.1c-0.1,0.1-0.3,0.1-0.4,0.2c-0.2,0.1-0.4,0.1-0.6,0.2c0,0,0,0-0.1,0.1
				c0,0,0,0,0,0c-0.1-0.2-0.2,0.1-0.3,0c0,0-0.1-0.1-0.1,0c0,0,0,0,0,0c-0.1-0.2-0.2,0-0.3,0c0,0,0,0,0,0c0-0.1-0.1-0.1-0.2-0.1
				s-0.1,0-0.2-0.1c0,0,0,0-0.1,0c-0.3,0.1-0.4-0.2-0.5-0.3c0-0.2-0.2-0.2-0.2-0.4c0,0-0.1,0-0.1,0c0-0.1-0.1-0.1-0.1-0.2
				c0.1-0.1-0.1-0.1-0.1-0.1c0,0,0-0.1-0.1-0.1s-0.1-0.1-0.1-0.1c0-0.2-0.1-0.3-0.1-0.5c0-0.1,0-0.2,0.1-0.2c0.1-0.1,0-0.1-0.1-0.2
				c-0.1,0-0.1-0.1-0.1-0.1c0.1-0.2,0.1-0.5,0.1-0.7c0,0,0-0.1,0-0.1c0.1-0.1,0-0.1-0.2-0.3c-0.3-0.3-0.7-0.5-1.1-0.7
				c0,0-0.1-0.1-0.2,0c-0.3,0.1-0.4-0.1-0.6-0.2c-0.2-0.1-0.2-0.1-0.3,0c-0.1,0.1-0.2,0.2-0.3,0.3c-0.1,0-0.1,0.2-0.2,0.3
				c-0.2,0.3-0.3,0.7-0.4,1.1c0,0.1,0,0.2,0,0.3c0,0,0,0.1,0,0.1c0,0,0.1,0.1,0,0.1c0,0.1-0.1,0-0.1,0c-0.1,0.4-0.1,0.8,0,1.2
				c0,0,0.1,0,0.1,0c0,0-0.1,0-0.1,0c0.1,0.1,0,0.2,0.1,0.3c0,0,0,0.1,0.1,0.1c0,0,0.1,0,0.1,0c0,0-0.1,0-0.1,0
				c-0.2,0.1,0,0.1,0,0.2l0.1,0c0,0,0,0.1,0,0.1c-0.1,0.1,0,0.1,0,0.1c0,0,0.1,0,0.1,0.2c0,0.1,0,0.3,0.1,0.4
				c0.1,0.1,0.1,0.2,0.1,0.4c0.1,0,0.2,0,0.1,0.1c0,0-0.1,0.1,0,0.1c0.1,0.1,0.1,0.3,0.3,0.5c0.2,0.2,0.4,0.6,0.6,0.7
				c0.2,0.1,0.4,0.3,0.6,0.5c0,0,0,0,0,0c0.1,0,0.2,0.1,0.3,0.1c0.1,0,0.1,0,0.2,0.1c0.1,0.1,0.2,0.2,0.4,0.2c0,0,0.1,0,0.1,0
				c0.1,0.2,0.4,0.2,0.5,0.3c0,0,0.1,0,0.2,0l0,0c0.2,0.1,0.3,0.1,0.5,0.2c0.1,0.1,0.2,0.1,0.3,0c0,0,0.1,0,0.1,0
				c0.1,0.1,0.2,0.1,0.3,0.1c0.6,0,1.2-0.1,1.8-0.2c0.2,0,0.4-0.2,0.6-0.2c0.1,0,0.2-0.1,0.1-0.2c0-0.2,0-0.3,0.2-0.3
				c0.2-0.1,0.3-0.2,0.2-0.4c0-0.1,0-0.1,0.1-0.1c0.2,0,0.3-0.1,0.4-0.2C584.5,392.7,584.5,392.5,584.4,392.4z M580.4,414.3
				c0-0.2,0.1-0.4,0.3-0.5c0,0-0.1,0-0.3,0c-0.1,0-0.2,0-0.3,0c-0.2,0-0.5-0.1-0.8-0.2c-0.2,0-0.3-0.1-0.5-0.1c0,0,0,0-0.1,0
				c0,0,0,0,0,0l0,0c-0.2,0.4-0.4,0.8-0.6,1.2c0.2,0.1,0.4,0.1,0.5,0.1c0.3,0.1,0.6,0.2,0.8,0.2c0.1,0,0.3,0,0.4,0.1
				c0.9,0.1,1.2,0,1.5-0.1l0.1,0l0.4-0.6L580.4,414.3z"/>
			<path class="st0" d="M638.2,317.7c-0.1,0-0.2,0.1-0.3,0.1c0,0,0,0-0.1,0c-0.9,0.5-1.8,0.8-2.7,1.1c0,0,0,0,0,0l-1.4-2l-42.4-62.1
				l-6.3-9.3c-0.5-0.7-1.2-1.3-2-1.8c-0.1-0.1-0.2-0.1-0.3-0.2c-0.3-0.2-0.6-0.3-0.9-0.5c-0.2-0.1-0.4-0.2-0.6-0.2
				c-0.2-0.1-0.4-0.1-0.6-0.2c-1-0.3-2.1-0.5-3.2-0.6c-3.2-0.3-6.6,0.4-8.6,1.8l-69.8,49.7c-3.9,2.8-4.6,8.5-1.5,12.8l31.5,45.5
				l2.1,3c-0.5,0.4-0.9,0.8-1.4,1.2c-0.4,0.3-0.8,0.7-1.1,1l-2.1-3l-31.2-45.8c-4.2-6-3.4-13.8,1.8-17.5l69.7-49.7
				c4.8-3.4,13.3-5.4,19.6,1c0.6,0.6,1.2,1.3,1.7,2.1l5.3,7.9l43.1,63.4L638.2,317.7z"/>
		</g>
		<g>
			<path class="st1" d="M581.8,414.5l-0.4,0.6l-0.1,0c-0.2,0.1-0.6,0.2-1.5,0.1c-0.1,0-0.2,0-0.4-0.1c-0.2,0-0.5-0.1-0.8-0.2
				c-0.2,0-0.3-0.1-0.5-0.1c0.2-0.4,0.4-0.8,0.6-1.2l0,0c0,0,0,0,0,0c0,0,0,0,0.1,0c0.2,0,0.4,0.1,0.5,0.1c0.3,0.1,0.6,0.1,0.8,0.2
				c0.1,0,0.2,0,0.3,0c0.2,0,0.2,0,0.3,0c-0.2,0.1-0.3,0.3-0.3,0.5L581.8,414.5z"/>
			<path class="st1" d="M565,394.5l-0.4,0.6l-0.1,0c-0.1,0-0.2,0.1-0.3,0.1c-0.2,0.1-0.7,0.1-1.4-0.1c-0.2,0-0.5-0.1-0.8-0.2
				c-0.4-0.1-0.8-0.2-1.4-0.4c-0.2,0-0.4-0.1-0.6-0.2c-0.1,0-0.1,0-0.2-0.1c-0.2,0-0.3-0.1-0.5-0.2c-0.2-0.1-0.4-0.1-0.6-0.2
				c0,0,0-0.1,0.1-0.1c0.2-0.4,0.5-0.7,0.7-1c1.7,0.6,2.8,0.8,3.4,1c0.2,0.1,0.4,0.1,0.5,0.1c0.1,0,0.1,0,0.2,0c0.2,0,0.2,0,0.3,0
				c-0.2,0.1-0.3,0.3-0.3,0.5L565,394.5z"/>
			<path class="st1" d="M592,409.6c-0.1,0-0.2,0-0.1-0.2c0,0,0.1,0,0.1-0.1c0,0-0.1,0-0.1,0c-0.1,0-0.1,0-0.1,0
				c-0.2,0,0-0.2-0.1-0.2c0,0,0.1,0,0.1-0.1c0,0-0.1,0-0.1,0c-0.2-0.3-0.2-0.7-0.2-1.1c0.1,0,0.1,0,0.1,0c0,0,0-0.1,0-0.1
				c0,0,0-0.1-0.1-0.1c0-0.1-0.1-0.2-0.1-0.2c0-0.4,0-0.7,0.2-1.1c0-0.1,0-0.2,0.1-0.3c0.2-0.1,0.2-0.2,0.3-0.3
				c0.1-0.1,0.1-0.1,0.3,0c0.2,0.1,0.4,0.3,0.7,0.2c0,0,0.1,0,0.2,0c0.4,0.2,0.8,0.3,1.2,0.5c0.2,0.1,0.3,0.1,0.2,0.2c0,0,0,0,0,0.1
				c0.1,0.2,0.1,0.3,0,0.5c0,0,0,0.1,0.1,0.1c0.1,0,0.2,0,0.1,0.1c-0.1,0.1-0.1,0.2-0.1,0.2c0,0.1,0.1,0.2,0.2,0.3
				c0,0,0,0.1,0.1,0.1c0.1,0,0.1,0,0.1,0c0,0.1,0.1,0,0.1,0.1c0,0.1,0.1,0,0.1,0.1c0,0,0.1-0.1,0.1,0c0,0.2,0.2,0,0.2,0.2
				c0.1,0,0.2,0.3,0.4,0.1c0,0,0,0,0.1,0c0,0,0.1,0,0.1,0c0,0,0.1-0.1,0.1,0c0,0,0,0,0,0c0.1,0,0.1-0.2,0.2,0c0,0,0,0,0,0
				c0-0.2,0-0.1,0.1-0.1c0.1,0.1,0.1-0.2,0.2,0c0,0,0,0,0,0c0-0.1,0-0.1,0-0.1c0.1-0.1,0.3-0.1,0.4-0.2c0.1-0.1,0.2-0.1,0.2-0.2
				c0,0,0.1,0,0.2,0.1c0.1,0.1,0.2,0.1,0.3,0.2c0.1,0,0.1,0.1,0.1,0c0-0.1-0.1-0.1,0-0.1c0.1,0,0.2,0.1,0.3,0.1
				c0.4,0.2,0.7,0.3,1,0.5c0.1,0.1,0.2,0.2,0.1,0.2c0,0.1,0.1,0.2,0.2,0.3c0.1,0.1,0.2,0.2,0.1,0.3c-0.1,0.1-0.2,0.2-0.3,0.3
				c-0.1,0-0.1,0.1,0,0.2c0.1,0.2,0.1,0.3,0,0.5c-0.1,0.1-0.1,0.2,0,0.3c0.1,0.1,0.1,0.2,0,0.3c-0.2,0.1-0.3,0.2-0.5,0.3
				c-0.5,0.2-1,0.5-1.5,0.6c-0.1,0-0.2,0-0.4,0c0,0-0.1,0-0.1,0c0,0.1-0.1,0.1-0.2,0.1c-0.2-0.1-0.3,0-0.5-0.1h0
				c0,0.1-0.1,0.1-0.1,0.1c-0.2-0.1-0.4,0-0.5-0.1c-0.1,0-0.1,0.1-0.2,0.1c-0.1,0-0.2,0-0.3-0.1c-0.1-0.1-0.1-0.1-0.2-0.1
				c-0.1,0.1-0.2,0-0.3,0h0c-0.2-0.1-0.4-0.2-0.6-0.3c-0.3-0.1-0.5-0.4-0.8-0.5c-0.1-0.1-0.2-0.3-0.3-0.4c0,0,0-0.1,0-0.1
				c0-0.1,0-0.1-0.1,0c-0.1-0.1-0.1-0.2-0.2-0.3c-0.1-0.1-0.2-0.2-0.2-0.3c0-0.1,0-0.1-0.1-0.1c-0.1,0-0.1,0-0.1-0.1
				C592.1,409.7,592.1,409.7,592,409.6L592,409.6z"/>
			<path class="st1" d="M584.4,392.7c-0.1,0.1-0.2,0.2-0.4,0.2c-0.1,0-0.1,0.1-0.1,0.1c0.1,0.2,0,0.4-0.2,0.4
				c-0.1,0-0.2,0.1-0.2,0.3c0,0.1,0,0.2-0.1,0.2c-0.2,0-0.4,0.2-0.6,0.2c-0.6,0.1-1.2,0.2-1.8,0.2c-0.1,0-0.2,0-0.3-0.1
				c0,0-0.1-0.1-0.1,0c-0.1,0.1-0.2,0.1-0.3,0c-0.2-0.1-0.3-0.1-0.5-0.2l0,0c0,0-0.1,0.1-0.2,0c-0.2-0.1-0.4-0.1-0.5-0.3
				c0,0-0.1,0-0.1,0c-0.1,0-0.3-0.1-0.4-0.2c0-0.1-0.1-0.1-0.2-0.1c-0.1,0-0.2-0.1-0.3-0.1c0,0,0,0,0,0c-0.2-0.2-0.3-0.3-0.6-0.5
				c-0.3-0.2-0.4-0.5-0.6-0.7c-0.1-0.1-0.1-0.3-0.3-0.5c0,0,0-0.1,0-0.1c0-0.1,0-0.1-0.1-0.1c-0.1-0.1,0-0.2-0.1-0.4
				c-0.1-0.1-0.2-0.3-0.1-0.4c0-0.1,0-0.1-0.1-0.2c-0.1,0-0.1-0.1,0-0.1c0,0,0-0.1,0-0.1l-0.1,0c0,0-0.2-0.1,0-0.2c0,0,0.1,0,0.1,0
				c0,0-0.1,0-0.1,0c-0.1,0-0.1,0-0.1-0.1c-0.1-0.1,0-0.2-0.1-0.3c0,0,0.1,0,0.1,0c0,0-0.1,0-0.1,0c-0.1-0.4-0.1-0.8,0-1.2
				c0,0,0.1,0.1,0.1,0c0,0,0-0.1,0-0.1c0,0,0-0.1,0-0.1c0-0.1,0-0.2,0-0.3c0.1-0.4,0.2-0.8,0.4-1.1c0-0.1,0.1-0.2,0.2-0.3
				c0.2-0.1,0.2-0.2,0.3-0.3c0.2-0.1,0.1-0.1,0.3,0c0.2,0.1,0.4,0.3,0.6,0.2c0,0,0.1,0,0.2,0c0.4,0.2,0.8,0.5,1.1,0.7
				c0.2,0.1,0.2,0.2,0.2,0.3c0,0,0,0,0,0.1c0,0.2,0,0.5-0.1,0.7c0,0,0,0.1,0.1,0.1c0.1,0,0.2,0.1,0.1,0.2c-0.2,0.1-0.2,0.2-0.1,0.2
				c0,0.2,0.1,0.3,0.1,0.5c0,0,0,0.1,0.1,0.1s0.1,0.1,0.1,0.1c0,0.1,0.1,0.1,0.1,0.1c-0.1,0.1,0.1,0.1,0.1,0.2c0,0,0.1,0,0.1,0
				c0,0.2,0.3,0.2,0.2,0.4c0.2,0.1,0.2,0.4,0.5,0.3c0,0,0.1,0,0.1,0c0,0,0.1,0.1,0.2,0.1s0.1-0.1,0.2,0.1c0,0,0,0,0,0
				c0.1,0.1,0.2-0.1,0.3,0c0,0,0,0,0,0c0-0.2,0.1-0.1,0.1,0c0.1,0.1,0.2-0.1,0.3,0c0,0,0,0,0,0c0-0.1,0-0.1,0.1-0.1
				c0.2,0,0.4-0.1,0.6-0.2c0.1-0.1,0.3-0.1,0.4-0.2c0,0,0.1,0,0.2,0.1c0.1,0.1,0.2,0.2,0.2,0.3c0,0.1,0.1,0.1,0.1,0
				c0-0.1,0-0.2,0-0.2c0.1,0,0.2,0.2,0.3,0.2c0.3,0.2,0.6,0.5,0.8,0.8c0.1,0.1,0.1,0.2,0,0.3c-0.1,0.1,0,0.2,0.1,0.4
				C584.5,392.5,584.5,392.7,584.4,392.7z"/>
			<path class="st1" d="M566.4,374.2c-0.1,0.2-0.2,0.4-0.4,0.5c-0.1,0.1-0.1,0.1,0,0.2c0.2,0.2,0.2,0.4,0,0.5
				c-0.1,0.1-0.2,0.2-0.1,0.4c0.1,0.1,0,0.2-0.1,0.3c-0.2,0.1-0.4,0.3-0.6,0.5c-0.6,0.4-1.3,0.7-2,0.9c0,0,0,0,0,0
				c-0.3-0.1-0.6-0.1-0.8-0.2c-0.6-0.1-1.1,0-1.7,0l-0.2,0l-0.1,0l-0.3,0c-0.1,0-0.1-0.1-0.2-0.1c-0.1-0.1-0.2-0.1-0.2-0.1
				c-0.2,0-0.2-0.1-0.4-0.1c0,0,0,0,0,0c0,0,0.1,0,0.1,0c0,0-0.1,0-0.1,0c0,0,0,0,0,0c-0.3-0.2-0.5-0.4-0.8-0.5
				c-0.4-0.2-0.6-0.6-0.9-0.9c-0.1-0.2-0.2-0.4-0.3-0.6c0-0.1,0-0.1,0-0.2c0-0.1,0-0.1-0.2-0.1c-0.1-0.2,0-0.3-0.1-0.5
				c-0.1-0.1-0.2-0.4-0.1-0.5c0.1-0.1,0-0.2,0-0.2c-0.1-0.1-0.1-0.1,0-0.2c0,0,0-0.1,0-0.2l-0.1,0c0-0.1-0.2-0.2,0-0.2
				c0,0,0.1,0,0.1,0c0-0.1-0.1,0-0.1,0c-0.1,0,0-0.1-0.1-0.1c-0.1-0.1,0.1-0.3,0-0.4c0,0,0.1,0,0.1,0c0,0-0.1,0-0.1,0
				c0-0.5,0.1-1,0.3-1.5c0.1,0,0.1,0.1,0.1,0c0,0,0-0.1,0-0.1c0-0.1,0-0.1,0-0.2l0,0c0-0.1,0-0.2,0.1-0.3c0.2-0.5,0.5-0.9,0.9-1.2
				c0.1-0.1,0.2-0.3,0.3-0.3c0.2,0,0.3-0.1,0.5-0.2c0.2-0.1,0.2-0.1,0.3,0.1c0.1,0.2,0.2,0.5,0.5,0.5c0,0,0.1,0.1,0.1,0.1
				c0.2,0.4,0.5,0.8,0.7,1.1c0.1,0.2,0.1,0.3,0,0.3c0,0,0,0,0,0.1c-0.1,0.2-0.2,0.5-0.4,0.7c0,0,0,0.1,0,0.2c0.1,0.1,0.1,0.2,0,0.2
				c-0.2,0.1-0.2,0.2-0.2,0.3c0,0.2,0.1,0.4,0.1,0.6c0,0.1,0,0.1,0.1,0.2c0.1,0,0.1,0.1,0.1,0.1c0,0.1,0.1,0.1,0.1,0.2
				c-0.1,0.1,0.1,0.1,0.1,0.2c0,0,0.1,0,0.1,0c0,0.1,0.1,0.1,0.2,0.2c0.1,0.1,0.1,0.1,0.1,0.2c0.2,0.1,0.3,0.4,0.6,0.3
				c0,0,0.1,0,0.1,0c0.1,0,0.2,0.1,0.2,0c0.1,0,0.1-0.1,0.2,0c0,0,0,0,0,0c0.1,0,0.2-0.2,0.4,0c0,0,0,0,0,0c0-0.2,0-0.1,0.1-0.1
				c0.1,0.1,0.2-0.2,0.3-0.1c0,0,0,0,0,0c0-0.1,0-0.1,0.1-0.1c0.2-0.1,0.5-0.2,0.6-0.4c0.1-0.1,0.1-0.1,0.2-0.2
				c0-0.1,0.1-0.1,0.1-0.2c0-0.1,0.1-0.1,0.2,0c0.1,0,0.2,0.1,0.4,0.1c0.1,0,0.1,0,0.1,0c0-0.1-0.1-0.2,0-0.2c0.1,0,0.2,0.1,0.4,0.1
				c0.4,0.1,0.8,0.2,1.1,0.3c0.1,0.1,0.2,0.2,0.2,0.2c0,0.2,0.1,0.3,0.2,0.4C566.5,373.9,566.5,374,566.4,374.2z"/>
			<path class="st1" d="M546.2,362.7c-0.1-0.1-0.3-0.2-0.5-0.3l0,0c-0.1,0-0.1,0-0.2,0c-0.2-0.1-0.4-0.2-0.5-0.4h0
				c-0.2,0-0.4-0.2-0.4-0.3c0-0.1-0.1-0.2-0.2-0.2c-0.1,0-0.2-0.1-0.3-0.2c-0.2-0.2-0.3-0.4-0.5-0.6c-0.3-0.2-0.4-0.6-0.6-0.9
				c-0.1-0.2-0.1-0.4-0.2-0.6c0,0,0-0.1,0-0.1c0.1-0.1,0-0.1-0.1-0.1c0-0.1,0-0.3-0.1-0.4c-0.1-0.1-0.1-0.3-0.1-0.4
				c0.1-0.1,0-0.1,0-0.2c-0.1-0.1-0.1-0.1,0-0.2c0,0,0-0.1,0-0.2l-0.1,0c0-0.1-0.2-0.1,0-0.2c0,0,0.1,0,0.1,0c0,0-0.1,0-0.1,0
				c-0.1,0,0-0.1-0.1-0.1c-0.1-0.1,0.1-0.2-0.1-0.3c0,0,0.1,0,0.1,0c0,0-0.1,0-0.1,0c0-0.4,0-0.9,0.2-1.3c0,0,0.1,0.1,0.1,0
				c0,0,0-0.1,0-0.1c0,0,0-0.1,0-0.2v-0.1c0-0.1,0-0.2,0-0.2c0.1-0.4,0.3-0.8,0.6-1.2c0.1-0.1,0.1-0.3,0.2-0.3
				c0.2,0,0.2-0.2,0.4-0.3c0.2-0.1,0.2-0.1,0.3,0c0.2,0.1,0.3,0.4,0.6,0.3c0,0,0.1,0,0.1,0c0.4,0.3,0.7,0.5,1,0.9
				c0.1,0.2,0.2,0.2,0.1,0.3c0,0,0,0.1,0,0.1c0,0.3-0.1,0.6-0.3,0.9c0,0.1,0,0.1,0,0.2c0.1,0.1,0.2,0.2,0,0.2
				c-0.2,0.1-0.2,0.2-0.2,0.3c0,0.2,0.1,0.4,0.1,0.7c0,0.1,0,0.1,0.1,0.2c0.1,0,0.1,0.1,0.1,0.1c0,0.1,0.1,0.1,0.1,0.2
				c-0.1,0.1,0.1,0.2,0.1,0.3c0,0,0.1,0,0.1,0.1c0,0.2,0.3,0.3,0.3,0.5c0.2,0.2,0.3,0.5,0.7,0.5c0,0,0.1,0,0.1,0.1
				c0.1,0.1,0.1,0.1,0.2,0.1c0.1,0,0.2,0,0.2,0.1c0,0,0,0,0.1,0c0.1,0.1,0.3-0.1,0.4,0.1c0,0,0,0,0,0c0.1-0.2,0.1-0.1,0.1,0
				c0.1,0.1,0.2-0.1,0.3,0.1c0,0,0,0,0,0c0-0.1,0.1,0,0.1,0c0.3,0,0.6,0,0.8-0.1c0.2-0.1,0.4,0,0.6-0.2c0,0,0.1,0,0.2,0.1
				c0.1,0.1,0.1,0.2,0.2,0.3c0,0.1,0.1,0.1,0.1,0c0-0.1,0-0.2,0.1-0.2c0.1,0,0.2,0.2,0.2,0.3c0.3,0.3,0.5,0.6,0.6,1
				c0,0.1,0,0.2,0,0.3c-0.2,0.1-0.1,0.2-0.1,0.4c0.1,0.1,0.1,0.3-0.1,0.3c-0.2,0-0.3,0.1-0.5,0.1c-0.1,0-0.1,0-0.1,0.1
				c0,0.2-0.1,0.4-0.3,0.4c-0.2,0-0.3,0.1-0.3,0.3c0,0.1-0.1,0.2-0.2,0.2c-0.2,0-0.5,0.1-0.7,0.1c-0.7,0-1.3,0-2-0.2
				c-0.2,0-0.3-0.1-0.4-0.2c0,0-0.1-0.1-0.1,0C546.4,362.8,546.3,362.8,546.2,362.7z"/>
			<path class="st1" d="M681.4,386.8l-1.6-2.4l-0.9-1.3l-10.7-15.7l-3.6-5.2l-1-1.4l0,0c-0.2-0.1-0.4-0.2-0.6-0.3
				c-2-1.3-4-3.1-5.6-5.6c-1-1.6-1.5-3.3-2.1-5.1c0,0,0,0,0,0c-0.1-0.4-0.3-0.8-0.4-1.2c0,0,0,0,0-0.1c0-0.1-0.1-0.2-0.1-0.3
				c-0.1-0.1-0.1-0.2-0.2-0.3c0,0,0,0,0-0.1l0,0c-1-0.9-2.2-1.6-3.5-2.1c-0.3-0.2-0.7-0.3-1-0.4c-0.2,0-0.4-0.1-0.5-0.2
				c-0.1,0-0.2,0-0.3-0.1c-0.2-0.1,0,0,0-0.1c-1.5-0.6-3-1.1-4.4-1.7c0,0,0.1,0.1,0,0c0,0,0,0-0.1,0l0.2,0.3l1.5,2.2h0l25.2,36.9
				c2.7,3.8,3.1,10.4-0.4,12.9l-61.2,46.6c-1.9,1.4-4,3-6.5,2.7c-0.4,0-0.8-0.1-1.1-0.3c-1-0.4-2.2-1.1-3.4-2.3
				c-0.6-0.6-1.2-1.2-1.8-2c-0.2-0.3-0.5-0.6-0.7-1l-1.2-1.7c0,0,0,0,0,0c-0.2,0.5-0.4,1-0.7,1.4c-0.3,0.5-0.5,0.9-0.8,1.3
				c0,0.1,0,0.1,0,0.2c0,0,0,0,0,0.1c0.1,0.1,0.3,0.2,0.5,0.3c0.2,0.1,0.3,0.1,0.5,0.2c0.4,0.1,0.7,0.3,0.5,0.5l0,0
				c0.3,0.2,0.4,0.4,0.3,0.5l-0.2,1.2l-1.9,2l1.8,2.6l1.3,1.9l0.4,0.6c2.1,2.9,3.9,4.7,5.6,5.6c0.1,0.1,0.3,0.1,0.4,0.2
				c0.3,0.1,0.5,0.2,0.8,0.3c0.5,0.2,0.9,0.3,1.4,0.3c0.3,0,0.6,0,0.9,0c0.1,0,0.3,0,0.4,0c2.1-0.3,4-1.7,5.7-3l68.7-52.3
				C684.9,398.5,684.5,391.1,681.4,386.8z M651.2,343.7C651.2,343.7,651.2,343.7,651.2,343.7c0,0,0.1,0,0.1,0
				C651.3,343.7,651.3,343.7,651.2,343.7z M644.7,343.1L644.7,343.1C644.7,343.1,644.7,343.1,644.7,343.1
				C644.7,343.1,644.7,343.1,644.7,343.1z M633.8,317l-42.4-62.1l-6.3-9.3c-0.5-0.7-1.2-1.3-2-1.8c-0.2-0.1-0.4-0.2-0.6-0.3
				c0.2,0.1,0.4,0.2,0.6,0.4c0.8,0.5,1.5,1.1,2,1.8l6.3,9.3L633.8,317l1.3,2c0,0,0,0,0,0L633.8,317z M571.4,255.3l-62.2,44.3
				c-3.5,2.5-4.1,7.6-1.3,11.4l26,37.6l2,3c0,0,0,0,0,0l-2-2.9l-26-37.6c-2.7-3.8-2.1-8.9,1.4-11.4L571.4,255.3
				c1.7-1.2,4.5-1.8,7.2-1.6C575.9,253.5,573.1,254.1,571.4,255.3z M566.2,248.4c0.3-0.1,0.6-0.3,1-0.3c-0.1,0-0.2,0-0.3,0.1
				c-0.1,0-0.2,0-0.3,0.1C566.5,248.3,566.3,248.3,566.2,248.4c-2.1,1-3,3.4-2,5.5c0.1,0.1,0.1,0.3,0.2,0.4c0.1,0.1,0.2,0.3,0.3,0.4
				c0.1,0.1,0.2,0.2,0.3,0.3c0.1,0.1,0.2,0.2,0.3,0.3c0.1,0.1,0.2,0.2,0.3,0.2c0.1,0.1,0.2,0.1,0.3,0.2c0,0,0.1,0,0.1,0
				c-0.1-0.1-0.2-0.1-0.3-0.2c-0.1-0.1-0.2-0.1-0.3-0.2c-0.5-0.4-0.9-0.9-1.2-1.5C563.3,251.9,564.2,249.4,566.2,248.4z
				 M529.8,275.3c-6.6,4.3-9.1,7.9-9.1,7.9c0.6,1,0.9,2,1.6,2.4c-0.7-0.5-1-1.4-1.6-2.4C520.7,283.2,523.2,279.6,529.8,275.3
				c6.2-4,20-15.1,24.6-14.5C549.9,260,536,271.3,529.8,275.3z M637,321.7c0,0,0,0.1,0,0.1c0.1,0.3,0.3,0.6,0.5,0.9
				c0.1,0.1,0.2,0.2,0.3,0.2c0,0,0.1,0,0.1,0c0,0,0,0,0.1,0L637,321.7z M638.1,323.2C638.1,323.2,638,323.2,638.1,323.2
				C638,323.2,638,323.2,638.1,323.2c0,0.1,0,0.2,0.1,0.2c0,0,0.1,0.1,0.1,0.1L638.1,323.2z"/>
			<path class="st1" d="M534.8,279.2c-7.2,5.2-10.2,6.8-11.8,6.6c-0.2,0-0.3,0-0.4-0.1c-0.9-0.3-1.3-1.4-1.9-2.6
				c0,0,2.5-3.6,9.1-7.9c6.2-4,20.1-15.2,24.6-14.5c0.1,0,0.2,0,0.3,0.1c0.2,0.1,0.4,0.2,0.5,0.3
				C558.4,263.9,547.6,269.9,534.8,279.2z"/>
			<path class="st1" d="M569.7,255.9c-0.7,0.3-1.4,0.4-2,0.4c-0.3,0-0.6-0.1-0.9-0.1c-1.1-0.3-2.1-1.1-2.6-2.2c-1-2.1-0.1-4.5,2-5.5
				c0.7-0.3,1.4-0.4,2.1-0.4c0.3,0,0.5,0.1,0.8,0.1c0.1,0,0.2,0.1,0.3,0.1c1,0.4,1.9,1.1,2.3,2.1
				C572.7,252.5,571.8,254.9,569.7,255.9z"/>
			<path class="st1" d="M595.3,441.4L595.3,441.4c-0.5-0.3-1.3-0.6-1.5-1C594.1,440.8,595.6,440.9,595.3,441.4z"/>
			<path class="st1" d="M671.1,395.5l-61.2,46.6c-1.9,1.4-3.9,3-6.4,2.7c-0.4,0-0.8-0.1-1.1-0.3c-1-0.4-2.2-1.1-3.4-2.3
				c-0.6-0.6-1.1-1.2-1.8-2.1c-0.2-0.3-0.5-0.6-0.7-1l-1.1-1.7l0,0c0.1-0.4,0.2-0.8,0.3-1.2c0.1-0.8-0.1-1.6-0.5-2.3
				c-0.1-0.1-0.1-0.2-0.2-0.3c0.8-3.1,1.7-6.2,2.7-9.2c0.3-0.8,0.5-1.4,0.8-2c0.1-0.2,0.2-0.5,0.2-0.7c0-0.4,0.2-0.9,0.4-1.4
				c0.4-0.9,0.8-1.9,1.2-2.8l0.1-0.3c0-0.2,0.1-0.5,0.2-0.8c0.5-1,0.8-2.1,1.3-3.1c0.2-0.9,0.5-1.8,0.8-2.6c0.1-0.4,0.3-0.8,0.3-1
				c0-0.5,0.1-1,0.2-1.4c0.1-0.6,0.1-1.2,0.1-1.8c0-0.3,0-0.6,0-0.9c0-0.3-0.1-0.6-0.2-0.9c-0.3-1.5-0.9-3-1.9-4.2
				c-0.6-0.6-1.1-1.2-1.9-1.6c-0.2-0.1-0.3-0.2-0.4-0.3c-0.3-0.2-0.5-0.2-0.6-0.1c-0.1,0-0.3-0.1-0.4-0.1c-0.2,0-0.3,0-0.5-0.1
				c-0.3-0.1-0.6,0-1,0c-0.6,0.1-1.5,0.3-1.8,0.4c-0.5,0.1-0.6,0.2-0.8,0.4c-0.3,0.2-0.4,0.3-0.7,0.4c-0.1,0-0.5,0.3-0.7,0.4
				l-0.1,0.2c-0.3,0.3-0.5,0.6-0.8,0.6c0,0,0-0.2-0.1,0c-0.2,0.2-0.1,0.2-0.1,0.2c0,0.1-0.3,0.3-0.3,0.3c-0.2,0.2-0.4,0.4-0.6,0.6
				c-0.2,0.2-0.4,0.4-0.6,0.6c0,0,0-0.2-0.2,0c-0.1,0.2,0,0.1,0,0.1c-0.8,0.9-1.5,1.9-2.2,2.8c-0.3,0.5-0.7,1-1,1.5
				c-0.4-1.3-0.8-2.5-1.5-3.7c0.4-0.5,0.8-1,1.1-1.5c0.5-0.6,1-1.2,1.5-1.8c0-0.1,0-0.1,0.1-0.2c0.3-0.8,0.6-1.7,0.9-2.5
				c0.2-0.5,0.2-0.7,0.1-0.8c-0.2-0.3-0.1-0.9,0.2-2c0.2-0.7,0.2-1.3,0.1-1.5c-0.1-0.1-0.1-0.5,0-1.1c0-0.1,0.1-0.3,0.1-0.4
				c0.2-0.9,0.2-1.8,0.2-2.6l0-1.1l0-1.1c-0.1-0.7-0.1-1.5-0.3-2c-0.2-0.6-0.4-1.1-0.6-1.4c-0.3-0.3-0.8-0.7-1.3-1
				c-0.6-0.3-1-0.5-1.5-0.8c-0.2-0.1-0.4-0.2-0.5-0.2c-0.2,0-0.6,0-0.9-0.1c-0.1,0-0.2,0-0.3-0.1c-0.8-0.2-1.6-0.2-2.5-0.2l-0.2,0
				c-0.2,0.1-0.4,0.1-0.7,0.1c-1,0.1-1.9,0.3-2.8,0.5c-0.7,0.4-1.5,0.6-2.3,0.9c-0.4,0.1-0.7,0.3-0.9,0.5c-0.3,0.3-0.8,0.5-1.1,0.8
				c-1,0.6-1.9,1.2-2.7,2c0-0.4,0-0.7-0.1-1c-0.3-1-0.8-2.1-1.4-3c0.1-0.3,0.2-0.4,0.1-0.5c-0.1-0.3,0.2-1,0.8-2
				c0.4-0.7,0.6-1.2,0.6-1.5c-0.1-0.2,0.1-0.6,0.3-1.1c0.5-0.9,0.8-1.9,1.2-2.8c0.5-1.4,0.8-2.8,0.6-4.1c0-0.6-0.2-1.3-0.4-1.8
				c-0.1-0.3-0.2-0.6-0.4-0.8c-0.1-0.3-0.3-0.5-0.5-0.8c-0.2-0.2-0.4-0.4-0.5-0.6c-0.2-0.2-0.3-0.4-0.5-0.5
				c-0.1-0.1-0.3-0.3-0.5-0.3c-0.1,0-0.3-0.1-0.5-0.2c-0.2-0.1-0.4-0.2-0.5-0.3c-0.6-0.4-1.5-0.7-2.3-0.9l-0.2-0.1
				c-0.2,0-0.5,0-0.7,0c-0.9-0.2-2-0.2-2.9-0.3c-0.8,0.2-1.7,0.2-2.6,0.3c-0.4,0-0.8,0.1-1,0.2c-0.4,0.2-0.9,0.3-1.4,0.4
				c-0.6,0.2-1.2,0.3-1.7,0.5c-0.6,0.2-1.1,0.4-1.7,0.7c-1.5,0.7-3,1.5-4.4,2.5c-0.4,0.3-0.8,0.5-1.2,0.8c-0.2,0.1-0.4,0.3-0.6,0.4
				c0,0-0.1,0-0.1,0.1c-0.4-0.6-0.8-1.2-1.2-1.7c-0.3-0.3-0.5-0.6-0.8-0.9c0.1,0,0.1-0.1,0.2-0.1c0,0,0.1,0,0.1-0.1
				c0.3-0.2,0.5-0.5,0.9-0.8c1.9-1.2,3.8-2.6,5.9-3.4c1.5-0.7,3-1.2,4.6-1.6c0.6-0.2,1.2-0.3,1.9-0.4c0-0.3,0.1-0.7,0.1-1.1
				c0-1.4-0.2-2.2-0.4-2.6c-0.2-0.4-0.3-0.5-0.4-0.6c-0.3-0.2-0.5-1-1.7-2.8c-0.6-1-1.5-1.9-2.5-2.6c-0.9-0.7-2-1.3-3.1-1.7
				c-1.3-0.5-2-0.5-2.3-0.5c-0.6,0.2-2.4-0.2-5.5,0.3c-2.1,0.3-3.5,0.9-4,1.2c-0.3,0.2-1.3,0.7-2.7,1.4c-0.4,0.2-0.7,0.4-1,0.6
				c0,0,0,0,0,0l-2-3l-26-37.6c-2.7-3.8-2.1-8.9,1.3-11.4l62.2-44.3c1.9-1.3,5.2-1.9,8.2-1.6c0.8,0.1,1.5,0.2,2.2,0.5l0.5,0.2
				c1.4,0.5,2.6,1.3,3.4,2.4l43.2,63.3l1.4,2.1c-0.3,0.3-0.5,0.7-0.8,1.1c-0.4,0.6-0.7,1.3-0.9,2c0,0.1-0.1,0.3-0.1,0.4
				c-0.2,0.6-0.3,1.3-0.2,2c0,0.8,0,1.8,0.4,2.6c0.1,0.3,0.1,0.3,0.1,0.5c0,0.3,0.1,0.5,0.3,0.6c0.3,0.6,0.5,1.1,1,1.7
				c0.1,0.1,0.2,0.2,0.3,0.4c0.1,0.1,0.2,0.3,0.4,0.4c0.2,0.3,0.5,0.5,0.6,0.6c0.3,0.4,0.5,0.4,0.7,0.5c0.3,0.2,0.5,0.2,0.7,0.5
				c0,0,0.4,0.3,0.7,0.5l0.2,0.1c0.3,0.2,0.8,0.3,0.9,0.5c0,0-0.2,0,0,0.1c0.2,0.1,0.2,0,0.3,0c0.1,0,0.4,0.2,0.4,0.2
				c0.5,0.2,1,0.5,1.5,0.7c0,0,0.1,0,0.1,0c0,0,0,0,0,0c0,0-0.1,0,0,0.1c0,0,0.1,0,0.1,0.1c0.2,0.1,0.1,0,0.1-0.1
				c0.9,0.3,1.7,0.7,2.6,1c0,0,0,0.1,0,0.1c0,0.2,0.1,0.3,0.2,0.4c0.2,0.4,0.3,0.7,0.6,1.1c0.1,0.1,0.1,0.2,0.2,0.2
				c0.1,0.1,0.2,0.2,0.2,0.3c0.2,0.2,0.3,0.3,0.4,0.4c0.2,0.2,0.3,0.3,0.4,0.4c0.2,0.1,0.3,0.2,0.4,0.3c0,0,0.3,0.2,0.5,0.3l0.1,0
				c0.2,0.1,0.5,0.2,0.6,0.3c0,0-0.1,0,0,0.1c0.2,0.1,0.1,0,0.2,0c0.1,0,0.2,0.1,0.3,0.1c0.3,0.1,0.6,0.4,1,0.4l0,0l0,0l0.2,0.3
				l1.5,2.2h0l25.2,36.9C674.3,386.4,674.6,393,671.1,395.5z"/>
		</g>
		<g>
			<path class="st5" d="M581.8,414.5l-0.4,0.6l-0.1,0c-0.2,0.1-0.6,0.2-1.5,0.1l-1.1-1.6l0,0c0,0,0,0,0,0c0,0,0,0,0.1,0
				c0.2,0,0.4,0.1,0.5,0.1c0.3,0.1,0.6,0.1,0.8,0.2c0.1,0,0.2,0,0.3,0c0.2,0,0.2,0,0.3,0c-0.2,0.1-0.3,0.3-0.3,0.5L581.8,414.5z"/>
			<path class="st5" d="M594.8,412c-0.1,0.1-0.2,0-0.3,0h0c-0.2-0.1-0.4-0.2-0.6-0.3c-0.3-0.1-0.5-0.4-0.8-0.5
				c-0.1-0.1-0.2-0.3-0.3-0.4c0,0,0-0.1,0-0.1c0-0.1,0-0.1-0.1,0c-0.1-0.1-0.1-0.2-0.2-0.3c-0.1-0.1-0.2-0.2-0.2-0.3
				c0-0.1,0-0.1-0.1-0.1c-0.1,0-0.1,0-0.1-0.1c0,0,0-0.1,0-0.1l-0.1,0c-0.1,0-0.2,0-0.1-0.2c0,0,0.1,0,0.1-0.1c0,0-0.1,0-0.1,0
				c-0.1,0-0.1,0-0.1,0c-0.2,0,0-0.2-0.1-0.2c0,0,0.1,0,0.1-0.1c0,0-0.1,0-0.1,0c-0.2-0.3-0.2-0.7-0.2-1.1c0.1,0,0.1,0,0.1,0
				c0,0,0-0.1,0-0.1c0,0,0-0.1-0.1-0.1c0-0.1-0.1-0.2-0.1-0.2c0-0.4,0-0.7,0.2-1.1c0-0.1,0-0.2,0.1-0.3c0.2-0.1,0.2-0.2,0.3-0.3
				c0.1-0.1,0.1-0.1,0.3,0c0.2,0.1,0.4,0.3,0.7,0.2c0,0,0.1,0,0.2,0c0.4,0.2,0.8,0.3,1.2,0.5c0.2,0.1,0.3,0.1,0.2,0.2c0,0,0,0,0,0.1
				c0.1,0.2,0.1,0.3,0,0.5c0,0,0,0.1,0.1,0.1c0.1,0,0.2,0,0.1,0.1c-0.1,0.1-0.1,0.2-0.1,0.2c0,0.1,0.1,0.2,0.2,0.3
				c0,0,0,0.1,0.1,0.1c0.1,0,0.1,0,0.1,0c0,0.1,0.1,0,0.1,0.1c0,0.1,0.1,0,0.1,0.1c0,0,0.1-0.1,0.1,0c0,0.2,0.2,0,0.2,0.2
				c0.1,0,0.2,0.3,0.4,0.1c0,0,0,0,0.1,0c0,0,0.1,0,0.1,0c0,0,0.1-0.1,0.1,0c0,0,0,0,0,0c0.1,0,0.1-0.2,0.2,0c0,0,0,0,0,0
				c0-0.2,0-0.1,0.1-0.1c0.1,0.1,0.1-0.2,0.2,0c0,0,0,0,0,0c0-0.1,0-0.1,0-0.1c0.1-0.1,0.3-0.1,0.4-0.2c0.1-0.1,0.2-0.1,0.2-0.2
				c0,0,0.1,0,0.2,0.1c0.1,0.1,0.2,0.1,0.3,0.2c0.1,0,0.1,0.1,0.1,0c0-0.1-0.1-0.1,0-0.1c0.1,0,0.2,0.1,0.3,0.1
				c0.4,0.2,0.7,0.3,1,0.5c0.1,0.1,0.2,0.2,0.1,0.2c0,0.1,0.1,0.2,0.2,0.3c0.1,0.1,0.2,0.2,0.1,0.3c-0.1,0.1-0.2,0.2-0.3,0.3
				c-0.1,0-0.1,0.1,0,0.2c0.1,0.2,0.1,0.3,0,0.5c-0.1,0.1-0.1,0.2,0,0.3c0.1,0.1,0.1,0.2,0,0.3c-0.2,0.1-0.3,0.2-0.5,0.3
				c-0.5,0.2-1,0.5-1.5,0.6c-0.1,0-0.2,0-0.4,0c0,0-0.1,0-0.1,0c0,0.1-0.1,0.1-0.2,0.1c-0.2-0.1-0.3,0-0.5-0.1h0
				c0,0.1-0.1,0.1-0.1,0.1c-0.2-0.1-0.4,0-0.5-0.1c-0.1,0-0.1,0.1-0.2,0.1c-0.1,0-0.2,0-0.3-0.1C594.9,412,594.8,411.9,594.8,412z"
				/>
			<path class="st5" d="M584.4,392.7c-0.1,0.1-0.2,0.2-0.4,0.2c-0.1,0-0.1,0.1-0.1,0.1c0.1,0.2,0,0.4-0.2,0.4
				c-0.1,0-0.2,0.1-0.2,0.3c0,0.1,0,0.2-0.1,0.2c-0.2,0-0.4,0.2-0.6,0.2c-0.6,0.1-1.2,0.2-1.8,0.2c-0.1,0-0.2,0-0.3-0.1
				c0,0-0.1-0.1-0.1,0c-0.1,0.1-0.2,0.1-0.3,0c-0.2-0.1-0.3-0.1-0.5-0.2l0,0c0,0-0.1,0.1-0.2,0c-0.2-0.1-0.4-0.1-0.5-0.3
				c0,0-0.1,0-0.1,0c-0.1,0-0.3-0.1-0.4-0.2c0-0.1-0.1-0.1-0.2-0.1c-0.1,0-0.2-0.1-0.3-0.1c0,0,0,0,0,0c-0.2-0.2-0.3-0.3-0.6-0.5
				c-0.3-0.2-0.4-0.5-0.6-0.7c-0.1-0.1-0.1-0.3-0.3-0.5c0,0,0-0.1,0-0.1c0-0.1,0-0.1-0.1-0.1c-0.1-0.1,0-0.2-0.1-0.4
				c-0.1-0.1-0.2-0.3-0.1-0.4c0-0.1,0-0.1-0.1-0.2c-0.1,0-0.1-0.1,0-0.1c0,0,0-0.1,0-0.1l-0.1,0c0,0-0.2-0.1,0-0.2c0,0,0.1,0,0.1,0
				c0,0-0.1,0-0.1,0c-0.1,0-0.1,0-0.1-0.1c-0.1-0.1,0-0.2-0.1-0.3c0,0,0.1,0,0.1,0c0,0-0.1,0-0.1,0c-0.1-0.4-0.1-0.8,0-1.2
				c0,0,0.1,0.1,0.1,0c0,0,0-0.1,0-0.1c0,0,0-0.1,0-0.1c0-0.1,0-0.2,0-0.3c0.1-0.4,0.2-0.8,0.4-1.1c0-0.1,0.1-0.2,0.2-0.3
				c0.2-0.1,0.2-0.2,0.3-0.3c0.2-0.1,0.1-0.1,0.3,0c0.2,0.1,0.4,0.3,0.6,0.2c0,0,0.1,0,0.2,0c0.4,0.2,0.8,0.5,1.1,0.7
				c0.2,0.1,0.2,0.2,0.2,0.3c0,0,0,0,0,0.1c0,0.2,0,0.5-0.1,0.7c0,0,0,0.1,0.1,0.1c0.1,0,0.2,0.1,0.1,0.2c-0.2,0.1-0.2,0.2-0.1,0.2
				c0,0.2,0.1,0.3,0.1,0.5c0,0,0,0.1,0.1,0.1s0.1,0.1,0.1,0.1c0,0.1,0.1,0.1,0.1,0.1c-0.1,0.1,0.1,0.1,0.1,0.2c0,0,0.1,0,0.1,0
				c0,0.2,0.3,0.2,0.2,0.4c0.2,0.1,0.2,0.4,0.5,0.3c0,0,0.1,0,0.1,0c0,0,0.1,0.1,0.2,0.1s0.1-0.1,0.2,0.1c0,0,0,0,0,0
				c0.1,0.1,0.2-0.1,0.3,0c0,0,0,0,0,0c0-0.2,0.1-0.1,0.1,0c0.1,0.1,0.2-0.1,0.3,0c0,0,0,0,0,0c0-0.1,0-0.1,0.1-0.1
				c0.2,0,0.4-0.1,0.6-0.2c0.1-0.1,0.3-0.1,0.4-0.2c0,0,0.1,0,0.2,0.1c0.1,0.1,0.2,0.2,0.2,0.3c0,0.1,0.1,0.1,0.1,0
				c0-0.1,0-0.2,0-0.2c0.1,0,0.2,0.2,0.3,0.2c0.3,0.2,0.6,0.5,0.8,0.8c0.1,0.1,0.1,0.2,0,0.3c-0.1,0.1,0,0.2,0.1,0.4
				C584.5,392.5,584.5,392.7,584.4,392.7z"/>
			<path class="st5" d="M566.4,374.2c-0.1,0.2-0.2,0.4-0.4,0.5c-0.1,0.1-0.1,0.1,0,0.2c0.2,0.2,0.2,0.4,0,0.5
				c-0.1,0.1-0.2,0.2-0.1,0.4c0.1,0.1,0,0.2-0.1,0.3c-0.2,0.1-0.4,0.3-0.6,0.5c-0.6,0.4-1.3,0.7-2,0.9c0,0,0,0,0,0
				c-0.3-0.1-0.6-0.1-0.8-0.2c-0.6-0.1-1.1,0-1.7,0l-0.2,0l-0.1,0l-0.3,0c-0.1,0-0.1-0.1-0.2-0.1c-0.1-0.1-0.2-0.1-0.2-0.1
				c-0.2,0-0.2-0.1-0.4-0.1c0,0,0,0,0,0c0,0,0.1,0,0.1,0c0,0-0.1,0-0.1,0c0,0,0,0,0,0c-0.3-0.2-0.5-0.4-0.8-0.5
				c-0.4-0.2-0.6-0.6-0.9-0.9c-0.1-0.2-0.2-0.4-0.3-0.6c0-0.1,0-0.1,0-0.2c0-0.1,0-0.1-0.2-0.1c-0.1-0.2,0-0.3-0.1-0.5
				c-0.1-0.1-0.2-0.4-0.1-0.5c0.1-0.1,0-0.2,0-0.2c-0.1-0.1-0.1-0.1,0-0.2c0,0,0-0.1,0-0.2l-0.1,0c0-0.1-0.2-0.2,0-0.2
				c0,0,0.1,0,0.1,0c0-0.1-0.1,0-0.1,0c-0.1,0,0-0.1-0.1-0.1c-0.1-0.1,0.1-0.3,0-0.4c0,0,0.1,0,0.1,0c0,0-0.1,0-0.1,0
				c0-0.5,0.1-1,0.3-1.5c0.1,0,0.1,0.1,0.1,0c0,0,0-0.1,0-0.1c0-0.1,0-0.1,0-0.2l0,0c0-0.1,0-0.2,0.1-0.3c0.2-0.5,0.5-0.9,0.9-1.2
				c0.1-0.1,0.2-0.3,0.3-0.3c0.2,0,0.3-0.1,0.5-0.2c0.2-0.1,0.2-0.1,0.3,0.1c0.1,0.2,0.2,0.5,0.5,0.5c0,0,0.1,0.1,0.1,0.1
				c0.2,0.4,0.5,0.8,0.7,1.1c0.1,0.2,0.1,0.3,0,0.3c0,0,0,0,0,0.1c-0.1,0.2-0.2,0.5-0.4,0.7c0,0,0,0.1,0,0.2c0.1,0.1,0.1,0.2,0,0.2
				c-0.2,0.1-0.2,0.2-0.2,0.3c0,0.2,0.1,0.4,0.1,0.6c0,0.1,0,0.1,0.1,0.2c0.1,0,0.1,0.1,0.1,0.1c0,0.1,0.1,0.1,0.1,0.2
				c-0.1,0.1,0.1,0.1,0.1,0.2c0,0,0.1,0,0.1,0c0,0.1,0.1,0.1,0.2,0.2c0.1,0.1,0.1,0.1,0.1,0.2c0.2,0.1,0.3,0.4,0.6,0.3
				c0,0,0.1,0,0.1,0c0.1,0,0.2,0.1,0.2,0c0.1,0,0.1-0.1,0.2,0c0,0,0,0,0,0c0.1,0,0.2-0.2,0.4,0c0,0,0,0,0,0c0-0.2,0-0.1,0.1-0.1
				c0.1,0.1,0.2-0.2,0.3-0.1c0,0,0,0,0,0c0-0.1,0-0.1,0.1-0.1c0.2-0.1,0.5-0.2,0.6-0.4c0.1-0.1,0.1-0.1,0.2-0.2
				c0-0.1,0.1-0.1,0.1-0.2c0-0.1,0.1-0.1,0.2,0c0.1,0,0.2,0.1,0.4,0.1c0.1,0,0.1,0,0.1,0c0-0.1-0.1-0.2,0-0.2c0.1,0,0.2,0.1,0.4,0.1
				c0.4,0.1,0.8,0.2,1.1,0.3c0.1,0.1,0.2,0.2,0.2,0.2c0,0.2,0.1,0.3,0.2,0.4C566.5,373.9,566.5,374,566.4,374.2z"/>
			<path class="st5" d="M546.2,362.7c-0.1-0.1-0.3-0.2-0.5-0.3l0,0c-0.1,0-0.1,0-0.2,0c-0.2-0.1-0.4-0.2-0.5-0.4h0
				c-0.2,0-0.4-0.2-0.4-0.3c0-0.1-0.1-0.2-0.2-0.2c-0.1,0-0.2-0.1-0.3-0.2c-0.2-0.2-0.3-0.4-0.5-0.6c-0.3-0.2-0.4-0.6-0.6-0.9
				c-0.1-0.2-0.1-0.4-0.2-0.6c0,0,0-0.1,0-0.1c0.1-0.1,0-0.1-0.1-0.1c0-0.1,0-0.3-0.1-0.4c-0.1-0.1-0.1-0.3-0.1-0.4
				c0.1-0.1,0-0.1,0-0.2c-0.1-0.1-0.1-0.1,0-0.2c0,0,0-0.1,0-0.2l-0.1,0c0-0.1-0.2-0.1,0-0.2c0,0,0.1,0,0.1,0c0,0-0.1,0-0.1,0
				c-0.1,0,0-0.1-0.1-0.1c-0.1-0.1,0.1-0.2-0.1-0.3c0,0,0.1,0,0.1,0c0,0-0.1,0-0.1,0c0-0.4,0-0.9,0.2-1.3c0,0,0.1,0.1,0.1,0
				c0,0,0-0.1,0-0.1c0,0,0-0.1,0-0.2v-0.1c0-0.1,0-0.2,0-0.2c0.1-0.4,0.3-0.8,0.6-1.2c0.1-0.1,0.1-0.3,0.2-0.3
				c0.2,0,0.2-0.2,0.4-0.3c0.2-0.1,0.2-0.1,0.3,0c0.2,0.1,0.3,0.4,0.6,0.3c0,0,0.1,0,0.1,0c0.4,0.3,0.7,0.5,1,0.9
				c0.1,0.2,0.2,0.2,0.1,0.3c0,0,0,0.1,0,0.1c0,0.3-0.1,0.6-0.3,0.9c0,0.1,0,0.1,0,0.2c0.1,0.1,0.2,0.2,0,0.2
				c-0.2,0.1-0.2,0.2-0.2,0.3c0,0.2,0.1,0.4,0.1,0.7c0,0.1,0,0.1,0.1,0.2c0.1,0,0.1,0.1,0.1,0.1c0,0.1,0.1,0.1,0.1,0.2
				c-0.1,0.1,0.1,0.2,0.1,0.3c0,0,0.1,0,0.1,0.1c0,0.2,0.3,0.3,0.3,0.5c0.2,0.2,0.3,0.5,0.7,0.5c0,0,0.1,0,0.1,0.1
				c0.1,0.1,0.1,0.1,0.2,0.1c0.1,0,0.2,0,0.2,0.1c0,0,0,0,0.1,0c0.1,0.1,0.3-0.1,0.4,0.1c0,0,0,0,0,0c0.1-0.2,0.1-0.1,0.1,0
				c0.1,0.1,0.2-0.1,0.3,0.1c0,0,0,0,0,0c0-0.1,0.1,0,0.1,0c0.3,0,0.6,0,0.8-0.1c0.2-0.1,0.4,0,0.6-0.2c0,0,0.1,0,0.2,0.1
				c0.1,0.1,0.1,0.2,0.2,0.3c0,0.1,0.1,0.1,0.1,0c0-0.1,0-0.2,0.1-0.2c0.1,0,0.2,0.2,0.2,0.3c0.3,0.3,0.5,0.6,0.6,1
				c0,0.1,0,0.2,0,0.3c-0.2,0.1-0.1,0.2-0.1,0.4c0.1,0.1,0.1,0.3-0.1,0.3c-0.2,0-0.3,0.1-0.5,0.1c-0.1,0-0.1,0-0.1,0.1
				c0,0.2-0.1,0.4-0.3,0.4c-0.2,0-0.3,0.1-0.3,0.3c0,0.1-0.1,0.2-0.2,0.2c-0.2,0-0.5,0.1-0.7,0.1c-0.7,0-1.3,0-2-0.2
				c-0.2,0-0.3-0.1-0.4-0.2c0,0-0.1-0.1-0.1,0C546.4,362.8,546.3,362.8,546.2,362.7z"/>
			<path class="st5" d="M671.1,395.5l-61.2,46.6c-1.9,1.4-3.9,3-6.4,2.7c-0.4,0-0.8-0.1-1.1-0.3c-1-0.4-2.2-1.1-3.4-2.3
				c-0.6-0.6-1.1-1.2-1.8-2.1c-0.2-0.3-0.5-0.6-0.7-1l-1.1-1.7l0,0c0.1-0.4,0.2-0.8,0.3-1.2c0.1-0.8-0.1-1.6-0.5-2.3
				c-0.1-0.1-0.1-0.2-0.2-0.3c0.8-3.1,1.7-6.2,2.7-9.2c0.3-0.8,0.5-1.4,0.8-2c0.1-0.2,0.2-0.5,0.2-0.7c0-0.4,0.2-0.9,0.4-1.4
				c0.4-0.9,0.8-1.9,1.2-2.8l0.1-0.3c0-0.2,0.1-0.5,0.2-0.8c0.5-1,0.8-2.1,1.3-3.1c0.2-0.9,0.5-1.8,0.8-2.6c0.1-0.4,0.3-0.8,0.3-1
				c0-0.5,0.1-1,0.2-1.4c0.1-0.6,0.1-1.2,0.1-1.8c0-0.3,0-0.6,0-0.9c0-0.3-0.1-0.6-0.2-0.9c-0.3-1.5-0.9-3-1.9-4.2
				c-0.6-0.6-1.1-1.2-1.9-1.6c-0.2-0.1-0.3-0.2-0.4-0.3c-0.3-0.2-0.5-0.2-0.6-0.1c-0.1,0-0.3-0.1-0.4-0.1c-0.2,0-0.3,0-0.5-0.1
				c-0.3-0.1-0.6,0-1,0c-0.6,0.1-1.5,0.3-1.8,0.4c-0.5,0.1-0.6,0.2-0.8,0.4c-0.3,0.2-0.4,0.3-0.7,0.4c-0.1,0-0.5,0.3-0.7,0.4
				l-0.1,0.2c-0.3,0.3-0.5,0.6-0.8,0.6c0,0,0-0.2-0.1,0c-0.2,0.2-0.1,0.2-0.1,0.2c0,0.1-0.3,0.3-0.3,0.3c-0.2,0.2-0.4,0.4-0.6,0.6
				c-0.2,0.2-0.4,0.4-0.6,0.6c0,0,0-0.2-0.2,0c-0.1,0.2,0,0.1,0,0.1c-0.8,0.9-1.5,1.9-2.2,2.8c-0.3,0.5-0.7,1-1,1.5
				c-0.4-1.3-0.8-2.5-1.5-3.7c0.4-0.5,0.8-1,1.1-1.5c0.5-0.6,1-1.2,1.5-1.8c0-0.1,0-0.1,0.1-0.2c0.3-0.8,0.6-1.7,0.9-2.5
				c0.2-0.5,0.2-0.7,0.1-0.8c-0.2-0.3-0.1-0.9,0.2-2c0.2-0.7,0.2-1.3,0.1-1.5c-0.1-0.1-0.1-0.5,0-1.1c0-0.1,0.1-0.3,0.1-0.4
				c0.2-0.9,0.2-1.8,0.2-2.6l0-1.1l0-1.1c-0.1-0.7-0.1-1.5-0.3-2c-0.2-0.6-0.4-1.1-0.6-1.4c-0.3-0.3-0.8-0.7-1.3-1
				c-0.6-0.3-1-0.5-1.5-0.8c-0.2-0.1-0.4-0.2-0.5-0.2c-0.2,0-0.6,0-0.9-0.1c-0.1,0-0.2,0-0.3-0.1c-0.8-0.2-1.6-0.2-2.5-0.2l-0.2,0
				c-0.2,0.1-0.4,0.1-0.7,0.1c-1,0.1-1.9,0.3-2.8,0.5c-0.7,0.4-1.5,0.6-2.3,0.9c-0.4,0.1-0.7,0.3-0.9,0.5c-0.3,0.3-0.8,0.5-1.1,0.8
				c-1,0.6-1.9,1.2-2.7,2c0-0.4,0-0.7-0.1-1c-0.3-1-0.8-2.1-1.4-3c0.1-0.3,0.2-0.4,0.1-0.5c-0.1-0.3,0.2-1,0.8-2
				c0.4-0.7,0.6-1.2,0.6-1.5c-0.1-0.2,0.1-0.6,0.3-1.1c0.5-0.9,0.8-1.9,1.2-2.8c0.5-1.4,0.8-2.8,0.6-4.1c0-0.6-0.2-1.3-0.4-1.8
				c-0.1-0.3-0.2-0.6-0.4-0.8c-0.1-0.3-0.3-0.5-0.5-0.8c-0.2-0.2-0.4-0.4-0.5-0.6c-0.2-0.2-0.3-0.4-0.5-0.5
				c-0.1-0.1-0.3-0.3-0.5-0.3c-0.1,0-0.3-0.1-0.5-0.2c-0.2-0.1-0.4-0.2-0.5-0.3c-0.6-0.4-1.5-0.7-2.3-0.9l-0.2-0.1
				c-0.2,0-0.5,0-0.7,0c-0.9-0.2-2-0.2-2.9-0.3c-0.8,0.2-1.7,0.2-2.6,0.3c-0.4,0-0.8,0.1-1,0.2c-0.4,0.2-0.9,0.3-1.4,0.4
				c-0.6,0.2-1.2,0.3-1.7,0.5c-0.6,0.2-1.1,0.4-1.7,0.7c-1.5,0.7-3,1.5-4.4,2.5c-0.4,0.3-0.8,0.5-1.2,0.8c-0.2,0.1-0.4,0.3-0.6,0.4
				l-1.9-2.7c0.3-0.2,0.5-0.5,0.9-0.8c1.9-1.2,3.8-2.6,5.9-3.4c1.5-0.7,3-1.2,4.6-1.6c0.6-0.2,1.2-0.3,1.9-0.4
				c0-0.3,0.1-0.7,0.1-1.1c0-1.4-0.2-2.2-0.4-2.6c-0.2-0.4-0.3-0.5-0.4-0.6c-0.3-0.2-0.5-1-1.7-2.8c-0.6-1-1.5-1.9-2.5-2.6
				c-0.9-0.7-2-1.3-3.1-1.7c-1.3-0.5-2-0.5-2.3-0.5c-0.6,0.2-2.4-0.2-5.5,0.3c-2.1,0.3-3.5,0.9-4,1.2c-0.3,0.2-1.3,0.7-2.7,1.4
				c-0.4,0.2-0.7,0.4-1,0.6c0,0,0,0,0,0l-2-3l-26-37.6c-2.7-3.8-2.1-8.9,1.3-11.4l62.2-44.3c1.9-1.3,5.2-1.9,8.2-1.6
				c0.8,0.1,1.5,0.2,2.2,0.5l0.5,0.2c1.4,0.5,2.6,1.3,3.4,2.4l43.2,63.3l1.4,2.1c-0.3,0.3-0.5,0.7-0.8,1.1c-0.4,0.6-0.7,1.3-0.9,2
				c0,0.1-0.1,0.3-0.1,0.4c-0.2,0.6-0.3,1.3-0.2,2c0,0.8,0,1.8,0.4,2.6c0.1,0.3,0.1,0.3,0.1,0.5c0,0.3,0.1,0.5,0.3,0.6
				c0.3,0.6,0.5,1.1,1,1.7c0.1,0.1,0.2,0.2,0.3,0.4c0.1,0.1,0.2,0.3,0.4,0.4c0.2,0.3,0.5,0.5,0.6,0.6c0.3,0.4,0.5,0.4,0.7,0.5
				c0.3,0.2,0.5,0.2,0.7,0.5c0,0,0.4,0.3,0.7,0.5l0.2,0.1c0.3,0.2,0.8,0.3,0.9,0.5c0,0-0.2,0,0,0.1c0.2,0.1,0.2,0,0.3,0
				c0.1,0,0.4,0.2,0.4,0.2c0.5,0.2,1,0.5,1.5,0.7c0,0,0.1,0,0.1,0c0,0,0,0,0,0c0,0-0.1,0,0,0.1c0,0,0.1,0,0.1,0.1
				c0.2,0.1,0.1,0,0.1-0.1c0.9,0.3,1.7,0.7,2.6,1c0,0,0,0.1,0,0.1c0,0.2,0.1,0.3,0.2,0.4c0.2,0.4,0.3,0.7,0.6,1.1
				c0.1,0.1,0.1,0.2,0.2,0.2c0.1,0.1,0.2,0.2,0.2,0.3c0.2,0.2,0.3,0.3,0.4,0.4c0.2,0.2,0.3,0.3,0.4,0.4c0.2,0.1,0.3,0.2,0.4,0.3
				c0,0,0.3,0.2,0.5,0.3l0.1,0c0.2,0.1,0.5,0.2,0.6,0.3c0,0-0.1,0,0,0.1c0.2,0.1,0.1,0,0.2,0c0.1,0,0.2,0.1,0.3,0.1
				c0.3,0.1,0.6,0.4,1,0.4l0,0l0,0l0.2,0.3l1.5,2.2h0l25.2,36.9C674.3,386.4,674.6,393,671.1,395.5z"/>
		</g>
	</g>
	<path class="st1" d="M622.5,428.1c13.1-10.3,34.9-30.1,34.8-32.6c-0.1-2.5-36.2,26.8-41.1,30.5S614.7,434.3,622.5,428.1z"/>
	<g id="BNuLAg_1_">
		<path class="st1" d="M627.5,368.2l-3-4.1l8-5.9l-5.9-8l4.1-3l6.4,8.9c0.6,1.9,0.3,4-0.9,5.6L627.5,368.2z"/>
		<path class="st1" d="M567.8,337.3l3,4.1l-8,5.9l5.9,8l-4.1,3l-6.4-8.9c-0.6-1.9-0.3-4,0.9-5.6L567.8,337.3z"/>
		<path class="st1" d="M613.1,322.9l-4.1,3l-5.9-8l-8,5.9l-3-4.1l8.9-6.4c1.9-0.6,4-0.3,5.6,0.9L613.1,322.9z"/>
		<path class="st1" d="M603.2,385.9l-8.9,6.5c-0.6,0.2-1.2,0.3-1.8,0.3c-1.3,0-2.5-0.3-3.6-1c0.2-0.9,0.2-1.8,0.2-2.6l0-1.1l0-1.1
			c-0.1-0.7-0.1-1.5-0.3-2c-0.2-0.6-0.4-1.1-0.6-1.4c-0.3-0.3-0.8-0.7-1.3-1c-0.6-0.3-1-0.5-1.5-0.8c-0.2-0.1-0.4-0.2-0.5-0.2
			c-0.2,0-0.6,0-0.9-0.1l2.4-1.7l5.9,8l0.6-0.5l7.4-5.4L603.2,385.9z"/>
		<path class="st1" d="M569.8,348.3l11.9-8.7l8.7,12l-11.9,8.7L569.8,348.3z M583.5,350.5l-2.9-3.9l-4,2.9l2.9,4L583.5,350.5z"/>
		<path class="st1" d="M598.7,345.7l-8.7-12l12-8.7l8.7,12L598.7,345.7z M596.9,334.7l2.9,3.9l4-2.9l-2.9-4L596.9,334.7z"/>
		<path class="st1" d="M593.3,380.5l-8.7-12l12-8.7l8.7,12L593.3,380.5z M595.5,366.8l-4,2.9l2.9,4l4-2.9L595.5,366.8z"/>
		<path class="st1" d="M614.7,359.1l-6,4.4l2.9,3.9l-4,2.9l-5.8-8l5.9-4.3l-1.4-2.2l4.2-2.8l-0.1,0L614.7,359.1L614.7,359.1z"/>
		<path class="st1" d="M603.9,357.3l-3.9,2.9l-2.8-3.9l-4,2.9l-3-4.1l7.9-5.7L603.9,357.3z"/>
		<path class="st1" d="M596.7,347.2l-3.9,2.8l-5.8-8l3.9-2.8L596.7,347.2z"/>
		<path class="st1" d="M618.9,356.1l-4.4-6.1l3.8-2.8l4.4,6L618.9,356.1L618.9,356.1z"/>
		<path class="st1" d="M607.3,348.9l-4,2.9l-2.9-4l4-2.9L607.3,348.9L607.3,348.9z"/>
		<path class="st1" d="M611.4,345.9l2.8,3.8l-3.9,3.3l0.1,0c-1-1.4-2.1-2.8-3.2-4.2l0,0.1L611.4,345.9L611.4,345.9z"/>
		<path class="st1" d="M611.5,345.9l-3-4.1l3.8-2.8l3,4.1L611.5,345.9L611.5,345.9z"/>
		<path class="st1" d="M583,366.5l-2.9-3.9l3.9-2.8l2.9,3.9L583,366.5z"/>
		<path class="st1" d="M618.8,356l2.8,3.9l-4.2,3c-1-1.4-1.9-2.6-2.9-3.9l0,0.1L618.8,356L618.8,356z"/>
	</g>
	<path class="st0" d="M569.7,255.9c-0.7,0.3-1.4,0.4-2,0.4c-0.3,0-0.6-0.1-0.9-0.1c-1.1-0.3-2.1-1.1-2.6-2.2c-1-2.1-0.1-4.5,2-5.5
		c0.7-0.3,1.4-0.4,2.1-0.4c0.3,0,0.5,0.1,0.8,0.1c0.1,0,0.2,0.1,0.3,0.1c1,0.4,1.9,1.1,2.3,2.1C572.7,252.5,571.8,254.9,569.7,255.9
		z"/>
	<path class="st0" d="M534.8,279.2c-7.2,5.2-10.2,6.8-11.8,6.6c-0.2,0-0.3,0-0.4-0.1c-0.9-0.3-1.3-1.4-1.9-2.6c0,0,2.5-3.6,9.1-7.9
		c6.2-4,20.1-15.2,24.6-14.5c0.1,0,0.2,0,0.3,0.1c0.2,0.1,0.4,0.2,0.5,0.3C558.4,263.9,547.6,269.9,534.8,279.2z"/>
</g>
<g>
	<path class="st6" d="M659.5,496.8c-0.3-0.4-0.6-0.7-0.8-0.9c-0.2-0.2-0.4-0.4-0.5-0.5c-0.2-0.3-3.4-1.4-3.6-1.5
		c0.3,0,4.3,1.5,4.4,1.5c0.1,0,0.3,0,0-0.2c-0.1-0.1-12.6-7.2-23.9-13.7c-0.3-0.2-0.7-0.4-1-0.6c-8.9-5.1-16.8-9.6-17.4-10
		c-1.9-1.2-4.3-2.1-6.3-2.6c-0.7-0.2-1.6-0.4-2.7-0.5c-1-0.1-2.2-0.1-3.1-0.2c-3.4,0-6.8,0.4-10.1,0.8c-3.3,0.4-6.5,0.8-9.8,0.9
		c-1.5,0.1-2.9,0-4.4,0.1c-0.6,0.1-1.5,0-2.3,0c-0.4,0-0.8,0-1.5,0c-1-0.1-0.1-0.1-0.1-0.1c-3.2-0.3-6.5-0.8-9.7-1.4
		c-3.2-0.7-6.4-1.5-9.5-2.6c0,0,0.4,0.2-0.2,0c-0.8-0.3-0.4-0.2-0.3-0.2c-1.4-0.4-3-1.2-4.5-1.7c-0.2-0.1-1-0.5-1.3-0.5
		c-0.1,0,0.1,0.2-0.6-0.2c-0.6-0.3-0.1-0.1-0.1-0.2c-0.4-0.4-1.6-0.8-2.6-1.3l-0.5-0.2c-0.8-0.4-2-1-2.2-1.2c-0.7-0.5-1.2-0.8-2-1.2
		c-0.3-0.1-0.6-0.3-0.9-0.5c-0.4-0.2-0.8-0.5-1.3-0.9c-1-0.7-3.3-2.3-4.8-3.5c-0.9-0.7-1.7-1.3-2.4-2c-0.7-0.7-1.4-1.3-2.2-2
		c-0.5-0.2-0.9-0.7-1.6-1.4c-0.3-0.4-0.4-0.5-1.1-1.2c-1.9-2-3.6-4-5.2-6.1c-3-3.8-5.4-7.9-7.6-12c-1.6-3.2-2.9-6.3-4-9.5
		c0,0,0,0-0.1,0c-0.1-0.1-0.2-0.4-0.3-0.7c-0.1-0.4,0.2,0.5,0.3,0.5c0,0,0.1,0.1,0.1,0.2c-0.1-0.3-0.2-0.6-0.3-0.9
		c-0.1-0.3-0.2-0.6-0.3-1c0-0.1-0.1-0.2-0.1-0.3c-0.2-0.6-0.3-1.1-0.5-1.6c-0.2-0.7-0.5-1.8-0.7-2.8c-0.4-2.4-0.9-4.9-1.3-7.3l0,0
		c0-0.3-0.1-0.7-0.1-1c0-0.3,0-0.7-0.1-1.1c0-0.7-0.1-1.4-0.2-2.2c0-0.7,0-1.4,0-2.2c0-0.7,0-1.4,0-2.1c0.1-0.7,0.1-1.5,0-2.1
		c0-0.2,0-0.5,0-0.7c0.1-0.6,0.2-1.2,0.3-1.9c0.1-0.6,0.1-1.3,0.3-1.9c0.1-0.6,0.3-1.2,0.4-1.8c0.1-0.3,0.1-0.6,0.2-0.9
		c0.1-0.3,0.2-0.6,0.3-0.9c0.2-0.6,0.4-1.3,0.5-1.9c0.2-0.6,0.4-1.2,0.5-1.6c0.1-0.5,0.4-1.1,0.6-1.7c0.7-1.3,1.3-2.9,2.3-4.7
		c2-3.8,4.5-7.4,7.3-10.8c0.7-0.8,1.4-1.7,2.1-2.5l2.2-2.5c1.2-1.2,2.3-2.5,3.5-3.6c0.4-0.4,0.8-0.7,1.1-1c0.5-0.4,0.9-0.8,1.4-1.2
		c1.5-1.3,3-2.5,4.7-3.4c0.4-0.2,0.7-0.4,1.1-0.6c1.4-0.7,2.4-1.2,2.7-1.4c0.4-0.3,1.9-0.9,4-1.2c3.1-0.4,4.9-0.1,5.5-0.3
		c0.2,0,1,0,2.3,0.5c1.1,0.4,2.2,1,3.1,1.7c1,0.7,1.8,1.6,2.5,2.6c1.2,1.8,1.4,2.6,1.7,2.8c0.1,0.1,0.2,0.2,0.4,0.6
		c0.2,0.4,0.4,1.2,0.4,2.6c0,0.4,0,0.8-0.1,1.1c-0.6,0.1-1.3,0.2-1.9,0.4c-1.6,0.4-3.1,0.9-4.6,1.6c-2.1,0.8-4,2.1-5.9,3.4
		c-0.4,0.2-0.6,0.5-0.9,0.8c0,0-0.1,0.1-0.1,0.1c-0.1,0-0.1,0.1-0.2,0.1c-0.3,0.2-0.7,0.5-1,0.8c-0.4,0.3-0.7,0.6-1.1,0.9
		c-0.6,0.4-1,1-1.6,1.5c-0.4,0.3-0.8,0.7-1.2,1.2c-0.4,0.4-0.9,0.9-1.3,1.4c-1.5,1.6-2.9,3.3-4.3,5.1c-0.7,0.9-1.4,1.8-2.1,2.5
		c-0.6,0.6-1.1,1.5-1.4,2.2c-0.3,0.6-0.5,1-0.9,1.6c-1.8,2.9-3.2,6-3.7,9.4c-0.1,0.4-0.1,0.9-0.2,1.3c-0.1,0.6-0.1,1-0.1,1.4
		c0,0.4,0.1,0.6,0.2,0.9c0.4,1,0.9,0.9,1.3,1.1c0,0,0.1-0.1,0.2-0.2c0.2-1.5,0.5-0.5,0.7-0.5c0.2,0.1,0.2,0.1,0.3-0.8
		c0.1-0.4,0.1-0.7,0.2-1.1c0.1-0.4,0.2-0.7,0.3-1c0.1-0.2,0.2-0.5,0.2-0.8c0.1-0.3,0.1-0.7,0.2-1c0.6-2.1,1.5-4.2,2.7-6.1
		c0.3-0.5,0.5-0.9,0.7-1.3c0.1-0.2,0.2-0.5,0.4-0.7c0-0.1,0.1-0.3,0.2-0.4c0.2-0.3,0.1,0,0.1,0c1.3-1.9,2.7-3.7,4.1-5.6
		c0,0-0.2,0.1,0-0.1c0.2-0.2,0.2-0.1,0.2,0c0.2-0.5,0.8-0.8,1.1-1.3c0-0.1,0.3-0.3,0.3-0.4c0,0-0.1,0,0.1-0.2c0.2-0.2,0.1,0,0.1,0
		c0.3,0,0.5-0.5,0.7-0.8l0.1-0.2c0.2-0.2,0.5-0.6,0.6-0.6c0.3-0.2,0.4-0.3,0.6-0.6c0.1-0.2,0.2-0.4,0.7-0.7c0.4-0.2,1.1-1,1.6-1.5
		c0.3-0.3,0.6-0.5,0.8-0.8c0.3-0.2,0.5-0.4,0.8-0.6c0-0.2,0.2-0.4,0.5-0.5c0.2-0.1,0.3-0.1,0.5-0.3c0.2-0.1,0.3-0.3,0.5-0.4
		c0,0,0.1,0,0.1-0.1c0.2-0.1,0.4-0.3,0.6-0.4c0.4-0.3,0.8-0.5,1.2-0.8c1.4-1,2.9-1.7,4.4-2.5c0.6-0.3,1.2-0.5,1.7-0.7
		c0.6-0.2,1.2-0.3,1.7-0.5c0,0,0,0,0-0.1c0,0,0.1-0.1,0.2-0.1c0.1,0-0.2,0.1-0.2,0.1c0,0-0.1,0-0.1,0.1c0.4-0.1,1-0.2,1.4-0.4
		c0.2-0.1,0.6-0.1,1-0.2c0.9-0.1,1.7-0.1,2.6-0.3c1,0.1,2,0.1,2.9,0.3c0.2,0.1,0.5,0,0.7,0l0.2,0.1c0.8,0.2,1.7,0.5,2.3,0.9
		c0.2,0.1,0.4,0.2,0.5,0.3c0.2,0.1,0.4,0.1,0.5,0.2c0.2,0,0.3,0.2,0.5,0.3c0.2,0.2,0.3,0.4,0.5,0.5c0.2,0.2,0.4,0.4,0.5,0.6
		c0.2,0.3,0.4,0.5,0.5,0.8c0.2,0.3,0.3,0.6,0.4,0.8c0.2,0.6,0.4,1.2,0.4,1.8c0.1,1.3-0.2,2.7-0.6,4.1c-0.3,1-0.6,1.9-1.2,2.8
		c-0.3,0.5-0.4,0.9-0.3,1.1c0.1,0.2-0.2,0.8-0.6,1.5c-0.6,1-0.9,1.7-0.8,2c0,0.1,0,0.2-0.1,0.5c0,0.1-0.1,0.2-0.2,0.3
		c-0.2,0.4-0.5,0.8-0.6,1.2c-1.7,1.3-3.1,3-4.5,4.5c-0.3,0.3-0.4,0.6-0.7,1c-0.6,0.7-1.2,1.5-1.8,2.1c-0.5,0.5-0.8,1.1-1.3,1.6
		c-0.1,0.1-0.2,0.2-0.2,0.3c-0.2,0.3-0.5,0.7-0.7,1c0,0,0,0.1-0.1,0.1c-0.3,0.4-0.7,0.9-1,1.4c-1.2,1.8-2.4,3.5-3.4,5.4
		c-0.5,0.9-1.1,1.9-1.7,2.7c-0.5,0.6-0.9,1.6-1.1,2.2c-0.2,0.6-0.4,1-0.7,1.6c-1.5,2.9-2.6,5.9-3.5,8.9c-0.1,0.4-0.2,0.8-0.4,1.1
		c-0.4,1-0.4,1.6-0.3,2.1c0.1,1,0.6,1.1,1,1.4c0,0,0.1,0,0.2-0.2c0.6-1.3,0.6-0.4,0.8-0.3c0.2,0.1,0.2,0.2,0.5-0.7
		c0.3-0.7,0.5-1.4,0.8-2c0.2-0.4,0.4-1.2,0.7-1.8c0.8-2.1,1.7-4.1,2.6-6.2c0.2-0.5,0.4-0.9,0.6-1.4c0-0.2,0.2-0.5,0.3-0.7
		c0-0.1,0.1-0.3,0.2-0.5c0.2-0.3,0.1,0,0.1,0c1.1-2,2.2-3.9,3.3-5.9c0,0-0.2,0.1,0-0.1c0.2-0.2,0.1-0.1,0.2-0.1
		c0.2-0.5,0.7-0.9,0.9-1.4c0-0.1,0.2-0.3,0.2-0.4c0-0.1-0.1,0,0-0.2c0.1-0.2,0.1,0,0.1,0c0.3-0.1,0.4-0.5,0.6-0.8l0.1-0.2
		c0.2-0.2,0.4-0.6,0.5-0.7c0.3-0.2,0.3-0.4,0.5-0.7c0.1-0.2,0.2-0.4,0.5-0.8c0.2-0.2,0.4-0.5,0.7-0.9c0.2-0.3,0.4-0.6,0.6-0.8
		c0.1-0.1,0.2-0.3,0.3-0.4c0.4-0.4,0.7-0.8,1.1-1.2c0-0.2,0.1-0.4,0.4-0.6c0.1-0.1,0.2-0.1,0.4-0.4c0.6-0.8,1.3-1.4,1.9-2.1
		c0.2-0.3,0.5-0.5,0.7-0.8c0.3,0.3,0.6,0.3,1-0.2c0.2-0.2,0.2,0.2,0.5-0.4c0.1-0.4,0.2-0.7,0.2-1c0.4-0.4,0.8-0.7,1.2-1.1
		c0,0,0.1-0.1,0.1-0.1c0.9-0.8,1.8-1.4,2.7-2c0,0,0,0,0-0.1c0,0,0.1-0.2,0.2-0.2c0.1-0.1-0.1,0.1-0.1,0.2c0,0,0,0.1,0,0.1
		c0.3-0.3,0.8-0.5,1.1-0.8c0.2-0.2,0.5-0.3,0.9-0.5c0.8-0.3,1.6-0.5,2.3-0.9c0.9-0.2,1.9-0.5,2.8-0.5c0.2,0,0.5-0.1,0.7-0.1l0.2,0
		c0.8,0,1.7,0,2.5,0.2c0.1,0,0.2,0,0.3,0.1c0.3,0.1,0.6,0.1,0.9,0.1c0.2,0,0.3,0.1,0.5,0.2c0.4,0.2,0.9,0.5,1.5,0.8
		c0.6,0.3,1,0.7,1.3,1c0.3,0.3,0.5,0.8,0.6,1.4c0.2,0.6,0.2,1.3,0.3,2l0,1.1l0,1.1c-0.1,0.9-0.1,1.7-0.2,2.6c0,0.1,0,0.3-0.1,0.4
		c-0.1,0.5-0.1,0.9,0,1.1c0.2,0.2,0.1,0.8-0.1,1.5c-0.3,1.1-0.4,1.7-0.2,2c0.1,0.1,0,0.4-0.1,0.8c-0.3,0.8-0.6,1.7-0.9,2.5
		c0,0.1,0,0.1-0.1,0.2c-0.5,0.6-1,1.2-1.5,1.8c-0.4,0.5-0.8,1-1.1,1.5c-0.3,0.5-0.7,0.9-1,1.3c-0.6,0.7-1.1,1.6-1.4,2.3
		c-0.2,0.6-0.5,1.1-0.9,1.6c-1,1.6-1.9,3.2-2.7,4.9c0,0,0,0,0,0c-0.2,0.4-0.4,0.8-0.6,1.2c-0.5,1-1,2.1-1.4,3.1
		c-0.2,0.4-0.3,0.8-0.5,1.2c-0.5,1.1-0.6,1.7-0.6,2.2c0,1.1,0.5,1.2,0.8,1.5c0,0,0.2,0,0.2-0.2c0.8-1.4,0.6-0.4,0.8-0.3
		c0.2,0.1,0.1,0.2,0.6-0.8c0.4-0.7,0.7-1.5,1.1-2.1c0.3-0.4,0.6-1.2,0.9-1.8c1.1-2.2,2.2-4.3,3.5-6.4c0.3-0.5,0.5-1,0.8-1.5
		c0.1-0.2,0.2-0.5,0.4-0.8c0-0.1,0.1-0.3,0.3-0.5c0.2-0.3,0.1,0,0.1,0c0.3-0.5,0.7-1,1-1.6c0.3-0.5,0.7-1,1-1.5c0.7-1,1.4-2,2.2-2.8
		c0,0-0.2,0.1,0-0.1c0.2-0.2,0.2-0.1,0.2,0c0.1-0.2,0.3-0.4,0.6-0.6c0.2-0.2,0.5-0.4,0.6-0.6c0-0.1,0.3-0.2,0.3-0.3
		c0,0-0.1,0,0.1-0.2c0.2-0.1,0.1,0,0.1,0c0.3,0,0.5-0.4,0.8-0.6l0.1-0.2c0.2-0.2,0.6-0.4,0.7-0.4c0.3,0,0.4-0.2,0.7-0.4
		c0.2-0.1,0.3-0.3,0.8-0.4c0.4-0.1,1.2-0.3,1.8-0.4c0.4,0,0.7,0,1,0c0.1,0,0.3,0,0.5,0.1c0.1,0,0.3,0.1,0.4,0.1
		c0.2-0.1,0.4-0.1,0.6,0.1c0.1,0.1,0.1,0.2,0.4,0.3c0.8,0.3,1.4,1,1.9,1.6c1,1.2,1.6,2.7,1.9,4.2c0.1,0.3,0.1,0.6,0.2,0.9
		c0,0.3,0,0.5,0,0.9c0,0.6-0.1,1.2-0.1,1.8c0,0,0,0,0,0c0,0,0.1,0.2,0,0.3c0,0.1,0-0.2,0-0.2c0,0,0-0.1,0-0.1c0,0.5-0.2,1-0.2,1.4
		c0,0.3-0.1,0.6-0.3,1c-0.3,0.8-0.7,1.7-0.8,2.6c-0.5,1-0.8,2.1-1.3,3.1c-0.1,0.3-0.2,0.6-0.2,0.8l-0.1,0.3
		c-0.4,0.9-0.7,1.9-1.2,2.8c-0.2,0.5-0.4,1-0.4,1.4c0,0.2-0.1,0.4-0.2,0.7c-0.3,0.6-0.5,1.2-0.8,2c-1,3-1.9,6.1-2.7,9.2
		c-0.1,0.2-0.1,0.5-0.2,0.7c-0.3,1.2-0.5,2.3-0.8,3.5c-0.2,0.6-0.2,1.1-0.1,1.2c0.1,0.2,0.1,0.6,0,1.1c0,0.2-0.1,0.4-0.1,0.6
		c-0.3,1.2-0.3,2-0.1,2.3c0.1,0.1,0.1,0.4,0,1c0,0.2,0,0.6,0,1.2c0,1.7,0,4.7,0,7.4c0.1,2.4,0.2,4.5,0.4,5c0.5,1,0.9,1.2,1.1,1.2
		c0,0,0.1,0,0.1,0c0.1,0,0.2,0,0.3,0.1c0.2,0.1,0.5,0.4,1,0.7c0.5,0.3,1,0.3,1.2,0.2c0.3-0.2,0.4-0.3,0.4-0.5c0-0.2-0.1-0.4-0.3-0.6
		c-0.1-0.2,0.2-0.2-0.2-0.5c-0.1-0.1-0.2-0.1-0.3-0.2c-0.2-0.1-0.5-0.2-0.7-0.5c-0.3-0.3-0.3-0.4-0.2-0.5c0,0,0.1-0.1,0.2-0.2
		c0-0.1,0.1-0.1,0.1-0.2c0-0.1,0.1-3.9,0.1-6.9c0-2,0-3.6,0-3.6c0-0.1-0.1-0.3-0.1-0.6c-0.1-0.4-0.1-0.9-0.1-1.4
		c0-0.5,0.1-0.9,0.2-1.5c0.1-0.8,0.3-1.6,0.5-2.5c0.1-0.3,0.1-0.6,0.2-0.9c0.6-2.9,1.3-5.7,2.1-8.6c0.1-0.3,0.2-0.6,0.2-0.9
		c0-0.1,0-0.2,0-0.2c0.5-1,0.6-2.2,1-3.2c0.2-0.4,0.5-1,0.3-1.2c0,0,0.1-0.2,0.1-0.4c0.6-1.2,0.8-2.5,1.4-3.8c0-0.1,0.1-0.4,0.2-0.5
		c0.4-0.7,0.6-1.4,0.9-2.2c0.3-0.9,0.7-1.8,1.1-2.6c0.2-0.4,0.3-0.8,0.5-1.2c0.4-1.5,0.9-3.1,1.2-4.8c0.3-1.7,0.5-3.4,0.1-5.2
		c-0.2-2.5-1.6-4.9-3.5-6.8c-0.4-0.4-0.8-0.6-1.3-0.9c-1-0.7-2.2-1.1-3.4-1.5c-0.4-0.1-0.9-0.1-1.3-0.2c-0.5,0-1,0-1.5,0.1
		c-0.6,0-1.4,0.2-2.1,0.5c-0.6,0.2-1.3,0.5-2,0.9c0.3-1.1,0.6-2.3,0.8-3.5c0-0.2,0.1-0.4,0.1-0.6c0.2-1.2,0.3-2.5,0.4-3.8
		c0-0.4,0-0.7,0-1.1l0-0.5l0-0.6c-0.1-0.7-0.1-1.5-0.3-2.3c-0.1-0.3-0.2-0.7-0.3-1c0-0.1-0.1-0.2-0.1-0.2c-0.1-0.6-0.5-1.3-1-1.9
		c-0.5-0.6-1.1-1-1.6-1.4c-0.4-0.3-1-0.7-1.3-0.7c0,0-0.3-0.1-0.4-0.2c-1.3-0.8-2.8-1-4.2-1.2c-0.2,0-0.4,0-0.5,0
		c-0.8-0.2-1.7-0.1-2.6,0c-1,0.1-2,0.2-2.9,0.4c-0.4,0.1-0.9,0.2-1.3,0.3c-1.1,0.4-2.1,0.9-3.1,1.4c0.2-0.3,0.3-0.6,0.5-0.9
		c0.7-1.3,1.3-2.7,1.8-4.2c0.5-1.5,0.8-3.1,0.7-4.7c0-0.4,0-0.8-0.1-1c0-0.1-0.1-0.2-0.1-0.2c0-1.2-0.7-2.5-1.3-3.7
		c-0.1-0.2-0.3-0.5-0.4-0.7c-0.2-0.2-0.3-0.4-0.5-0.4c0,0-0.2-0.2-0.3-0.3c-1-1.3-2.4-2-3.7-2.6c-0.2-0.1-0.4-0.1-0.5-0.2
		c-0.7-0.5-1.6-0.6-2.5-0.8c-1-0.2-2-0.3-3-0.4c-0.5,0-1,0-1.4,0c-0.4,0-0.8,0.1-1.2,0.1c0.1-0.5,0.1-0.9,0.1-1.4
		c0-0.5,0-0.9-0.1-1.3c-0.2-0.8-0.4-1.6-0.7-2.4c-0.3-0.8-0.5-1.2-0.6-1.4c-0.1-0.3-0.1-0.4-0.1-0.4c0.1-0.2,0.1-0.4-0.1-1
		c-0.3-0.6-0.9-1.9-2.8-3.5c-1.8-1.5-4-2.5-6.2-3c-1.2-0.3-2.4-0.4-3.6-0.5c-3.5-0.1-6.9,0.6-9.9,1.9c-1.1,0.5-2.2,1-3.2,1.6
		c-1.7,1-3.3,2.1-4.7,3.4c-0.8,0.7-1.6,1.4-2.4,2.1c0,0-0.1,0.1-0.1,0.1c-2.9,2.8-5.5,5.7-8.1,8.7c-0.6,0.7-1.2,1.4-1.5,1.9
		c-0.1,0.1-0.3,0.4-0.3,0.5c-1,1.1-1.9,2.3-2.7,3.7c-0.4,0.7-0.9,1.3-1.3,2c-0.4,0.7-0.8,1.3-1.2,2c-0.7,1-1.5,2.5-1.6,3.1
		c0,0.1-0.3,0.6-0.5,0.9c-1.7,3.2-2.8,6.7-3.7,10.2c-0.1,0.4-0.1,0.9-0.2,1.3c-0.1,0.5-0.3,1-0.4,1.5c-0.1,0.5-0.2,1.1-0.2,1.6
		c-0.1,1.1-0.3,2.2-0.3,3.3c-0.1,1.2-0.2,2.5-0.1,3.8l0,1.9c0,0.6,0.1,1.2,0.1,1.9c0.1,1.1,0.1,2.4,0.3,3.4
		c1.3,8.2,3.5,16.2,7.3,23.7c2.5,5.3,5.9,10.4,9.7,15c0.8,1,1.5,1.6,2.3,2.5c1.7,2,3.8,3.8,5.6,5.6c0.7,0.6,1.4,1.3,2.2,1.9
		c0.8,0.6,1.6,1.2,2.4,1.9c0.5,0.4,1.1,0.8,1.8,1.3c0.3,0.2,0.7,0.5,1,0.7c0.3,0.2,0.7,0.4,1.1,0.7c0.7,0.4,1.4,0.9,2.2,1.4
		c0.8,0.5,1.6,1,2.4,1.4c2.7,1.5,5.5,2.9,8.3,4.1c1.4,0.6,2.9,1.1,4.3,1.7c0.7,0.3,1.5,0.5,2.2,0.7c0.7,0.2,1.5,0.5,2.2,0.7
		c0.7,0.2,1.5,0.4,2.2,0.6c0.8,0.2,1.5,0.4,2.3,0.5c1.5,0.4,3,0.7,4.4,1c1.1,0.2,2.4,0.4,3.7,0.6c1.3,0.1,2.6,0.2,3.6,0.2
		c1.8,0,3.3,0.1,5.1,0.1c4.7,0.1,9.5-0.3,14-1c4.5-0.6,8.9-1.2,13.2-0.6c1.1,0.1,2.1,0.4,3.1,0.7c1.4,0.4,2.4,0.9,3.2,1.2
		c0.8,0.4,1.4,0.7,1.9,0.9c0.4,0.2,6.5,3.6,13.9,7.8c0.4,0.2,0.8,0.5,1.2,0.7c12.1,6.8,27,15.1,27.2,15.2c0.4,0.1,0.6,0,1,0.1
		C659.9,497.4,659.8,497.2,659.5,496.8z M540.9,375.5C540.9,375.5,540.9,375.5,540.9,375.5c0.2-0.3,0.3-0.3,0.3-0.3
		C541.1,375.4,541,375.5,540.9,375.5z M559.6,398.5C559.6,398.4,559.6,398.4,559.6,398.5c0.2-0.3,0.2-0.3,0.3-0.4
		C559.8,398.3,559.7,398.4,559.6,398.5z M602.1,412.9c-0.1,0.3-0.2,0.3-0.3,0.5C601.9,413.2,602,412.9,602.1,412.9
		c0-0.1,0-0.1,0-0.1C602.1,412.8,602.1,412.8,602.1,412.9z M591.8,400.2c0.2-0.2,0.3-0.2,0.4-0.2C592,400.1,591.9,400.3,591.8,400.2
		C591.8,400.3,591.8,400.3,591.8,400.2z M576.9,381.9c0.2-0.1,0.3,0,0.5-0.1C577.2,381.9,577,382,576.9,381.9
		C576.8,382,576.8,382,576.9,381.9C576.8,382,576.9,382,576.9,381.9z M561.9,363.2c0.3,0,0.3,0,0.5,0
		C562.2,363.2,562,363.2,561.9,363.2C561.8,363.2,561.8,363.2,561.9,363.2z M508.6,407.1c-0.1-0.8-0.1-1-0.1-1.6
		c0.1,0.6,0.2,1.3,0.2,1.8C508.7,407.5,508.7,407.5,508.6,407.1z M548.2,461.4c-0.7-0.3-0.8-0.5-1-0.5c0.4,0.2,0.9,0.5,1.1,0.6
		C548.3,461.5,548.2,461.5,548.2,461.4z"/>
</g>
<g>
	<path class="st7" d="M691.1,359c-1.7-6.7-3.9-12.4-6.4-17.7c-3-6.4-8.2-12.1-11.5-16.7c0-0.1,0-0.2-0.2-0.5
		c-0.4-0.5-0.8-0.8-1.2-1.2c-0.4-0.3-0.4-0.4-0.4-0.5c0.1-0.1,0.1-0.2,0.1-0.4c-0.1-0.2-0.3-0.6-0.9-1.1c-0.4-0.4-0.8-0.7-1.3-1.1
		c-0.2-0.2-0.4-0.4-0.6-0.5l-0.7-0.5c-0.7-0.5-1.9-1.3-2.6-1.8c-0.1,0-0.1-0.1-0.2-0.1c-2.5-1.5-5.4-2.7-8.5-3.3
		c-0.3-0.1-0.7-0.2-1-0.2c-0.1,0-0.2,0-0.2,0c-0.6-0.2-1.2-0.2-1.8-0.3c-0.3,0-0.6-0.1-1-0.1c-0.3,0-0.6,0-1,0
		c-0.5-0.1-1.2-0.1-1.5,0c0,0-0.3,0-0.4,0c-0.8,0-1.5,0-2.3,0.1c-0.4,0-0.8,0.1-1.2,0.2c-0.4,0.1-0.8,0.1-1.2,0.2
		c-0.2,0-0.4,0.1-0.6,0.1c-0.4,0-0.9,0.1-1.4,0.2c-0.5,0.1-0.9,0.2-1.4,0.3c-0.3,0.1-0.5,0.1-0.8,0.2l-0.8,0.2
		c-0.5,0.2-1.1,0.3-1.6,0.5c-0.2,0-0.4,0.1-0.6,0.2c-0.3,0.1-0.6,0.2-0.8,0.3c-0.2,0.1-0.4,0.2-0.5,0.2c-0.7,0.3-1.4,0.6-2,0.9
		c-0.3,0.2-0.7,0.3-1,0.5c-0.1,0-0.2,0.1-0.2,0.1c-0.3,0.2-0.7,0.3-1,0.5c-0.1,0.1-0.2,0.1-0.3,0.2c-0.9,0.5-1.7,1-2.5,1.7
		c-0.2,0.2-0.5,0.4-0.7,0.6c-0.1,0.1-0.3,0.3-0.4,0.5c-0.3,0.4-0.7,0.8-1,1.2c-0.3,0.4-0.6,0.8-0.8,1.2v0c-0.5,0.8-0.8,1.6-1,2.5
		c-0.3,1.3-0.3,2.5-0.3,3.7c0,0.2,0.1,0.5,0.1,0.7c0.1,0.2,0.1,0.4,0.2,0.6c0.2,1,0.6,1.9,1,2.8c0.1,0.2,0.1,0.3,0.2,0.5
		c0.1,0.1,0.2,0.3,0.3,0.5c0.2,0.3,0.5,0.6,0.7,0.9c0.1,0.2,0.3,0.4,0.5,0.6c0.2,0.2,0.4,0.4,0.7,0.6c0.5,0.3,1,0.8,1.5,1.2
		c1.8,1.3,3.9,2.2,6.1,3c0.9,0.3,1.9,0.7,2.7,1h0c0.1,0.1,0.2,0.1,0.4,0.2c0.7,0.3,1.8,0.7,2.5,0.8c0.6,0.2,1.1,0.3,1.7,0.6
		c0.3,0.1,0.6,0.3,0.9,0.4c2.6,1.2,5,2.6,6.8,4.5c0.2,0.3,0.5,0.5,0.7,0.8c0.1,0.1,0.1,0.1,0.1,0.2c0.9,2.6,2.4,4.8,3.8,7
		c3.2,4.9,7.4,8.7,11.4,11.1c0.2,0.1,0.4,0.2,0.6,0.3c1.9,1.1,3.8,1.9,5.5,2.4c0.7,0.2,1.4,0.4,2.1,0.4c1.2,0.1,2.3,0.1,3.2-0.3
		c1.2-0.5,1.4-2.5,0.4-3.3c-1.6-1.3-4.5-1.8-7.9-2.8c-0.7-0.2-1.5-0.4-2.2-0.7c-1.8-0.6-3.7-1.3-5.5-2.5c-0.2-0.1-0.4-0.2-0.6-0.3
		c-2-1.3-4-3.1-5.6-5.6c-1-1.6-1.5-3.3-2.1-5.1c0,0,0,0,0,0c-0.1-0.4-0.3-0.8-0.4-1.2c0,0,0,0,0-0.1c0-0.1-0.1-0.2-0.1-0.3
		c-0.1-0.1-0.1-0.2-0.2-0.3c0,0,0,0,0-0.1l0,0c-0.2-0.3-0.3-0.6-0.5-0.9c-0.2-0.4-0.8-1-1.3-1.4c0,0,0-0.1-0.1-0.1
		c-1.7-1.7-3.9-2.9-6.1-3.9c-0.5-0.2-1-0.4-1.6-0.6c-0.2,0-0.5-0.2-0.8-0.3c-0.1,0-0.3-0.1-0.5-0.2c-0.3-0.2,0-0.1,0-0.1
		c-1.4-0.5-2.8-1-4.2-1.6c-0.9-0.3-1.8-0.6-2.6-1c0,0,0.1,0.1-0.1,0.1c0,0-0.1,0-0.1-0.1c-0.1,0-0.1-0.1,0-0.1c0,0,0,0,0,0
		c0,0,0,0-0.1,0c-0.5-0.1-1-0.5-1.5-0.7c-0.1,0-0.3-0.2-0.4-0.2c0,0,0,0.1-0.3,0c-0.2-0.1,0-0.1,0-0.1c-0.1-0.2-0.5-0.3-0.9-0.5
		l-0.2-0.1c-0.3-0.2-0.7-0.4-0.7-0.5c-0.2-0.2-0.4-0.3-0.7-0.5c-0.2-0.1-0.4-0.2-0.7-0.5c-0.1-0.2-0.4-0.4-0.6-0.6
		c-0.1-0.1-0.2-0.3-0.4-0.4c-0.1-0.1-0.2-0.3-0.3-0.4c-0.5-0.5-0.7-1.1-1-1.7c-0.2-0.1-0.3-0.2-0.3-0.6c0-0.2,0-0.2-0.1-0.5
		c-0.3-0.8-0.3-1.8-0.4-2.6c0-0.7,0-1.4,0.2-2c0-0.1,0.1-0.3,0.1-0.4c0.2-0.7,0.5-1.4,0.9-2c0.2-0.4,0.5-0.8,0.8-1.1
		c0,0,0.1-0.1,0.1-0.1c0.6-0.7,1.3-1.2,2-1.7c0,0,0,0,0,0c0,0,0.1-0.2,0.2-0.2c0.1-0.1-0.2,0.1-0.2,0.2c0,0,0,0.1-0.1,0.1
		c0.4-0.3,1-0.6,1.4-0.9c0.2-0.1,0.6-0.3,1-0.5c0.1,0,0.1,0,0.1,0c0.1,0,0.1,0,0.1-0.1c0.9-0.4,1.9-0.7,2.8-1.1c0,0,0,0,0.1,0
		c0.1,0,0.2-0.1,0.3-0.1c0.2-0.1,0.4-0.1,0.6-0.2c0.3-0.1,0.6-0.2,0.9-0.3h0c0.6-0.2,1.2-0.3,1.8-0.5c0.3-0.1,0.6-0.2,0.9-0.2
		l0.3-0.1c0.5-0.1,1.4-0.3,1.9-0.4c0.4-0.1,0.8-0.1,1.2-0.1c0.5,0,1.1-0.1,1.5-0.2c0.2-0.1,0.5-0.1,0.7,0c0.3,0,0.6,0,1,0
		c0.2,0,0.4,0,0.5,0s0.4,0,0.6,0c0.3,0,0.5,0,0.8,0c-0.1,0.1,0,0.2-0.1,0.3c0,0.1-0.1,0.1-0.1,0.1c-0.1-0.1-0.2-0.1-0.3-0.1
		c-0.1,0-0.2,0-0.3,0.2c-0.2,0.4-0.6,0.8-0.8,1.1c-0.3,0.5-0.7,0.9-1.1,1.4c0,0.1-0.1,0.1-0.1,0.2c0,0,0,0.1,0,0.1
		c-0.2,0.1-0.3,0.3-0.5,0.5c-0.1,0-0.2,0.1-0.1,0.2c0,0,0,0,0,0c-0.3,0.1-0.4,0.4-0.6,0.5c0,0,0,0.1-0.1,0.1c-0.2,0-0.2,0.2-0.4,0.3
		c-0.1,0.1-0.3,0.2-0.4,0.3c-0.1,0-0.2,0.1-0.2,0.1c-0.4,0.4-1,0.6-1.5,0.8c-0.4,0-0.7,0.3-1.1,0.3c-0.1,0-0.1,0.1-0.2,0.1
		c0,0,0,0,0,0c-0.2,0-0.3,0.1-0.5,0c-0.1-0.1-0.2,0.1-0.3,0c-0.1,0-0.2,0-0.3,0c-0.1,0-0.2,0-0.3,0c-0.1,0-0.3-0.1-0.4-0.1
		c-0.1,0-0.3-0.1-0.4-0.2c-0.1-0.1-0.3-0.2-0.3-0.3c0-0.2-0.1-0.2-0.3-0.2c-0.1,0-0.2,0-0.2-0.1c-0.2-0.4-0.4-0.7-0.5-1.1
		c0,0,0-0.1,0-0.1c0-0.1-0.1-0.2-0.2-0.2c-0.3-0.1-0.7-0.1-1.1-0.1c0,0-0.1,0-0.1,0.1c-0.2,0.3-0.4,0.2-0.6,0.2
		c-0.2,0-0.2,0-0.3,0.2c-0.1,0.2-0.1,0.4-0.2,0.6c0,0.1,0,0.3,0,0.5c0,0.2,0,0.3,0.1,0.5c0.1,0.4,0.3,0.7,0.5,1
		c0.1,0.1,0.2,0.2,0.3,0.2c0.1,0,0.1,0.1,0.2,0.1c0,0,0.1,0,0.1,0.1c0,0,0,0.1,0,0.1c0,0-0.1,0-0.1,0c0.1,0.1,0.2,0.2,0.3,0.3
		c0.3,0.3,0.7,0.5,1.1,0.6c0,0,0-0.1,0.1,0c0.1,0,0,0,0,0.1c0.2,0,0.2,0.2,0.4,0.1c0,0,0.1,0,0.1,0c0,0,0-0.1,0.1-0.1
		c0,0,0,0.1,0,0.1c0,0.2,0.1,0.1,0.3,0.1l0.1-0.1c0,0-0.1,0-0.1-0.1c0,0,0,0,0,0c0.1,0,0.1,0,0.1,0.1c0.1,0,0.2,0,0.2,0.1
		c0.1,0.1,0.1,0,0.2,0c0.1,0,0.2,0,0.3,0c0.1,0.1,0.4,0.1,0.6,0.1c0.2,0,0.4,0,0.6,0c0.1-0.1,0.1-0.1,0.2-0.1c0,0,0.1,0.1,0.2,0
		c0.1,0,0.2,0,0.3,0c0.2,0,0.3,0,0.5,0c0.4-0.1,0.7-0.2,1-0.3c0.1,0,0.2-0.1,0.4-0.1c0.3-0.2,0.6-0.3,1-0.4c0.1-0.1,0.3-0.1,0.3-0.2
		c0.1-0.1,0.2-0.1,0.3-0.1c0.2-0.1,0.5-0.2,0.7-0.4c0.3-0.1,0.5-0.3,0.8-0.5c0.1,0,0.1-0.1,0.1-0.2l0.1,0c0.2-0.1,0.4-0.3,0.6-0.4
		c0.1-0.1,0.2-0.2,0.2-0.3c0,0,0.1-0.1,0.1-0.1c0.2-0.1,0.3-0.2,0.4-0.3c0.6-0.6,1.1-1.2,1.6-1.8c0.2-0.2,0.3-0.5,0.5-0.6
		c0.1-0.1,0.1-0.2,0-0.3c-0.1-0.1,0-0.2,0.1-0.4c0.2-0.2,0.2-0.4,0.1-0.5c-0.1,0-0.1-0.1,0-0.2c0.2-0.1,0.3-0.3,0.4-0.5
		c0.1-0.2,0.1-0.3,0-0.3c-0.1-0.1-0.2-0.1-0.1-0.3c0.1-0.1,0-0.2,0-0.2c-0.1-0.1-0.2-0.1-0.3-0.2c2.8,0.2,5.5,0.8,7.9,1.9
		c1,0.4,2,0.8,2.9,1.4c0.5,0.3,0.9,0.5,1,0.4c0.2,0,0.8,0.2,1.4,0.7c0.9,0.7,1.5,1,1.8,1c0.1,0,0.4,0.1,0.7,0.5
		c0.3,0.3,0.6,0.6,1,0.9c0.3,0.3,0.6,0.7,1,1c0.5,0.6,0.8,0.7,1,0.7c0.1,0,8.5,7.9,13.2,18.5c2.3,5.2,4.9,11.4,6.1,16.2
		c1.2,4.8-0.4,7,0.2,11.4c0.2,1.7,0.4,3.5,0.4,5.4c0.3-1.1,0.7-2.1,1-3c0.4-1.2,0.8-2.2,1.2-3.3C692.5,366,692,362.6,691.1,359z
		 M637.1,318.1C637.1,318.1,637.1,318.1,637.1,318.1C637.1,318,637.2,318,637.1,318.1c0.2-0.1,0.4-0.2,0.5-0.2
		C637.4,318,637.3,318,637.1,318.1z"/>
</g>
<path class="st5" d="M591.4,254.9C591.4,254.9,591.4,254.9,591.4,254.9l-6.4-9.3c-0.5-0.7-1.2-1.3-2-1.8c0,0,0,0,0,0
	c0.8,0.5,1.5,1.1,2,1.8L591.4,254.9z"/>
<g>
	<path class="st0" d="M251.6,472.8l15.7,101l-4.6-2.8c20.6-6,41-12.7,61.3-19.7c10.1-3.5,20.3-7.1,30.4-10.6l30.3-10.7
		c20.2-7.2,40.4-14.5,60.6-21.8l15.1-5.5l15.1-5.6c10.1-3.7,20.1-7.4,30.2-11.2c1.8-0.7,3.8,0.2,4.5,2c0.7,1.8-0.2,3.8-2,4.5
		c-0.1,0-0.1,0-0.2,0.1c-10.2,3.3-20.4,6.7-30.6,10.1l-15.3,5.1l-15.2,5.2c-20.3,6.9-40.6,13.7-60.9,20.7l-30.4,10.5
		c-10.1,3.5-20.3,7-30.4,10.6c-20.2,7.2-40.3,14.6-60.2,22.8c-1.7,0.7-3.7-0.1-4.4-1.8c-0.1-0.3-0.2-0.6-0.2-0.8l0-0.2l-13.1-101.4
		c-0.2-1.2,0.7-2.3,1.9-2.4C250.4,470.8,251.5,471.7,251.6,472.8z"/>
</g>
<path class="st0" d="M566.4,374.2c0.1-0.1,0-0.3-0.1-0.3c-0.2-0.1-0.3-0.2-0.2-0.4c0-0.1-0.1-0.2-0.2-0.2c-0.3-0.2-0.7-0.3-1.1-0.3
	c-0.1,0-0.3-0.1-0.4-0.1c-0.1,0,0,0.1,0,0.2c0,0.1,0,0.1-0.1,0c-0.1,0-0.2-0.1-0.4-0.1c-0.1-0.1-0.2-0.1-0.2,0
	c0,0.1-0.1,0.1-0.1,0.2c-0.1,0-0.1,0.1-0.2,0.2c-0.1,0.2-0.4,0.3-0.6,0.4c0,0-0.1,0-0.1,0.1c0,0,0,0,0,0c-0.2-0.1-0.2,0.1-0.3,0.1
	c0,0-0.1-0.1-0.1,0.1c0,0,0,0,0,0c-0.2-0.1-0.2,0.1-0.4,0c0,0,0,0.1,0,0c-0.1-0.1-0.1,0-0.2,0c-0.1,0-0.2,0-0.2,0c0,0-0.1,0-0.1,0
	c-0.3,0.1-0.5-0.2-0.6-0.3c0-0.1-0.1-0.1-0.1-0.2c-0.1,0-0.1-0.1-0.2-0.2c0,0-0.1,0-0.1,0c0-0.1-0.2-0.1-0.1-0.2
	c0.1-0.1-0.1-0.1-0.1-0.2c0,0,0-0.1-0.1-0.1c-0.1,0,0-0.1-0.1-0.2c0-0.2-0.1-0.4-0.1-0.6c0-0.1,0-0.2,0.2-0.3c0.1,0,0.1-0.1,0-0.2
	c-0.1-0.1-0.1-0.1,0-0.2c0.2-0.2,0.3-0.5,0.4-0.7c0,0,0-0.1,0-0.1c0.1,0,0.1-0.1,0-0.3c-0.2-0.4-0.4-0.8-0.7-1.1
	c0,0-0.1-0.1-0.1-0.1c-0.3,0-0.4-0.3-0.5-0.5c-0.1-0.2-0.1-0.2-0.3-0.1c-0.2,0-0.3,0.2-0.5,0.2c-0.1,0-0.2,0.2-0.3,0.3
	c-0.4,0.4-0.7,0.8-0.9,1.2c-0.1,0.1-0.1,0.2-0.1,0.3l0,0c0,0.1,0,0.1,0,0.2c0,0,0,0.1,0,0.1c-0.1,0.1-0.1,0-0.1,0
	c-0.2,0.5-0.3,1-0.3,1.5c0,0,0.1,0,0.1,0c0,0.1-0.1,0-0.1,0c0.1,0.1-0.1,0.3,0,0.4c0,0,0,0.1,0.1,0.1c0,0,0.1,0,0.1,0
	c0,0-0.1,0-0.1,0c-0.2,0.1,0,0.2,0,0.2l0.1,0c0,0.1,0,0.2,0,0.2c-0.1,0.1,0,0.1,0,0.2c0,0.1,0.1,0.1,0,0.2c-0.1,0.1,0,0.3,0.1,0.5
	c0.1,0.2,0.1,0.3,0.1,0.5c0.2,0,0.2,0,0.2,0.1c0,0.1-0.1,0.1,0,0.2c0.1,0.2,0.2,0.4,0.3,0.6c0.3,0.3,0.5,0.7,0.9,0.9
	c0.3,0.2,0.5,0.3,0.8,0.5c0,0,0,0,0,0c0,0,0.1-0.1,0.1,0c0,0-0.1,0-0.1,0c0,0,0,0,0,0c0.1,0,0.2,0.1,0.4,0.1c0.1,0,0.2,0,0.2,0.1
	c0,0,0.1,0.1,0.2,0.1c0.1,0.1,0.3,0.1,0.5,0h0c0.2,0.2,0.5,0.1,0.8,0.2c0.1,0,0.1,0,0.2-0.1h0.1c0.2,0,0.4,0,0.7,0.1
	c0.1,0,0.2,0,0.3-0.1c0-0.1,0.1-0.1,0.1,0c0.1,0.1,0.3,0.1,0.4,0c0,0,0,0,0,0c0.7-0.2,1.4-0.5,2-0.9c0.2-0.1,0.4-0.3,0.6-0.5
	c0.1-0.1,0.1-0.2,0.1-0.3c-0.1-0.2,0-0.3,0.1-0.4c0.2-0.2,0.2-0.4,0-0.5c-0.1-0.1-0.1-0.1,0-0.2
	C566.3,374.5,566.3,374.3,566.4,374.2z M556.9,373c0,0,0-0.1,0-0.1C556.9,372.9,556.9,372.9,556.9,373
	C556.9,373,556.9,373,556.9,373z M560.5,377.2C560.5,377.2,560.4,377.2,560.5,377.2C560.4,377.2,560.4,377.2,560.5,377.2
	C560.5,377.2,560.5,377.2,560.5,377.2c0.1,0,0.1,0,0.1,0.1C560.5,377.3,560.5,377.3,560.5,377.2z"/>
<path class="st0" d="M551.2,361c-0.1-0.4-0.3-0.7-0.6-1c-0.1-0.1-0.1-0.3-0.2-0.3c-0.1,0-0.1,0.1-0.1,0.2c0,0.1-0.1,0-0.1,0
	c-0.1-0.1-0.1-0.2-0.2-0.3c-0.1-0.1-0.1-0.2-0.2-0.1c-0.2,0.1-0.4,0.1-0.6,0.2c-0.3,0.1-0.5,0.1-0.8,0.1c0,0-0.1,0-0.1,0
	c0,0,0,0,0,0c-0.1-0.2-0.2,0-0.3-0.1c0,0-0.1-0.1-0.1,0c0,0,0,0,0,0c-0.1-0.2-0.3,0-0.4-0.1c0,0-0.1,0-0.1,0c0-0.2-0.1-0.1-0.2-0.1
	c-0.1,0-0.2-0.1-0.2-0.1c0,0-0.1-0.1-0.1-0.1c-0.4,0-0.5-0.3-0.7-0.5c0-0.2-0.3-0.3-0.3-0.5c0,0-0.1,0-0.1-0.1
	c0-0.1-0.1-0.1-0.1-0.3c0.1-0.1-0.1-0.1-0.1-0.2c0,0,0-0.1-0.1-0.1c-0.1,0-0.1-0.1-0.1-0.2c0-0.2-0.1-0.4-0.1-0.7
	c0-0.1,0-0.2,0.2-0.3c0.1-0.1,0.1-0.2,0-0.2c-0.1-0.1-0.1-0.1,0-0.2c0.1-0.3,0.2-0.6,0.3-0.9c0,0,0-0.1,0-0.1c0.1-0.1,0-0.2-0.1-0.3
	c-0.3-0.3-0.7-0.6-1-0.9c0,0-0.1-0.1-0.1,0c-0.3,0.1-0.4-0.2-0.6-0.3c-0.2-0.1-0.1-0.1-0.3,0c-0.1,0.1-0.2,0.2-0.4,0.3
	c-0.1,0-0.2,0.2-0.2,0.3c-0.2,0.4-0.4,0.8-0.6,1.2c0,0.1,0,0.1,0,0.2v0.1c0,0,0,0.1,0,0.2c0,0,0,0.1,0,0.1c-0.1,0.1-0.1,0-0.1,0
	c-0.1,0.4-0.2,0.9-0.2,1.3c0,0,0.1,0,0.1,0c0,0.1-0.1,0-0.1,0c0.1,0.1-0.1,0.2,0.1,0.3c0,0,0,0.1,0.1,0.1c0,0,0.1,0,0.1,0
	c0,0-0.1,0-0.1,0c-0.2,0.1,0,0.1,0,0.2l0.1,0c0,0.1,0,0.1,0,0.2c-0.1,0.1,0,0.1,0,0.2c0,0,0.1,0.1,0,0.2c-0.1,0.1,0,0.3,0.1,0.4
	c0.1,0.1,0,0.3,0.1,0.4c0.2,0,0.2,0,0.1,0.1c0,0-0.1,0.1,0,0.1c0.1,0.2,0.1,0.4,0.2,0.6c0.2,0.3,0.3,0.7,0.6,0.9
	c0.2,0.2,0.4,0.4,0.5,0.6c0,0,0,0,0,0c0,0,0.1,0,0.1,0c0,0-0.1,0-0.1,0c0,0,0,0,0,0c0.1,0,0.1,0.2,0.3,0.2c0.1,0,0.1,0.1,0.2,0.2
	c0.1,0.2,0.2,0.3,0.4,0.3h0c0.1,0.2,0.4,0.2,0.5,0.4c0,0,0.1,0,0.2,0l0,0c0.2,0.1,0.4,0.2,0.5,0.3c0.1,0.1,0.2,0.1,0.3,0
	c0.1,0,0.1,0,0.1,0c0.1,0.1,0.2,0.2,0.4,0.2c0.6,0.2,1.3,0.2,2,0.2c0.2,0,0.5-0.1,0.7-0.1c0.1,0,0.2-0.1,0.2-0.2
	c0-0.2,0.1-0.3,0.3-0.3c0.2,0,0.3-0.2,0.3-0.4c0-0.1,0-0.2,0.1-0.1c0.2,0,0.3-0.1,0.5-0.1c0.2,0,0.2-0.2,0.1-0.3
	c0-0.2-0.1-0.3,0.1-0.4C551.3,361.2,551.3,361.1,551.2,361z M542.3,357.7C542.3,357.7,542.3,357.6,542.3,357.7
	C542.3,357.6,542.3,357.6,542.3,357.7C542.4,357.7,542.3,357.7,542.3,357.7z M544.8,361.9C544.8,361.9,544.8,361.9,544.8,361.9
	c0.1,0,0.1,0.1,0.1,0.1C544.8,362,544.8,361.9,544.8,361.9z"/>
<path class="st0" d="M584.4,392.4c-0.1-0.2-0.2-0.3-0.1-0.4c0-0.1,0-0.2,0-0.3c-0.2-0.3-0.5-0.6-0.8-0.8c-0.1-0.1-0.2-0.2-0.3-0.2
	c-0.1,0,0,0.1,0,0.2c0,0.1,0,0-0.1,0c-0.1-0.1-0.2-0.2-0.2-0.3c-0.1-0.1-0.2-0.2-0.2-0.1c-0.1,0.1-0.3,0.1-0.4,0.2
	c-0.2,0.1-0.4,0.1-0.6,0.2c0,0,0,0-0.1,0.1c0,0,0,0,0,0c-0.1-0.2-0.2,0.1-0.3,0c0,0-0.1-0.1-0.1,0c0,0,0,0,0,0c-0.1-0.2-0.2,0-0.3,0
	c0,0,0,0,0,0c0-0.1-0.1-0.1-0.2-0.1s-0.1,0-0.2-0.1c0,0,0,0-0.1,0c-0.3,0.1-0.4-0.2-0.5-0.3c0-0.2-0.2-0.2-0.2-0.4c0,0-0.1,0-0.1,0
	c0-0.1-0.1-0.1-0.1-0.2c0.1-0.1-0.1-0.1-0.1-0.1c0,0,0-0.1-0.1-0.1s-0.1-0.1-0.1-0.1c0-0.2-0.1-0.3-0.1-0.5c0-0.1,0-0.2,0.1-0.2
	c0.1-0.1,0-0.1-0.1-0.2c-0.1,0-0.1-0.1-0.1-0.1c0.1-0.2,0.1-0.5,0.1-0.7c0,0,0-0.1,0-0.1c0.1-0.1,0-0.1-0.2-0.3
	c-0.3-0.3-0.7-0.5-1.1-0.7c0,0-0.1-0.1-0.2,0c-0.3,0.1-0.4-0.1-0.6-0.2c-0.2-0.1-0.2-0.1-0.3,0c-0.1,0.1-0.2,0.2-0.3,0.3
	c-0.1,0-0.1,0.2-0.2,0.3c-0.2,0.3-0.3,0.7-0.4,1.1c0,0.1,0,0.2,0,0.3c0,0,0,0.1,0,0.1c0,0,0.1,0.1,0,0.1c0,0.1-0.1,0-0.1,0
	c-0.1,0.4-0.1,0.8,0,1.2c0,0,0.1,0,0.1,0c0,0-0.1,0-0.1,0c0.1,0.1,0,0.2,0.1,0.3c0,0,0,0.1,0.1,0.1c0,0,0.1,0,0.1,0c0,0-0.1,0-0.1,0
	c-0.2,0.1,0,0.1,0,0.2l0.1,0c0,0,0,0.1,0,0.1c-0.1,0.1,0,0.1,0,0.1c0,0,0.1,0,0.1,0.2c0,0.1,0,0.3,0.1,0.4c0.1,0.1,0.1,0.2,0.1,0.4
	c0.1,0,0.2,0,0.1,0.1c0,0-0.1,0.1,0,0.1c0.1,0.1,0.1,0.3,0.3,0.5c0.2,0.2,0.4,0.6,0.6,0.7c0.2,0.1,0.4,0.3,0.6,0.5c0,0,0,0,0,0
	c0,0,0.1,0,0.1,0c0,0-0.1,0-0.1,0.1c0,0,0,0,0,0c0,0,0,0,0,0c0.1,0,0.2,0.1,0.3,0.1c0.1,0,0.1,0,0.2,0.1c0.1,0.1,0.2,0.2,0.4,0.2
	c0,0,0.1,0,0.1,0c0.1,0.2,0.4,0.2,0.5,0.3c0,0,0.1,0,0.2,0l0,0c0.2,0.1,0.3,0.1,0.5,0.2c0.1,0.1,0.2,0.1,0.3,0c0,0,0.1,0,0.1,0
	c0.1,0.1,0.2,0.1,0.3,0.1c0.6,0,1.2-0.1,1.8-0.2c0.2,0,0.4-0.2,0.6-0.2c0.1,0,0.2-0.1,0.1-0.2c0-0.2,0-0.3,0.2-0.3
	c0.2-0.1,0.3-0.2,0.2-0.4c0-0.1,0-0.1,0.1-0.1c0.2,0,0.3-0.1,0.4-0.2C584.5,392.7,584.5,392.5,584.4,392.4z M576.1,390.4
	C576.1,390.3,576.1,390.3,576.1,390.4C576.2,390.3,576.2,390.3,576.1,390.4C576.2,390.3,576.2,390.3,576.1,390.4z M578.9,393.7
	C578.9,393.7,578.9,393.7,578.9,393.7c0.1,0,0.1,0.1,0.1,0.1C579,393.8,579,393.8,578.9,393.7z"/>
<path class="st0" d="M599.6,409.5c-0.1-0.1-0.2-0.2-0.2-0.3c0-0.1,0-0.2-0.1-0.2c-0.3-0.2-0.7-0.4-1-0.5c-0.1,0-0.3-0.1-0.3-0.1
	c-0.1,0,0,0.1,0,0.1c0,0,0,0-0.1,0c-0.1-0.1-0.2-0.1-0.3-0.2c-0.1-0.1-0.2-0.1-0.2-0.1c0,0.1-0.1,0.1-0.2,0.2
	c-0.1,0.1-0.2,0.2-0.4,0.2c0,0,0,0,0,0.1c0,0,0,0,0,0c-0.1-0.2-0.1,0.1-0.2,0c0,0-0.1-0.1-0.1,0.1c0,0,0,0,0,0
	c-0.1-0.2-0.1,0.1-0.2,0c0,0,0,0,0,0c0-0.1-0.1,0-0.1,0c-0.1,0-0.1,0-0.1,0c0,0,0,0-0.1,0c-0.2,0.2-0.3-0.1-0.4-0.1
	c0-0.2-0.2-0.1-0.2-0.2c0,0-0.1,0.1-0.1,0c0-0.1-0.1,0-0.1-0.1c0-0.1-0.1,0-0.1-0.1c0,0,0-0.1-0.1,0c-0.1,0-0.1,0-0.1-0.1
	c0-0.1-0.1-0.2-0.2-0.3c0-0.1,0-0.1,0.1-0.2c0.1-0.1,0-0.1-0.1-0.1c-0.1,0-0.1,0-0.1-0.1c0.1-0.2,0-0.3,0-0.5c0,0,0,0,0-0.1
	c0,0-0.1-0.1-0.2-0.2c-0.4-0.2-0.8-0.3-1.2-0.5c-0.1,0-0.1,0-0.2,0c-0.2,0.1-0.5-0.1-0.7-0.2c-0.2-0.1-0.2-0.1-0.3,0
	c-0.1,0.1-0.1,0.2-0.3,0.3c-0.1,0.1-0.1,0.2-0.1,0.3c-0.1,0.3-0.2,0.7-0.2,1.1c0,0.1,0,0.2,0.1,0.2c0,0,0,0.1,0.1,0.1
	c0,0,0.1,0,0,0.1c0,0.1-0.1,0-0.1,0c0,0.4,0.1,0.7,0.2,1.1c0,0,0.1-0.1,0.1,0c0,0,0,0-0.1,0.1c0.1,0,0,0.2,0.1,0.2c0,0,0,0.1,0.1,0
	c0,0,0.1-0.1,0.1,0c0,0-0.1,0-0.1,0.1c-0.1,0.1,0,0.1,0.1,0.2l0.1,0c0,0,0,0,0-0.1c0,0,0,0,0,0c0,0,0,0.1,0,0.1c0,0,0.1,0.1,0,0.1
	c-0.1,0.1,0,0.1,0.1,0.1c0,0,0.1,0,0.1,0.1c0,0.1,0.1,0.2,0.2,0.3c0.1,0.1,0.1,0.2,0.2,0.3c0.1-0.1,0.2-0.1,0.1,0c0,0,0,0.1,0,0.1
	c0.1,0.1,0.2,0.3,0.3,0.4c0.3,0.2,0.5,0.4,0.8,0.5c0.2,0.1,0.4,0.2,0.6,0.3c0,0,0,0,0,0c0,0,0.1-0.1,0.1,0c0,0,0,0-0.1,0.1
	c0,0,0,0,0,0c0.1,0,0.2,0.1,0.3,0c0.1,0,0.1,0,0.2,0.1c0.1,0.1,0.2,0.1,0.3,0.1c0.1,0,0.1,0,0.2-0.1c0.2,0.1,0.4,0.1,0.5,0.1
	c0.1,0,0.1,0,0.1-0.1h0c0.2,0,0.3,0,0.5,0.1c0.1,0,0.2,0,0.2-0.1c0-0.1,0.1,0,0.1,0c0.1,0.1,0.2,0.1,0.4,0c0.5-0.1,1-0.4,1.5-0.6
	c0.2-0.1,0.3-0.2,0.5-0.3c0.1,0,0.1-0.2,0-0.3c-0.1-0.2-0.1-0.3,0-0.3c0.1-0.1,0.2-0.3,0-0.5c-0.1-0.1-0.1-0.1,0-0.2
	c0.2,0,0.2-0.2,0.3-0.3C599.8,409.7,599.7,409.5,599.6,409.5z M595.3,412C595.3,412,595.3,412,595.3,412c0.1,0,0.1,0,0.1,0.1
	C595.4,412.1,595.3,412.1,595.3,412z"/>
<path class="st8" d="M733.7,519.9C732,532,741,543,751,545c32,4,58,19,75,45c6,6,12,11,20,11c4.5,0.5,9.1,1,13.6,1.7s9,1.5,13.4,2.6
	c6,0.8,12,3.8,17,6.8c32,25,60,50,99.8,55.2c3.9,1.3,7.8,2.7,11.7,4.3c2.9,0.9,5.7,1.8,8.6,2.6c8.7,2.4,17.4,4.4,25.9,6.9
	c4,2,9,5,12,8c10,12,18,25,33.1,30.4c3.1,1.7,6.2,3.4,9.3,5.1c3.1,1.7,6.2,3.5,9.3,5.3"/>
<path class="st8" d="M743.7,473.1c1.3,3.6,4.3,7.6,7.3,9.6c24,15,56,9,74.5,29.6c2.8,2.4,5.5,4.4,8.5,5.4c31,12,59,25,85,45
	c16,12,28,24,45,33c40,20,82,32,117,63c13,12,30,18,46.7,22"/>
<path class="st8" d="M760.8,419.8C785,424,805,436,822.4,454c5.2,3.7,10.5,6.9,16.1,9.7c22.2,11.1,46.9,16.2,68.8,28.5
	c5,2.8,9.8,5.8,14.7,8.9c25,17.9,54,32.9,86,34.9c2,0,5,2,6.6,3.2c3.9,4.1,7.8,8.1,11.8,12.1c11.8,11.8,23.9,22.5,39.2,28.6
	c12.3,5.4,25.4,8.8,37.7,13.2c19.4,9.1,34.1,23.4,54.8,30.7"/>
<path class="st0" d="M1137.2,172.7c1.9-1.1,4.1-2.4,6.4-4.4c2-1.7,4.2-4.6,5.3-7.8c1.2-3.2,1.5-6.4,1.4-9c-0.3-5.4-1.7-9.1-2.6-11.3
	c-2.2-5-3.1-7.3-4.2-9.8c-0.9-1.8-1.5-3.1-2.3-4.4c-0.8-1.2-1.7-2.3-2.9-3.4c-0.4-0.3-1.4-1.5-2.5-2.9c-1.2-1.4-2.7-3-3.9-4.1
	l-1.3-1.7c-2.9-3-6.6-6.4-8.9-6.7c-0.4-0.1,1.1,1.4-1,0.1c-2.6-1.6-1.6-1.4-1.8-1.8c-0.4-0.7-3.6-2.2-4.3-2.7
	c-5-3.3-11.9-4.5-17-6.4c0.2,0.3,1.3,0.9-1.6,0.2c-2.3-0.5-0.5-0.4-0.4-0.6c-11.5-2.6-23.7-2.6-35.3,0.6c-2.9,0.8-5.8,1.8-8.5,3
	c-0.7,0.3-0.9,0.5-1.4,0.8c-0.4,0.3-0.8,0.6-1.3,1c-0.3,0.2-1.1,1.3-0.7,0.5c0-0.2,0.1-0.3,0.1-0.5c-0.2,0.4-0.8,1.6-0.8,1.1
	c0-0.4,0.2-1,0.4-1.5c0.2-0.8,0.1-1.6,0.3-2.2l0,0c0-0.1,0-0.4,0-0.3l-0.3-2.1c-0.2-1.4-0.5-2.8-0.9-4.2c-0.6-2.8-1.8-5.5-3-8.4
	c-5.6-11.4-14.5-20.9-25.8-26.8c-11.6-5.9-24.5-7.2-36.4-5.2c-6.3,0.9-13.8,3.1-18.2,5.3c0.9-1.2-0.2-2.7-2.3-4.3
	c-1.1-0.8-4.3-1.8-9.1-2.1c-5.2-0.3-8-0.5-9.7-0.7c-1.7-0.3-2.3-0.7-2.8-1.1c-0.9-0.7-4.2-1.6-12.5,0.1c-9.1,1.9-18.7,5.5-25.9,11.5
	c-4.3,3.7-6.1,5.8-7.2,6c-0.6,0.2-1.4,0.8-2.4,1.6c-1,0.8-2.1,2-3.2,3.6c-2.3,3.1-4.8,7.7-6.4,14c-2.1,8.5-1.8,15.3-2.5,17.7
	c-0.3,0.8-0.3,2.5,0.1,4.9c0.1,1.2,0.5,2.5,1,3.9c0.2,0.7,0.5,1.3,0.7,2.1c0,0,0,0,0,0c0.1,0.1,0.2,0.2,0.3,0.2c0,0.1-0.4,0-0.4,0
	c0,0,0,0-0.1,0c-1,0.4-1.9,0.7-2.9,1.1c-1.9,0.8-3.8,1.6-5.7,2.5c-7.3,3.5-14.6,7.6-21.4,13.2c-6.7,5.5-13.2,12.6-16.7,22
	c-3.5,9.3-3.7,19.9-0.4,29.2c3.3,9.3,9.2,16.7,15.7,22.6c6.4,5.6,12.2,9.1,17.9,11.2l-0.3-0.1c2.3,0.9,4.8,1.9,6.4,3
	c1.5,1.1,3.7,1.9,6,2.8c1.2,0.4,2.4,0.9,3.6,1.3c1.3,0.3,2.5,0.6,3.7,0.8c9.3,2,19.3,3.5,28.9,3.1l2.7,0c2.2,0.2,5.3,0.2,8.2-0.1
	c10.8-1.4,22.3-4,31.8-8.6l0,0c8.8-2.7,17.7-7.9,24.6-14.1c1.7-1.3,3.2-2.8,4.6-4.1c1.4-1.3,2.8-2.4,3.9-3.2
	c0.5-0.4,0.9-0.8,1.4-1.2c0.4-0.4,1.1-1.1,1-0.9c0.1-0.1,0.2-0.1,0.2-0.1c0-0.1,0.1-0.1,0.2,0c0-0.1,0-0.2,0-0.3
	c0-0.2-0.3-0.4-0.2-0.5c0.1-0.1,0.3,0.2,0.2,0.4c0,0.1,0,0.2,0,0.3c12,1.8,24.2,2.7,37.1,3c16.9,0.5,33.9-2.1,50.9-5.4
	c9.3-1.9,18.2-5.1,27.7-8.1c3-1,3.6-1.5,5.1-2.3c3.2-1.7,5.2-2.5,7.2-2.4c3.3-1.3,6.3-2.9,9.4-4.4
	C1133.7,174.5,1135.3,173.8,1137.2,172.7z M959.4,58.9c0.6-0.1,1.1-0.3,1.6-0.4c-0.8,0.4-1.5,0.9-2.3,1.3
	C958.7,59.5,958.6,59.2,959.4,58.9z M965.4,215.2c-0.8,0.5-1.8,1.1-2.8,1.6c-1,0.5-2.2,1-3.3,1.5c2-0.9,2.7-1.5,5.3-2.9
	C965.6,214.9,966,214.9,965.4,215.2z M1131.5,154.4c-0.1,0.5-1.6,1.6-4.1,2.7c-2.6,1.1-5.5,2.3-8.1,3.7c-7.2,3.8-15.5,6.1-23.3,8.7
	c-3.9,1.3-6.7,1.3-10.6,2.4c-18.1,4.9-37.6,6.2-56.1,6.6c-6.6-0.1-13.2-0.6-19.8-1.2c-3.3-0.4-6.6-0.7-9.9-1.2l-7.8-1.3l-2.4-0.4
	l-1.2-0.2c-0.4,0-0.8-0.3-1.1,0.2L984,178l-4.9,5.3l-3.5,3.1c-2.2,2.2-4.9,3.9-7.4,5.8c-2.6,1.7-5.3,3.3-8.1,4.8
	c-2.9,1.3-5.6,2.8-8.6,3.7c-1.4,0.5-3,1.2-4.7,1.8c-1.7,0.6-3.4,1.1-5,1.7c-7.2,2.2-14.8,3.7-22.3,3.9c-1.6,0.2-3.3,0-4.9,0
	c-1.6-0.1-3.3,0-4.9-0.2c-3.2-0.3-6.4-0.4-9.4-0.7c-1.2-0.1-2.8-0.7-4-0.8c-2.6-0.6-5.2-1.3-7.8-2.1c-2.5-1-5-1.9-7.4-3
	c-2.3-1.2-4.9-2.2-7.1-3.5c-2.3-1.2-4.5-2.5-6.7-3.9c-0.8-0.5-2.2-1.6-2.3-1.8c-0.7-1.8-4.4-4.5-6.6-6.9c-2.7-3-4.6-6.6-5.6-10.1
	c-0.4-1.8-0.8-3.5-0.9-5.2c-0.1-0.8-0.1-1.7-0.1-2.6c0-0.9-0.2-1.8-0.1-2.6c0,0,0.3-0.8,0.4-1.2c0.2-0.3,0.3-0.7,0.4-1.1
	c0.2-0.4,0.4-0.8,0.6-1.3c0.4-0.9,0.6-1.9,1.2-2.8c3.3-7,10.8-13,19.2-17.9c4.3-2.4,8.8-4.5,13.5-6.4l2-0.8c1.2-0.5,2.5-1,3.8-1.4
	c2.5-0.9,5.2-1.7,7.8-2.6l15.3-5l-5.7-6l-3.1-3.2l-1.5-1.6c-0.5-0.5-0.8-1-1.2-1.6l-2.4-3.1c-0.7-1-1.9-2.4-1.7-2.5
	c-0.3-0.8-0.7-1.7-0.9-2.5c-1.7-6.5-0.4-15,3.5-21.8c1.9-3.4,4.5-6.4,7.3-8.7c3.2-2.5,6.8-4.5,10.8-5.9c5.5-2,8.9-2.8,10.5-4
	c1.4-0.9,1.9-1.7,2.1-2.5c0.2-0.5,0.9-1,5.6-1.1c4.9-0.1,9,0.7,14.9,0.7c1.6,0,2.6,0,3.3-0.1c-4.8,2.8-9.9,6.1-14,9.7
	c-3.8,3.4-5.4,5.1-6,5.9c-0.6,0.8-0.1,0.8,0.5,1c0.6,0.3,2.8-0.9,3.6-0.7c0.8,0.2,0.1,1.4-4.4,6.8c-1,1.3-1.2,2.1-0.9,2.2
	c1.5,0.2,2.6,0.8,4.3,0.8c1.7,0,3.9-0.6,7.7-2.4c3.7-1.6,7.6-4.3,15.6-9c2.9-1.6,6-2.9,9.1-3.9c6.2-2,12.6-3.2,18.9-3
	c1.6,0.1,3.1,0.1,4.7,0.4l2.3,0.3l2.3,0.5c3,0.6,5.6,1.7,8.3,3c10.5,5.4,19.3,16.3,21.5,27.8c0.1,0.7,0.2,0.6,0.4,2.5
	c0,0.7,0.2,1.3,0,2.1l-0.5,2.4c-0.3,1.6-0.6,3.2-0.9,4.7c-0.4,1.7-0.3,2.7-1.4,5.4c-1.7,4.7-3.5,9.4-5.2,14.1
	c-2.1,5.6-4.3,11.2-6.6,17c-1.2,2.9-2.4,6.1-3.8,9.8c1.2-1.1,2.4-2.2,3.7-3.3c1.5-1.4,3-2.8,4.6-4.3c3.7-3.6,7.6-7.3,11.4-11.1
	c2.1-2,4.2-4.1,6.2-6.1l3.1-3.1c0.9-0.9,1.8-1.7,2.7-2.6c1.8-1.7,3.6-3.5,5.2-5c1.5-1,3-2,4.4-3c1-0.7,2-1.5,3-2l2.1-1.1
	c0.9-0.5,1.8-0.9,2.7-1.2c0.9-0.4,1.9-0.7,2.9-1c1-0.3,2-0.6,3-0.8c4.1-0.9,8.5-1.3,12.8-1.1c17.3,0.6,34.7,9.1,44.3,22.5
	c2.8,3.9,5.3,8.8,6,12.8c0.5,2.1,0.6,4,0.6,5.2C1131.7,153.8,1131.6,154.2,1131.5,154.4z M1128.4,112.7c-0.2-0.2-0.5-0.6-0.5-0.5
	c0.9,0.3,2.4,1.8,3.9,3.2C1131.1,115.1,1130.4,114.6,1128.4,112.7z"/>
</svg>
