<?xml version="1.0" encoding="UTF-8"?>
<!DOCTYPE svg PUBLIC "-//W3C//DTD SVG 1.1//EN" "http://www.w3.org/Graphics/SVG/1.1/DTD/svg11.dtd">
<svg version="1.1" xmlns="http://www.w3.org/2000/svg" xmlns:xlink="http://www.w3.org/1999/xlink" x="0" y="0" width="1358.854" height="280.573" viewBox="0, 0, 1358.854, 280.573">
  <g id="Layer_1">
    <path d="M279.217,122.713 C270.543,53.625 211.456,0 140.054,0 C65.302,0 4.055,58.775 0.016,132.536 C-0.177,136.076 1.377,139.52 4.194,141.671 C33.184,163.826 72.566,169.678 106.56,156.335 C117.844,151.906 128.238,145.493 137.453,137.275 C137.461,137.268 137.471,137.267 137.478,137.26 C147.387,128.474 158.548,121.597 170.67,116.839 C173.712,115.645 176.793,114.593 179.905,113.681 C182.791,112.836 183.899,109.382 182.038,107.02 C172.014,94.295 156.743,86.721 140.054,86.721 C126.803,86.721 114.509,91.49 105.038,99.658 C103.532,100.956 101.269,101.107 99.677,99.918 C97.441,98.248 97.395,95.019 99.434,93.257 C110.415,83.766 124.678,78.223 140.054,78.223 C162.04,78.223 181.899,89.567 193.112,108.13 C193.977,109.563 195.616,110.313 197.277,110.101 C201.464,109.567 205.671,109.26 209.879,109.19 C213,109.138 214.995,105.795 213.583,103.009 C200.937,78.057 176.358,61.09 148.399,58.249 C146.401,58.046 144.684,56.578 144.423,54.587 C144.062,51.821 146.353,49.505 149.032,49.77 C183.089,53.141 212.668,75.489 225.017,107.749 C225.57,109.193 226.843,110.221 228.373,110.446 C232.756,111.091 237.1,111.985 241.384,113.128 C244.555,113.973 247.431,111.022 246.491,107.877 C235.791,72.093 208.059,44.65 173.141,33.883 C171.396,33.345 170.226,31.705 170.226,29.88 C170.226,27.06 172.955,25.008 175.647,25.847 C191.079,30.649 205.499,38.547 217.935,49.215 C238.342,66.723 252.25,90.592 257.429,116.768 C257.692,118.096 258.57,119.209 259.801,119.773 C264.285,121.829 268.649,124.172 272.855,126.807 C275.829,128.67 279.654,126.195 279.217,122.713" fill="#00C587"/>
    <path d="M139.821,280.573 C214.573,280.573 275.82,221.797 279.858,148.036 C280.052,144.496 278.497,141.053 275.681,138.901 C246.69,116.746 207.309,110.894 173.315,124.238 C162.031,128.667 151.636,135.079 142.422,143.298 C142.414,143.304 142.404,143.306 142.396,143.313 C132.488,152.099 121.327,158.975 109.204,163.734 C106.163,164.927 103.082,165.979 99.97,166.891 C97.084,167.737 95.976,171.191 97.837,173.553 C107.862,186.278 123.132,193.852 139.821,193.852 C153.125,193.852 165.464,189.044 174.951,180.816 C176.658,179.336 179.198,179.375 180.796,180.972 C182.548,182.724 182.429,185.589 180.558,187.214 C169.561,196.767 155.252,202.35 139.821,202.35 C117.835,202.35 97.976,191.006 86.763,172.443 C85.898,171.01 84.258,170.26 82.597,170.471 C78.411,171.005 74.204,171.312 69.996,171.383 C66.877,171.435 64.879,174.775 66.289,177.557 C80.136,204.886 108.296,222.651 139.536,222.759 C141.651,222.765 143.632,224.148 144.001,226.23 C144.478,228.919 142.423,231.257 139.821,231.257 C102.023,231.257 68.216,207.845 54.818,172.722 C54.281,171.314 52.993,170.345 51.502,170.126 C47.119,169.482 42.774,168.587 38.49,167.445 C35.329,166.602 32.439,169.535 33.376,172.67 C47.251,219.115 89.808,251.548 139.549,251.665 C141.661,251.67 143.635,253.062 144.002,255.142 C144.475,257.829 142.421,260.164 139.821,260.164 C111.252,260.164 83.594,249.934 61.94,231.357 C41.532,213.85 27.624,189.981 22.446,163.805 C22.183,162.476 21.305,161.364 20.074,160.8 C15.589,158.743 11.226,156.4 7.019,153.766 C4.045,151.903 0.22,154.378 0.658,157.86 C9.331,226.948 68.419,280.573 139.821,280.573" fill="#00C587"/>
    <path d="M352.64,98.011 C352.64,91.829 360.006,86.1 374.739,80.822 C390.197,75.549 401.384,72.91 408.298,72.91 C413.934,72.91 416.756,75.459 416.756,80.55 C416.756,81.278 416.661,82.007 416.483,82.732 L407.48,148.213 C406.934,152.761 406.661,156.764 406.661,160.218 C406.661,164.404 407.25,168.266 408.435,171.813 C409.616,175.36 412.753,177.133 417.848,177.133 C423.483,177.133 428.121,174.043 431.762,167.857 C435.398,161.676 438.672,151.214 441.583,136.481 L447.314,92.827 C447.859,88.828 448.721,85.964 449.906,84.233 C451.087,82.506 453.133,81.095 456.044,80.004 C466.958,74.914 477.326,72.365 487.148,72.365 C492.784,72.365 495.605,75.186 495.605,80.822 L495.605,83.005 L487.148,148.213 C486.602,152.399 486.329,156.125 486.329,159.399 C486.329,163.764 486.918,167.814 488.103,171.54 C489.283,175.27 492.421,177.133 497.515,177.133 C504.788,177.133 511.064,172.725 516.341,163.901 C521.614,155.08 524.253,143.847 524.253,130.205 C524.253,124.57 522.385,118.158 518.659,110.97 C514.93,103.787 513.067,98.378 513.067,94.737 C513.067,88.372 515.794,82.962 521.252,78.503 C526.708,74.049 532.255,71.819 537.895,71.819 C545.168,71.819 550.487,74.368 553.856,79.458 C557.219,84.553 558.903,91.011 558.903,98.829 C558.903,108.652 557.266,119.565 553.992,131.57 C550.718,143.574 545.986,155.536 539.805,167.448 C533.619,179.363 525.114,189.274 514.294,197.187 C503.471,205.099 491.513,209.055 478.417,209.055 C460.772,209.055 448.951,202.78 442.948,190.229 C432.035,202.78 417.118,209.055 398.203,209.055 C384.195,209.055 374.147,204.873 368.055,196.504 C361.958,188.14 358.915,177.952 358.915,165.947 C358.915,161.765 359.188,157.4 359.734,152.851 L364.099,120.929 C364.277,119.659 364.372,118.384 364.372,117.11 C364.372,114.927 363.915,112.838 363.008,110.834 C362.095,108.835 360.868,107.47 359.324,106.741 C357.777,106.017 356.276,104.926 354.823,103.468 C353.365,102.014 352.64,100.194 352.64,98.011" fill="#00C587"/>
    <path d="M619.201,172.768 C621.2,177.862 624.837,180.407 630.114,180.407 C637.933,180.407 644.481,174.405 649.758,162.4 C655.032,150.395 658.033,137.572 658.762,123.931 L659.307,114.927 L659.307,112.744 C659.307,106.742 657.944,101.967 655.215,98.42 C652.487,94.873 648.667,93.1 643.756,93.1 C636.117,93.1 629.794,99.239 624.794,111.516 C619.789,123.794 617.018,137.026 616.472,151.214 L616.472,153.396 C616.472,161.765 617.381,168.224 619.201,172.768 M565.18,158.853 C565.18,135.027 572.998,114.79 588.643,98.147 C604.284,81.505 622.108,73.183 642.119,73.183 C648.846,73.183 655.215,74.049 661.218,75.775 C667.22,77.506 670.856,78.367 672.131,78.367 C674.13,78.367 678.542,77.412 685.364,75.502 C692.184,73.592 696.865,72.637 699.414,72.637 C703.051,72.637 705.689,73.592 707.326,75.502 C708.963,77.412 709.782,79.552 709.782,81.914 L709.782,83.278 L702.961,161.854 C702.778,163.312 702.688,164.583 702.688,165.674 C702.688,172.406 704.504,175.769 708.145,175.769 C709.961,175.769 712.191,174.499 714.829,171.95 C717.464,169.404 719.51,168.13 720.969,168.13 C724.604,168.13 726.425,170.496 726.425,175.224 C726.425,182.684 722.469,190.187 714.557,197.732 C706.644,205.282 696.413,209.055 683.863,209.055 C667.309,209.055 657.304,202.417 653.851,189.138 C642.571,202.417 628.477,209.055 611.561,209.055 C597.919,209.055 586.776,204.374 578.139,195.004 C569.498,185.638 565.18,173.586 565.18,158.853" fill="#00C587"/>
    <path d="M722.878,215.876 C727.063,211.511 731.88,209.328 737.337,209.328 C740.79,209.328 743.975,210.462 746.886,212.738 C749.794,215.011 751.888,217.965 753.162,221.605 C753.524,222.514 754.07,224.061 754.798,226.244 C755.523,228.426 756.026,229.97 756.299,230.882 C756.573,231.79 757.118,232.971 757.936,234.429 C758.755,235.882 759.617,236.884 760.529,237.43 C761.438,237.976 762.617,238.521 764.076,239.067 C765.529,239.613 767.255,239.885 769.26,239.885 C772.35,239.885 775.261,238.748 777.99,236.475 C780.719,234.199 782.445,231.155 783.173,227.335 C783.536,225.332 783.719,222.97 783.719,220.241 C783.719,215.147 783.081,209.055 781.81,201.961 C776.531,175.224 767.529,147.668 754.798,119.292 C752.25,113.29 749.888,109.517 747.706,107.97 C745.522,106.426 742.248,105.377 737.883,104.832 C735.518,104.47 733.79,103.604 732.699,102.24 C731.609,100.876 731.062,99.559 731.062,98.284 C731.062,93.011 736.519,87.418 747.432,81.505 C758.346,75.596 767.622,72.637 775.261,72.637 C782.172,72.637 787.445,77.003 791.086,85.733 C802.724,114.108 813.003,146.213 821.917,182.044 C833.193,162.946 838.833,145.668 838.833,130.206 C838.833,124.57 836.966,118.158 833.24,110.971 C829.51,103.788 827.646,98.378 827.646,94.737 C827.646,88.373 830.375,82.962 835.831,78.503 C841.289,74.049 846.834,71.819 852.474,71.819 C859.568,71.819 864.841,74.232 868.298,79.049 C871.751,83.871 873.482,89.553 873.482,96.102 C873.482,111.563 868.708,130.751 859.159,153.669 C849.609,176.588 840.742,194.416 832.557,207.146 C808.91,244.796 782.083,263.622 752.07,263.622 C740.79,263.622 732.107,260.894 726.014,255.438 C719.922,249.98 716.875,242.976 716.875,234.429 C716.875,226.423 718.878,220.241 722.878,215.876" fill="#00C587"/>
    <path d="M945.78,179.315 C948.325,184.772 952.507,187.5 958.33,187.5 L958.603,187.5 C966.422,187.5 973.242,181.634 979.066,169.902 C984.885,158.17 987.797,143.122 987.797,124.748 L987.797,122.293 C987.797,108.651 983.431,101.83 974.7,101.83 C968.153,101.83 961.783,107.15 955.602,117.791 C949.416,128.431 945.324,141.757 943.324,157.761 C943.141,160.127 943.051,162.31 943.051,164.309 C943.051,170.312 943.96,175.316 945.78,179.315 M868.295,253.526 C868.661,250.977 870.115,248.568 872.66,246.296 C875.21,244.02 877.844,241.475 880.572,238.657 C883.301,235.835 884.938,232.424 885.484,228.425 L900.217,123.384 C900.396,122.113 900.489,120.928 900.489,119.837 C900.489,117.109 899.897,114.61 898.716,112.334 C897.531,110.062 895.941,108.472 893.941,107.56 C891.937,106.651 890.075,105.377 888.348,103.74 C886.617,102.103 885.756,100.104 885.756,97.737 C885.756,95.009 887.3,92.375 890.394,89.825 C893.485,87.28 899.398,84.19 908.129,80.549 C920.496,75.275 931.499,72.636 941.142,72.636 C946.778,72.636 949.6,75.186 949.6,80.276 C949.6,81.005 949.506,81.823 949.326,82.732 L947.69,95.282 C960.965,80.549 976.973,73.182 995.709,73.182 C1009.53,73.182 1019.808,78.003 1026.539,87.643 C1033.266,97.286 1036.634,108.378 1036.634,120.928 C1036.634,125.477 1036.267,130.388 1035.543,135.661 C1032.269,155.672 1023.355,172.63 1008.805,186.545 C994.251,200.46 978.61,207.417 961.877,207.417 C955.509,207.417 947.417,205.963 937.595,203.052 L934.321,228.425 C934.137,229.334 934.048,230.152 934.048,230.881 C934.048,233.789 934.956,236.517 936.777,239.066 C938.593,241.611 940.366,243.93 942.097,246.023 C943.823,248.112 944.689,250.253 944.689,252.435 L944.689,253.799 C943.96,258.527 939.232,260.893 930.501,260.893 L881.118,260.893 C876.573,260.893 873.3,260.347 871.296,259.256 C869.297,258.165 868.295,256.617 868.295,254.618 z" fill="#00C587"/>
    <path d="M1104.572,172.768 C1106.572,177.862 1110.208,180.407 1115.486,180.407 C1123.304,180.407 1129.852,174.405 1135.13,162.4 C1140.403,150.395 1143.404,137.572 1144.133,123.931 L1144.679,114.927 L1144.679,112.744 C1144.679,106.742 1143.315,101.967 1140.586,98.42 C1137.858,94.873 1134.038,93.1 1129.127,93.1 C1121.488,93.1 1115.166,99.239 1110.165,111.516 C1105.16,123.794 1102.389,137.026 1101.843,151.214 L1101.843,153.396 C1101.843,161.765 1102.752,168.224 1104.572,172.768 M1050.551,158.853 C1050.551,135.027 1058.369,114.79 1074.014,98.147 C1089.655,81.505 1107.479,73.183 1127.49,73.183 C1134.217,73.183 1140.586,74.049 1146.589,75.775 C1152.591,77.506 1156.227,78.367 1157.502,78.367 C1159.501,78.367 1163.914,77.412 1170.735,75.502 C1177.555,73.592 1182.237,72.637 1184.786,72.637 C1188.422,72.637 1191.061,73.592 1192.698,75.502 C1194.335,77.412 1195.153,79.552 1195.153,81.914 L1195.153,83.278 L1188.332,161.854 C1188.149,163.312 1188.06,164.583 1188.06,165.674 C1188.06,172.406 1189.876,175.769 1193.516,175.769 C1195.332,175.769 1197.562,174.499 1200.2,171.95 C1202.836,169.404 1204.882,168.13 1206.34,168.13 C1209.976,168.13 1211.797,170.496 1211.797,175.224 C1211.797,182.684 1207.84,190.187 1199.928,197.732 C1192.015,205.282 1181.784,209.055 1169.234,209.055 C1152.68,209.055 1142.675,202.417 1139.222,189.138 C1127.942,202.417 1113.848,209.055 1096.932,209.055 C1083.291,209.055 1072.147,204.374 1063.51,195.004 C1054.869,185.638 1050.551,173.586 1050.551,158.853" fill="#00C587"/>
    <path d="M1208.249,215.876 C1212.436,211.511 1217.252,209.328 1222.709,209.328 C1226.163,209.328 1229.347,210.462 1232.259,212.738 C1235.166,215.011 1237.259,217.965 1238.534,221.605 C1238.896,222.514 1239.442,224.061 1240.171,226.244 C1240.896,228.426 1241.398,229.97 1241.671,230.882 C1241.944,231.79 1242.49,232.971 1243.309,234.429 C1244.127,235.882 1244.988,236.884 1245.9,237.43 C1246.809,237.976 1247.989,238.521 1249.447,239.067 C1250.901,239.613 1252.627,239.885 1254.631,239.885 C1257.722,239.885 1260.633,238.748 1263.362,236.475 C1266.09,234.199 1267.817,231.155 1268.545,227.335 C1268.908,225.332 1269.092,222.97 1269.092,220.241 C1269.092,215.147 1268.452,209.055 1267.182,201.961 C1261.904,175.224 1252.9,147.668 1240.171,119.292 C1237.622,113.29 1235.26,109.517 1233.077,107.97 C1230.895,106.426 1227.621,105.377 1223.255,104.832 C1220.889,104.47 1219.163,103.604 1218.071,102.24 C1216.98,100.876 1216.434,99.559 1216.434,98.284 C1216.434,93.011 1221.891,87.418 1232.804,81.505 C1243.718,75.596 1252.994,72.637 1260.633,72.637 C1267.544,72.637 1272.817,77.003 1276.458,85.733 C1288.096,114.108 1298.374,146.213 1307.288,182.044 C1318.564,162.946 1324.204,145.668 1324.204,130.206 C1324.204,124.57 1322.337,118.158 1318.611,110.971 C1314.881,103.788 1313.018,98.378 1313.018,94.737 C1313.018,88.373 1315.747,82.962 1321.203,78.503 C1326.66,74.049 1332.206,71.819 1337.846,71.819 C1344.94,71.819 1350.213,74.232 1353.67,79.049 C1357.124,83.871 1358.854,89.553 1358.854,96.102 C1358.854,111.563 1354.08,130.751 1344.53,153.669 C1334.981,176.588 1326.114,194.416 1317.929,207.146 C1294.282,244.796 1267.455,263.622 1237.442,263.622 C1226.163,263.622 1217.478,260.894 1211.387,255.438 C1205.295,249.98 1202.247,242.976 1202.247,234.429 C1202.247,226.423 1204.25,220.241 1208.249,215.876" fill="#00C587"/>
  </g>
</svg>
