<?xml version="1.0" encoding="UTF-8"?>
<!DOCTYPE svg PUBLIC "-//W3C//DTD SVG 1.1//EN" "http://www.w3.org/Graphics/SVG/1.1/DTD/svg11.dtd">
<svg version="1.1" xmlns="http://www.w3.org/2000/svg" xmlns:xlink="http://www.w3.org/1999/xlink" x="0" y="0" width="141.979" height="29.316" viewBox="0, 0, 157.755, 32.573">
  <g id="Layer_1" transform="translate(-289.912, -41)">
    <g>
      <path d="M322.328,55.246 C321.321,47.226 314.461,41 306.172,41 C297.494,41 290.383,47.823 289.914,56.387 C289.892,56.798 290.072,57.197 290.399,57.447 C293.765,60.019 298.337,60.699 302.283,59.15 C303.593,58.635 304.8,57.891 305.87,56.937 C305.871,56.936 305.872,56.936 305.873,56.935 C307.023,55.915 308.319,55.117 309.726,54.564 C310.079,54.426 310.437,54.304 310.798,54.198 C311.133,54.1 311.262,53.699 311.046,53.424 C309.882,51.947 308.109,51.068 306.172,51.068 C304.633,51.068 303.206,51.621 302.107,52.57 C301.932,52.72 301.669,52.738 301.484,52.6 C301.225,52.406 301.219,52.031 301.456,51.827 C302.731,50.725 304.387,50.081 306.172,50.081 C308.724,50.081 311.03,51.398 312.332,53.553 C312.432,53.72 312.622,53.807 312.815,53.782 C313.301,53.72 313.79,53.684 314.278,53.676 C314.64,53.67 314.872,53.282 314.708,52.959 C313.24,50.062 310.387,48.092 307.141,47.762 C306.909,47.739 306.709,47.568 306.679,47.337 C306.637,47.016 306.903,46.747 307.214,46.778 C311.168,47.169 314.602,49.764 316.036,53.509 C316.1,53.677 316.248,53.796 316.425,53.822 C316.934,53.897 317.438,54.001 317.936,54.133 C318.304,54.232 318.638,53.889 318.529,53.524 C317.286,49.37 314.067,46.184 310.013,44.934 C309.81,44.871 309.675,44.681 309.675,44.469 C309.675,44.142 309.991,43.903 310.304,44.001 C312.096,44.558 313.77,45.475 315.213,46.714 C317.582,48.746 319.197,51.517 319.798,54.556 C319.829,54.71 319.931,54.839 320.074,54.905 C320.594,55.144 321.101,55.416 321.589,55.722 C321.935,55.938 322.379,55.65 322.328,55.246" fill="#00C587"/>
      <path d="M306.145,73.573 C314.823,73.573 321.934,66.749 322.402,58.186 C322.425,57.775 322.244,57.375 321.917,57.126 C318.552,54.553 313.98,53.874 310.033,55.423 C308.723,55.937 307.516,56.682 306.447,57.636 C306.446,57.637 306.445,57.637 306.444,57.638 C305.294,58.658 303.998,59.456 302.59,60.009 C302.237,60.147 301.88,60.269 301.518,60.375 C301.183,60.473 301.055,60.874 301.271,61.148 C302.435,62.626 304.207,63.505 306.145,63.505 C307.689,63.505 309.122,62.947 310.223,61.992 C310.421,61.82 310.716,61.824 310.902,62.01 C311.105,62.213 311.091,62.546 310.874,62.734 C309.597,63.843 307.936,64.492 306.145,64.492 C303.592,64.492 301.287,63.175 299.985,61.02 C299.885,60.853 299.694,60.766 299.501,60.791 C299.016,60.853 298.527,60.888 298.039,60.897 C297.676,60.903 297.445,61.29 297.608,61.613 C299.216,64.786 302.485,66.848 306.112,66.861 C306.357,66.862 306.587,67.022 306.63,67.264 C306.685,67.576 306.447,67.848 306.145,67.848 C301.757,67.848 297.832,65.13 296.276,61.052 C296.214,60.889 296.065,60.776 295.892,60.751 C295.383,60.676 294.878,60.572 294.381,60.439 C294.014,60.341 293.678,60.682 293.787,61.046 C295.398,66.438 300.339,70.203 306.113,70.217 C306.358,70.217 306.588,70.379 306.63,70.62 C306.685,70.932 306.447,71.203 306.145,71.203 C302.828,71.203 299.617,70.016 297.103,67.859 C294.734,65.827 293.119,63.056 292.518,60.017 C292.488,59.862 292.386,59.733 292.243,59.668 C291.722,59.429 291.216,59.157 290.727,58.851 C290.382,58.635 289.938,58.922 289.989,59.327 C290.996,67.347 297.855,73.573 306.145,73.573" fill="#00C587"/>
      <path d="M330.852,52.378 C330.852,51.661 331.707,50.996 333.417,50.383 C335.212,49.771 336.511,49.464 337.313,49.464 C337.968,49.464 338.295,49.76 338.295,50.351 C338.295,50.436 338.284,50.521 338.264,50.605 L337.218,58.207 C337.155,58.735 337.123,59.199 337.123,59.6 C337.123,60.086 337.192,60.535 337.329,60.946 C337.466,61.358 337.83,61.564 338.422,61.564 C339.076,61.564 339.615,61.205 340.037,60.487 C340.459,59.77 340.84,58.555 341.178,56.845 L341.843,51.777 C341.906,51.312 342.006,50.98 342.144,50.779 C342.281,50.578 342.518,50.415 342.856,50.288 C344.123,49.697 345.327,49.401 346.467,49.401 C347.122,49.401 347.449,49.729 347.449,50.383 L347.449,50.636 L346.467,58.207 C346.404,58.693 346.372,59.125 346.372,59.505 C346.372,60.012 346.441,60.482 346.578,60.915 C346.715,61.348 347.079,61.564 347.671,61.564 C348.515,61.564 349.244,61.052 349.856,60.028 C350.469,59.004 350.775,57.7 350.775,56.116 C350.775,55.462 350.558,54.717 350.126,53.883 C349.693,53.049 349.476,52.421 349.476,51.998 C349.476,51.259 349.793,50.631 350.427,50.114 C351.06,49.597 351.704,49.338 352.359,49.338 C353.203,49.338 353.821,49.634 354.212,50.225 C354.602,50.816 354.798,51.566 354.798,52.473 C354.798,53.614 354.608,54.881 354.227,56.274 C353.847,57.668 353.298,59.057 352.58,60.44 C351.862,61.823 350.875,62.974 349.619,63.892 C348.362,64.811 346.974,65.27 345.454,65.27 C343.405,65.27 342.033,64.542 341.336,63.084 C340.069,64.542 338.337,65.27 336.141,65.27 C334.515,65.27 333.349,64.785 332.641,63.813 C331.934,62.842 331.58,61.659 331.58,60.265 C331.58,59.78 331.612,59.273 331.675,58.745 L332.182,55.039 C332.203,54.892 332.214,54.744 332.214,54.596 C332.214,54.342 332.161,54.1 332.055,53.867 C331.949,53.635 331.807,53.477 331.628,53.392 C331.448,53.308 331.274,53.181 331.105,53.012 C330.936,52.843 330.852,52.632 330.852,52.378" fill="#00C587"/>
      <path d="M361.798,61.057 C362.03,61.649 362.452,61.944 363.065,61.944 C363.973,61.944 364.733,61.247 365.345,59.854 C365.958,58.46 366.306,56.971 366.391,55.388 L366.454,54.342 L366.454,54.089 C366.454,53.392 366.296,52.838 365.979,52.426 C365.662,52.014 365.219,51.808 364.649,51.808 C363.762,51.808 363.028,52.521 362.447,53.946 C361.866,55.372 361.544,56.908 361.481,58.555 L361.481,58.808 C361.481,59.78 361.587,60.53 361.798,61.057 M355.526,59.442 C355.526,56.676 356.434,54.326 358.25,52.394 C360.066,50.462 362.135,49.496 364.459,49.496 C365.239,49.496 365.979,49.597 366.676,49.797 C367.373,49.998 367.795,50.098 367.943,50.098 C368.175,50.098 368.687,49.987 369.479,49.765 C370.271,49.544 370.814,49.433 371.11,49.433 C371.532,49.433 371.839,49.544 372.029,49.765 C372.219,49.987 372.314,50.235 372.314,50.51 L372.314,50.668 L371.522,59.79 C371.501,59.959 371.49,60.107 371.49,60.234 C371.49,61.015 371.701,61.406 372.124,61.406 C372.335,61.406 372.593,61.258 372.9,60.962 C373.206,60.667 373.443,60.519 373.613,60.519 C374.035,60.519 374.246,60.794 374.246,61.342 C374.246,62.208 373.787,63.08 372.868,63.955 C371.949,64.832 370.762,65.27 369.305,65.27 C367.383,65.27 366.221,64.499 365.821,62.958 C364.511,64.499 362.875,65.27 360.911,65.27 C359.327,65.27 358.034,64.727 357.031,63.639 C356.028,62.551 355.526,61.152 355.526,59.442" fill="#00C587"/>
      <path d="M373.834,66.062 C374.32,65.555 374.879,65.302 375.513,65.302 C375.914,65.302 376.283,65.433 376.621,65.698 C376.959,65.961 377.202,66.304 377.35,66.727 C377.392,66.832 377.455,67.012 377.54,67.266 C377.624,67.519 377.683,67.698 377.714,67.804 C377.746,67.909 377.809,68.046 377.904,68.216 C377.999,68.384 378.099,68.501 378.205,68.564 C378.311,68.628 378.448,68.691 378.617,68.754 C378.786,68.818 378.986,68.849 379.219,68.849 C379.578,68.849 379.916,68.717 380.232,68.453 C380.549,68.189 380.75,67.836 380.834,67.392 C380.876,67.16 380.897,66.885 380.897,66.569 C380.897,65.977 380.823,65.27 380.676,64.446 C380.063,61.342 379.018,58.143 377.54,54.849 C377.244,54.152 376.97,53.714 376.716,53.535 C376.463,53.355 376.083,53.234 375.576,53.17 C375.302,53.128 375.101,53.028 374.974,52.869 C374.848,52.711 374.784,52.558 374.784,52.41 C374.784,51.798 375.418,51.149 376.685,50.462 C377.952,49.776 379.029,49.433 379.916,49.433 C380.718,49.433 381.33,49.94 381.753,50.953 C383.104,54.247 384.297,57.974 385.332,62.134 C386.641,59.917 387.296,57.911 387.296,56.116 C387.296,55.462 387.079,54.717 386.646,53.883 C386.213,53.049 385.997,52.421 385.997,51.998 C385.997,51.26 386.314,50.631 386.947,50.114 C387.581,49.597 388.225,49.338 388.88,49.338 C389.703,49.338 390.315,49.618 390.717,50.177 C391.117,50.737 391.318,51.397 391.318,52.157 C391.318,53.952 390.764,56.179 389.656,58.84 C388.547,61.501 387.518,63.57 386.567,65.048 C383.822,69.419 380.707,71.605 377.223,71.605 C375.914,71.605 374.906,71.288 374.198,70.655 C373.491,70.021 373.137,69.208 373.137,68.216 C373.137,67.286 373.37,66.569 373.834,66.062" fill="#00C587"/>
      <path d="M399.712,61.817 C400.007,62.451 400.493,62.768 401.169,62.768 L401.2,62.768 C402.108,62.768 402.9,62.087 403.576,60.725 C404.252,59.363 404.59,57.616 404.59,55.483 L404.59,55.198 C404.59,53.614 404.083,52.822 403.069,52.822 C402.309,52.822 401.57,53.44 400.852,54.675 C400.134,55.91 399.659,57.457 399.427,59.315 C399.405,59.59 399.395,59.843 399.395,60.075 C399.395,60.772 399.5,61.353 399.712,61.817 M390.716,70.433 C390.759,70.137 390.928,69.857 391.223,69.594 C391.519,69.329 391.825,69.034 392.142,68.707 C392.458,68.379 392.648,67.983 392.712,67.519 L394.422,55.324 C394.443,55.177 394.454,55.039 394.454,54.912 C394.454,54.596 394.385,54.306 394.248,54.041 C394.11,53.778 393.926,53.593 393.694,53.487 C393.461,53.382 393.245,53.234 393.044,53.044 C392.843,52.854 392.743,52.622 392.743,52.347 C392.743,52.03 392.923,51.724 393.282,51.428 C393.641,51.133 394.327,50.774 395.341,50.351 C396.776,49.739 398.054,49.433 399.173,49.433 C399.828,49.433 400.155,49.729 400.155,50.32 C400.155,50.404 400.144,50.499 400.123,50.605 L399.934,52.062 C401.475,50.351 403.333,49.496 405.508,49.496 C407.113,49.496 408.306,50.056 409.087,51.175 C409.868,52.294 410.259,53.582 410.259,55.039 C410.259,55.567 410.217,56.137 410.133,56.749 C409.753,59.073 408.718,61.041 407.029,62.657 C405.339,64.272 403.523,65.08 401.581,65.08 C400.841,65.08 399.902,64.911 398.762,64.573 L398.381,67.519 C398.36,67.624 398.35,67.719 398.35,67.804 C398.35,68.142 398.455,68.458 398.667,68.754 C398.877,69.05 399.083,69.319 399.284,69.562 C399.485,69.804 399.585,70.053 399.585,70.306 L399.585,70.465 C399.5,71.013 398.952,71.288 397.938,71.288 L392.205,71.288 C391.677,71.288 391.297,71.225 391.065,71.098 C390.833,70.971 390.716,70.792 390.716,70.56 z" fill="#00C587"/>
      <path d="M418.147,61.057 C418.379,61.649 418.801,61.944 419.414,61.944 C420.321,61.944 421.081,61.247 421.694,59.854 C422.306,58.46 422.655,56.971 422.739,55.388 L422.803,54.342 L422.803,54.089 C422.803,53.392 422.644,52.838 422.328,52.426 C422.011,52.014 421.567,51.808 420.997,51.808 C420.11,51.808 419.376,52.521 418.796,53.946 C418.215,55.372 417.893,56.908 417.83,58.555 L417.83,58.808 C417.83,59.78 417.935,60.53 418.147,61.057 M411.875,59.442 C411.875,56.676 412.783,54.326 414.599,52.394 C416.415,50.462 418.484,49.496 420.807,49.496 C421.588,49.496 422.328,49.597 423.025,49.797 C423.721,49.998 424.143,50.098 424.291,50.098 C424.523,50.098 425.036,49.987 425.828,49.765 C426.619,49.544 427.163,49.433 427.459,49.433 C427.881,49.433 428.187,49.544 428.377,49.765 C428.568,49.987 428.662,50.235 428.662,50.51 L428.662,50.668 L427.871,59.79 C427.849,59.959 427.839,60.107 427.839,60.234 C427.839,61.015 428.05,61.406 428.472,61.406 C428.683,61.406 428.942,61.258 429.248,60.962 C429.554,60.667 429.792,60.519 429.961,60.519 C430.383,60.519 430.595,60.794 430.595,61.342 C430.595,62.208 430.135,63.08 429.217,63.955 C428.298,64.832 427.11,65.27 425.653,65.27 C423.732,65.27 422.57,64.499 422.169,62.958 C420.86,64.499 419.223,65.27 417.26,65.27 C415.676,65.27 414.382,64.727 413.38,63.639 C412.376,62.551 411.875,61.152 411.875,59.442" fill="#00C587"/>
      <path d="M430.183,66.062 C430.669,65.555 431.228,65.302 431.862,65.302 C432.263,65.302 432.632,65.433 432.97,65.698 C433.308,65.961 433.551,66.304 433.699,66.727 C433.741,66.832 433.804,67.012 433.889,67.266 C433.973,67.519 434.031,67.698 434.063,67.804 C434.095,67.909 434.158,68.046 434.253,68.216 C434.348,68.384 434.448,68.501 434.554,68.564 C434.659,68.628 434.796,68.691 434.966,68.754 C435.134,68.818 435.335,68.849 435.568,68.849 C435.926,68.849 436.264,68.717 436.581,68.453 C436.898,68.189 437.098,67.836 437.183,67.392 C437.225,67.16 437.246,66.885 437.246,66.569 C437.246,65.977 437.172,65.27 437.025,64.446 C436.412,61.342 435.367,58.143 433.889,54.849 C433.593,54.152 433.319,53.714 433.065,53.535 C432.812,53.355 432.432,53.234 431.925,53.17 C431.65,53.128 431.45,53.028 431.323,52.869 C431.196,52.711 431.133,52.558 431.133,52.41 C431.133,51.798 431.767,51.149 433.034,50.462 C434.301,49.776 435.377,49.433 436.264,49.433 C437.067,49.433 437.679,49.94 438.101,50.953 C439.453,54.247 440.646,57.974 441.681,62.134 C442.99,59.917 443.645,57.911 443.645,56.116 C443.645,55.462 443.428,54.717 442.995,53.883 C442.562,53.049 442.346,52.421 442.346,51.998 C442.346,51.26 442.663,50.631 443.296,50.114 C443.93,49.597 444.573,49.338 445.228,49.338 C446.052,49.338 446.664,49.618 447.065,50.177 C447.466,50.737 447.667,51.397 447.667,52.157 C447.667,53.952 447.113,56.179 446.004,58.84 C444.896,61.501 443.866,63.57 442.916,65.048 C440.171,69.419 437.056,71.605 433.572,71.605 C432.263,71.605 431.254,71.288 430.547,70.655 C429.84,70.021 429.486,69.208 429.486,68.216 C429.486,67.286 429.719,66.569 430.183,66.062" fill="#00C587"/>
    </g>
  </g>
</svg>
