<?xml version="1.0" encoding="utf-8"?>
<!-- Generator: Adobe Illustrator 25.3.1, SVG Export Plug-In . SVG Version: 6.00 Build 0)  -->
<svg version="1.1" id="Layer_1" xmlns="http://www.w3.org/2000/svg" xmlns:xlink="http://www.w3.org/1999/xlink" x="0px" y="0px"
	 viewBox="0 0 1224.1 728.5" style="enable-background:new 0 0 1224.1 728.5;" xml:space="preserve">
<style type="text/css">
	.st0{fill:#1C1C1C;}
	.st1{fill:none;}
	.st2{fill:#FFFFFF;}
	.st3{fill:#F59B43;}
	.st4{fill:#A3A0A0;}
</style>
<path class="st0" d="M639.7,745.4C639.7,745.4,639.7,745.3,639.7,745.4C639.7,745.4,639.7,745.4,639.7,745.4c0,0,0,0.2,0,0.1
	C639.6,745.5,639.6,745.4,639.7,745.4z"/>
<path class="st0" d="M1111.7,814.3C1111.7,814.3,1111.7,814.3,1111.7,814.3C1111.7,814.3,1111.7,814.3,1111.7,814.3
	c0,0,0.1,0.1,0.1,0.1C1111.7,814.5,1111.7,814.4,1111.7,814.3z"/>
<line class="st1" x1="524" y1="170" x2="523.4" y2="171.5"/>
<g>
	<path class="st0" d="M806.5,419c0,0.4,0,0.7-0.1,1c-0.1,3.7-0.9,7.4-1.6,10.9c-0.4,1.9-1.2,3.9-2.2,5c-0.5,0.5-0.9,1.4-1.2,2.3
		c-0.7,2.2-2,4.5-4.1,7c-4.3,5.2-11.1,9.2-17.5,10.5c-6.5,1.4-12.4,1.2-17.6,1.2c-3.6,0-6.9-0.4-10.5-0.1c-1.8,0.2-3.2-0.2-3.6-0.6
		c-0.7-0.7-2.5-0.8-5-0.6c-3.6,0.4-5.8,0.4-6.7-0.5c-0.3-0.4-1.2-0.4-2.8,0c-0.9,0.3-1.8,0.5-2.7,0.7c7.7,6.4,13.7,14.8,17.4,24
		c-0.1,0-0.7-0.8-0.2,0.4c0.6,1.5,0.6,0.8,0.7,0.6c0.3,1.4,1,2.9,1.5,4.4c0.6,1.5,1.2,3.1,1.3,4.6c0,0.5,0.6,2.2,0.4,2.6
		c-0.1,0.2-0.5-0.2-0.2,1.3c0.2,1.2,0.3,0.1,0.5,0.3c0.8,1,0.9,3.5,0.8,5.7l-0.2,1c0.1,0.8,0.1,1.9,0.2,2.8c0,0.9,0,1.7,0.1,2
		c0.4,1.7,0.3,2.7-0.1,4.8c-0.3,1.4-0.5,2.7-1.4,6.5c-0.4,1.6-2.1,4.7-4.7,6.7c-2.5,2-5.3,3.1-7.2,3.7c-4.4,1.3-8,2.3-12.1,2.8
		c-1.1-0.5-2.3-0.6-4.3,0c-1,0.3-1.3,0.5-3.1,0.4c-5.5-0.2-10.6-0.2-15.5-1c-9-1.4-17.3-2.5-25.1-3.4c-6-0.7-11.4-0.1-17.1,0.7
		c0-0.1,0-0.2-0.1-0.2c-0.2-0.1-0.8-0.3-1.4-0.1c-0.6,0.2,0.9,0,1,0.2c0.1,0.1,0.4,0.1,0.5,0.2c-2.2,0.1-4.6,0.9-6.8,0.9
		c-1.2,0-3.1,0.5-4.9,1.1c-4,1.4-8.3,2.8-12.6,3.5c-4.6,1.9-9.8,3.4-14.7,5.3c-1.3,0.5-2.7,0.8-3.8,1l-1.2,0.4
		c-4.3,1.7-8.9,3.1-13,4.9c-2.2,1-4.7,1.8-6.5,1.9c-0.9,0-2.1,0.5-3.2,1c-2.5,1.3-5.4,2.3-9,3.5c-15.1,5-30.3,9.5-45.5,14.4
		c-5.2,1.7-10.4,2.8-15.8,4.6c-2.8,0.9-4.9,1.1-5.7,0.8c-1.1-0.5-4,0.1-7.7,1.2c-5.6,1.7-9,2.2-10.3,1.5c-0.5-0.3-1.8-0.1-4.3,0.8
		c-4.2,1.5-8.8,2.6-13.2,3.9c-4,1.2-5.7,1-6.2,0.5c-0.7-0.5-1.4-1-6.6,0.3c-2.4,0.6-4.2,0.6-4.9,0.2l2.8-7.4
		c2.6-0.8,4.7-0.8,7.1-1.3c2.6-0.5,3-0.8,3-1.2c0-0.6,0.2-1.2,1-2c0.9-0.9,2.8-1.7,6.4-2.6c10.4-2.5,20.7-5.8,31-8.7
		c13.3-3.8,26.5-7.8,39.8-12c1.5-0.5,3-1,4.1-1c0.3,0,0.9-0.1,0.9-0.1c4.6-2.3,10.2-3.1,15.1-5c1.9-0.8,4.6-2.1,5.8-1.6
		c0.2,0.1,1.2-0.3,1.7-0.5c5.7-2.6,11.9-3.8,17.7-6c0.6-0.2,1.6-0.3,2.2-0.7c3.2-1.7,6.9-2.6,10.5-3.8c4.1-1.4,8.3-2.9,12.5-4.4
		c1.8-0.7,4-1.4,5.7-1.9c7.2-1.8,14.5-3.8,22-5.3c7.5-1.4,15.5-2.3,23.3-1.6c11,0,21.4,3.2,31.1,4c2.1,0.2,3.4,0.9,5.5,0.9
		c4.1,0,8.4,0.5,12.1-0.5c1.4-0.3,2.7-0.7,4.1-0.8c1.3-0.4,3-0.6,4.1-1.2c0.7-0.3,1.4-0.7,1.8-1c0.4-0.3,0.6-0.5,0.8-0.7
		c0.5-0.2,0.9-2.8,0.8-5.6c0.2-9.2-2.2-18.5-6.5-26.7c-2.1-4.1-5.2-8-8.5-10.5c-1.3-1.1-2.8-2.2-4.1-3.5c-1.4-1.1-2.7-2.4-3.9-3.3
		c-1-0.8-1.9-1.6-2.9-2c-1-0.5-2.1-1.1-3.3-1.4c-6.1-2.3-13.3-2.8-21-3.1c-7.8-0.3-15.8-0.7-23.6-1.1c-2-0.1-4-0.2-5.9-0.3
		c-5.5,0-8.3-0.6-10.4-1.5c-4.6-1.9-4.3-3.8-5.2-5.7c-0.1-0.2,0.4-0.5,1.2-0.6c7.3-0.6,2.8-1.8,2.6-2.7c-0.2-0.9-0.7-0.9,4.4-1.1
		c3.7-0.2,7.8,0,11.2-0.5c2.2-0.3,6.3,0.1,9.6,0.1c5.7,0.1,11.4,0.1,17.2,0.2c5.8,0.1,12,0.4,18.2,1.8c3,0.6,5.7,1.7,8.3,2.9
		c0.8,0.5,1.8,1,2.9,1.6c0.9-0.3,1.1-0.5,1-0.8c0-0.6,0.1-1.1,0.6-1.8c0.6-0.8,2-1.5,4.6-2c7.6-1.5,15.2-2.7,22.7-2.9
		c4.8-0.2,9.7-0.2,14.4,0c4.6,0.1,8.7,0.1,12.2-0.6c0.8-0.1,1.5-0.4,2.1-0.3c0.1,0,0.5,0,0.5,0c2.1-1.5,4.6-1.8,6.2-3.8
		c0.6-0.8,1.2-2.1,2.2-2c0.2,0,0.4-0.4,0.5-0.7c1.3-2.8,3.3-5.5,4-8.9c0.1-0.3,0.5-0.8,0.4-1.2c-0.1-2,0.5-4,0.5-6
		c0.1-2.4-0.1-4.7-0.8-7c-0.3-1-0.6-2.2-0.8-3.2c-1.6-8-7.7-14.6-14.1-19.8c-5-3-10.2-6.6-16.3-8.4c-1.3-0.4-2-1.2-3.3-1.5
		c-2.7-0.6-5.4-2-8.3-2.1c-2.1-0.1-4-1.1-6.4-1.4c-1.4-0.1-3.2-0.5-5-1c-1.6-0.5-3.9-0.7-5.8-1c-6.7-0.9-13.4-1.8-20.2-2.3
		c-3.3-0.2-6.9-0.3-10,0.2c-2.5,0.4-5.8,0.2-8-0.3c-1.9-0.4-3.6-0.3-5.5-0.2c-10.2,0.6-20.4,1.5-30.5,2.5c-1.3,0.1-2.5,0.3-3.8,0.5
		c-3.5,0.7-5.3,0.6-6.9,0.1c-3.3-1.1-3.6-3-4.5-4.7c-0.1-0.2,0.1-0.6,0.6-0.8c4.6-1.7,1.4-2.2,1.1-3.1c-0.3-0.9-0.6-0.7,2.6-1.8
		c2.4-0.8,5.2-1.2,7.3-2.1c1.5-0.6,4.2-0.8,6.4-1.2c7.6-1.3,15.4-2.1,23.2-2.6c1.9-0.1,3.5-0.2,5.3,0l0,0c0.8,0.2,1.8,0.2,2.8,0.2
		c0.5,0.2,1,0.2,1.8,0.1c1.2-0.2,0.2-0.4,0.1-0.6c7.8-0.4,15.7-0.2,23.5,0.5c0,0.1-0.6,0.3,0.1,0.4c1,0.1,0.6-0.2,0.5-0.4
		c1.7,0.7,4,0,5.8,0.7c0.3,0.1,1.4,0.1,1.6,0.4c0.1,0.1-0.2,0.4,0.8,0.5c0.8,0.1,0.2-0.3,0.3-0.4c0.8-0.7,2.2,0,3.5,0.3l0.6,0.4
		c1,0.1,2.6,0.4,2.9,0.3c1.1-0.3,1.7,0,2.9,0.4c0.8,0.2,1.5,0.6,3.2,0.5c0.5,0,1.1,0,1.8,0.1c0.1-0.2,0.2-0.5,0.3-0.7
		c0.5-0.7,1.6-1.2,3.6-1.5c5.8-1,11.3-3,16.2-5.2c6.5-2.9,11.5-7.2,15.4-12.8c0.5-0.6,0.8-1.3,1.3-1.6c0.1-0.1,0.4-0.3,0.4-0.3
		c0.5-2.5,2.5-4.5,2.9-7c0.1-1,0.1-2.4,1-2.7c0.1,0,0.2-0.5,0.2-0.8c-0.2-2.9,0.7-5.7,0-8.5c-0.1-0.3,0.1-0.8-0.1-1
		c-1-1.4-1.1-3.1-1.8-4.6c-0.8-1.8-1.8-3.5-3.2-4.9c-0.6-0.7-1.3-1.4-1.8-2c-2.1-2.7-5.1-4.7-8.3-6.1c-3.3-1.4-6.7-2.2-10.2-2.8
		c-5.1,0-10.7-0.7-16.4,0.3c-1.2,0.2-2.1-0.3-3.3,0c-2.5,0.5-5.3,0.3-7.8,1.2c-1.8,0.6-3.8,0.3-6,0.8c-1.3,0.3-3,0.5-4.8,0.4
		c-1.6-0.1-3.7,0.3-5.6,0.4c-6.3,0.6-12.6,0.5-18.8,0.5c-3.1,0-6.3,0-9.1,0.6c-2.2,0.5-5.2,0.2-7.2-0.2c-1.7-0.4-3.2-0.4-5-0.3
		c-9.2,0.3-18.1,0.5-26.8,1c-1.1,0.1-2.2,0.1-3.3,0.3c-3,0.6-4.6,0.4-5.9-0.2c-2.9-1.2-3.2-3.1-4.1-4.8c-0.1-0.2,0.1-0.6,0.5-0.8
		c4-1.5,1.3-2.1,0.9-3c-0.3-0.9-0.6-0.8,2.3-1.7c2.1-0.7,4.6-1,6.6-1.8c1.3-0.5,3.8-0.6,5.7-0.8c6.8-0.9,13.7-1.2,20.5-1.5
		c1.6-0.1,3.1,0,4.6,0.1c0.6,0.2,1.5,0.2,2.4,0.2c0.4,0.2,0.8,0.2,1.5,0.1c1.1-0.2,0.2-0.4,0.1-0.6c6.7-0.3,13.4-0.4,20.1-0.4
		c0,0.1-0.5,0.4,0.2,0.4c0.8,0,0.5-0.3,0.4-0.5c1.5,0.5,3.3-0.4,4.9,0c0.3,0.1,1.2-0.1,1.4,0.2c0.1,0.1-0.1,0.5,0.7,0.4
		c0.6-0.1,0.1-0.3,0.2-0.5c0.5-0.8,1.8-0.3,2.9-0.2l0.6,0.2c0.8-0.1,2.2-0.1,2.4-0.2c0.8-0.5,1.4-0.3,2.4-0.2
		c0.7,0.1,1.3,0.3,2.6-0.3c1.2-0.5,4-0.7,6-0.8c2.3-0.2,4.1-0.7,6.2-1.1c0.6,0.5,1.3,0.6,2.3,0c0.5-0.3,0.7-0.5,1.6-0.6
		c3-0.2,5.8-1,8.7-1.2c5.4-0.3,11-0.9,16.6-0.1c0.6,0.1,1.1,0.2,1.7,0.3c1-0.3,1.9-0.1,2.9-0.3c1-0.3,1.1-0.5,1-0.9
		c-0.2-0.5-0.3-1-0.3-1.7c0-0.8,0.5-1.3,1.6-2.1c3.2-2.3,5.4-6.4,6.4-10.3c1.4-5-0.2-10.5-3.7-14.9c-0.4-0.5-0.8-1-0.9-1.5
		c0-0.1-0.1-0.4-0.1-0.4c-2-1-3.3-3.3-5.5-4.4c-0.9-0.4-2.2-0.8-2.2-1.7c0-0.1-0.4-0.4-0.7-0.4c-2.9-0.8-5.3-2.8-8.3-3.7
		c-0.3-0.1-0.7-0.5-1-0.5c-1.8,0-3.5-0.8-5.5-1.3c-2.2-0.6-4.4-1.2-6.6-1.5c-1-0.1-2.1-0.3-3-0.5c-1.8-0.6-3.6-1-5.5-1.4
		c-1.9-0.3-3.8-0.5-5.6-0.6c-3.8-0.5-7.6-0.3-11.4-0.7c-5.3,0.5-10.9-0.3-16.3,0.3c-1.2,0.1-2-0.4-3.1-0.3c-2.4,0.4-4.9,0-7.2,0.7
		c-1.6,0.5-3.5,0.1-5.4,0.5c-1.2,0.2-2.7,0.4-4.2,0.3c-1.4-0.1-3.3,0.3-4.9,0.5c-5.6,0.8-11.2,1.5-16.7,2.3c-2.8,0.4-5.6,1-8.1,2
		c-2,0.8-4.7,1.1-6.6,1c-1.7-0.1-3,0.1-4.6,0.5c-8.4,1.8-16.9,3.2-25.5,4.2c-1.1,0.1-2.2,0.2-3.2,0.5c-2.1,0.5-3.5,0.5-4.6,0.2
		c-0.1,0.3-0.2,0.5-0.4,0.8l4.7-13.3c0,0,0,0,0.1,0c1.1-0.6,3.4-0.7,5.1-1.1c6.1-1.3,12.2-2.5,18.3-3.8c1.5-0.3,2.8-0.5,4.2-0.6l0,0
		c0.6,0.1,1.5-0.1,2.2-0.1c0.4,0.1,0.8,0.1,1.4-0.1c0.9-0.4,0-0.4,0-0.6c6.1-1.3,12.3-2.6,18.6-3.5c0,0.1-0.4,0.4,0.2,0.3
		c0.8-0.1,0.4-0.3,0.3-0.5c1.5,0.3,3.1-0.8,4.6-0.6c0.2,0,1.1-0.3,1.3,0c0.1,0.1-0.1,0.5,0.7,0.3c0.6-0.1,0.1-0.4,0.2-0.5
		c0.5-0.8,1.7-0.5,2.8-0.5l0.6,0.2c0.8-0.1,2.1-0.2,2.4-0.4c0.8-0.6,1.3-0.5,2.3-0.4c0.7,0.1,1.3,0.2,2.6-0.3
		c1.1-0.5,3.9-0.8,5.9-0.8c2.2-0.1,4-0.5,6-0.8c0.5,0.6,1.2,0.7,2.2,0.2c0.5-0.2,0.7-0.5,1.5-0.5c2.8-0.1,5.4-0.6,8.1-0.6
		c4.9-0.1,9.8-0.5,14.6-0.2c3.7,0.4,7.1,0.4,10.6,0.6c0,0.1,0,0.2,0,0.2c0.1,0.2,0.4,0.5,0.8,0.4c0.4,0-0.5-0.2-0.6-0.4
		c0-0.1-0.2-0.2-0.3-0.2c1.3,0.3,2.9,0.2,4.1,0.8c0.7,0.3,1.9,0.3,3,0.3c0.3,0,0.6,0,0.8,0c2.3,0,4.7,0.4,6.8,1.4c2.9,0,6,1,8.9,1.6
		c0.8,0.2,1.6,0.5,2.1,0.9l0.7,0.2c2.6,0.5,5.3,1.6,8,2.1c1.4,0.3,2.9,0.9,3.7,1.9c0.4,0.5,1.2,0.7,1.9,0.9c1.7,0.4,3.4,1.2,5.5,2.4
		c4.3,2.5,8.3,5.8,11.8,10c3.4,4.1,6.2,9.2,7.5,14.6c1,3.7,0.8,7.8,0.4,11.7c-0.2,2.1-1.1,3.4-1.6,3.7c-0.9,0.5-1.7,2.2-2.7,4.6
		c-1.6,3.5-3.4,5.1-4.6,5.1c-0.5,0-1.1,0.5-2,1.9c-0.7,1-1.6,2-2.6,2.8c0.6,0.3,1.2,0.6,1.7,1c0.7,0.7,2,1.2,3.2,1.8
		c2.8,1.2,5.7,3.3,7.5,5.9c2.9,2.2,5.2,5.6,7.3,8.9c0.5,0.8,0.8,1.9,1,2.7l0.4,0.8c1.4,3.1,2.2,6.5,3,9.8c0.3,1.7,0.5,3.7-0.1,4.9
		c-0.3,0.6-0.2,1.6-0.1,2.4c0.3,2,0.1,4.2-0.5,6.8c-2.7,11-9.1,20.2-17.4,27.3c-3,2.5-6.2,4-9.4,6c-0.8,0.5-1.6,0.8-2.2,0.9
		c0.2,0.1,0.4,0.1,0.6,0.2c5.8,2.5,11.8,5,16.8,9c3.8,3.1,7.3,6.1,10.4,9.8c-0.1,0.1-0.1,0.1-0.1,0.2c0,0.2,0.1,0.7,0.5,1
		c0.4,0.4-0.3-0.7-0.2-0.8c0-0.1-0.1-0.3-0.1-0.4c1,1.5,2.5,2.9,3.1,4.7c0.4,0.9,1.3,2.2,2.2,3.5c2,2.8,3.7,6.2,4.1,9.7
		c1.6,3.6,2.2,8.1,2.5,12.3C807,417,806.7,418.2,806.5,419z"/>
	<path class="st2" d="M533.8,433.7c-30.4-28-80.5-81-79.7-87.2c0.8-6.2,84.4,73.2,95.8,83.1C561.2,439.5,551.8,450.3,533.8,433.7z"
		/>
	<path class="st0" d="M467.6,480C467.6,480,467.6,480,467.6,480C467.6,480,467.6,480,467.6,480C467.6,480,467.7,480.1,467.6,480
		C467.6,480.1,467.6,480.1,467.6,480z"/>
	<path class="st0" d="M472.3,467.7C472.3,467.7,472.3,467.7,472.3,467.7C472.3,467.7,472.3,467.7,472.3,467.7
		C472.3,467.8,472.4,467.8,472.3,467.7C472.3,467.8,472.3,467.8,472.3,467.7z"/>
	<line class="st1" x1="384.9" y1="533.9" x2="388.5" y2="524.5"/>
	<line class="st1" x1="391.3" y1="517.1" x2="395.2" y2="506.5"/>
	<g>
		<g>
			<path class="st0" d="M761.8,106.9l-191.9-70c-14.4-5.3-30.1,3.9-34.9,20.3l-27,85.2l-4.3,13.7c0.6,0.4,1.1,0.7,1.6,1.1
				c1.6,1.1,2,2.4,3.1,3.9c0.3,0.4,0.6,0.9,0.9,1.3l0.4,0.8l0.3,0.7c0.6,1,0.8,2.1,1.1,3.2c0.5,2.2,0.7,4.5,0.4,7
				c-0.4,4.8-2.1,9.9-4.3,14.8c-2.7,5.2-6.2,10.3-10.1,15c-1.2,1.4-2.4,2.8-3.7,4.1c-3,3.1-6,6.2-9.1,9.4L465.4,277
				c0.3,1.2,0.7,2.5,1,3.6c1.1,3.6,1.9,6.8,3.1,10.1c0.1,0.3,0.2,0.7,0.3,1.1c0.1,0.4,0.2,0.8,0.1,0.9c-0.5,1.3,0.4,4.4,1,6.7
				c0.8,2.8,0.9,5.9,1.1,8.9c0.1,1.5,0.2,3,0.3,4.5c0.1,1.5,0.2,2.9,0.4,4.3c0,0.1-0.1,0.8-0.1,1.1c-0.2,1.2-0.1,3-0.2,4.7
				c-0.1,5.3-0.6,10.6-1.3,15.9l-13.2,42.6c-3.3,6.7-7.2,13.1-11.8,18.8c-2.6,3.2-4,5.1-4.3,6.5c-0.3,1.1-0.1,1.8,0.2,2.3
				c0.2,0.4,0,0.9-2.2,2.9c-0.9,0.8-5,4.2-9.7,8.3c-4.7,4.1-10.2,8.7-14,12l-3.7,11.7l-7.2,22.9c-4.8,16.5,4.8,32.4,19.2,37.7
				l201.2,66.6c14.4,5.2,30-3.9,34.9-20.3l126.4-397.4C794.1,128.7,776.2,112.1,761.8,106.9z"/>
		</g>
		<g>
			<path class="st2" d="M779.8,148.5l-121,383.1c-3.5,11.9-16.6,22.7-27.3,18.8L436.1,486c-10.7-3.9-23.7-7.5-15.6-34.5l5.7-18.4
				l4-12.8c4.8-4.1,8.8-7.6,9.7-8.3c2.2-2,2.5-2.5,2.2-2.9c-0.3-0.5-0.4-1.2-0.2-2.3c0.3-1.4,1.7-3.3,4.3-6.5
				c4.6-5.8,8.5-12.2,11.8-18.8l13.2-42.6c0.7-5.3,1.2-10.6,1.3-15.9c0.1-1.7-0.1-3.5,0.2-4.7c0.1-0.3,0.1-1,0.1-1.1
				c-0.2-1.4-0.4-2.9-0.4-4.3c-0.1-1.5-0.2-3-0.3-4.5c-0.2-3-0.3-6.1-1.1-8.9c-0.6-2.3-1.4-5.4-1-6.7c0-0.1,0-0.5-0.1-0.9l7.9-25.6
				l9.4-30.3l9.9-32.2c4-4.7,7.4-9.8,10.1-15c2.2-4.9,3.9-10,4.3-14.8c0.3-2.4,0.1-4.7-0.4-7c-0.4-1-0.6-2.2-1.1-3.2l-0.3-0.7
				l5.1-16.4l27.2-87.9c3.5-11.9,15-18.4,25.8-14.5l192,70C770.4,118.4,783.3,136.6,779.8,148.5z"/>
		</g>
		<g>
			<path class="st3" d="M758.3,166.8L651.7,504c-3.1,10.5-14.6,20-24.1,16.6l-172-56.8c-9.4-3.5-20.9-6.6-13.8-30.3l4.9-15.7
				l11.2-36.3l13.2-42.6l14.1-45.8l25.8-83.5l14.1-45.6l23.5-76.1c3.1-10.5,13.2-16.2,22.7-12.8l169.1,61.6
				C750,140.2,761.4,156.3,758.3,166.8z"/>
		</g>
	</g>
	<path class="st0" d="M525.3,164c-0.5-2-1.1-4-2-6c-1.8-4.4-4.9-8.2-8.6-11.2c-2-1.7-4.3-3.1-6.6-4.3c0,0-0.1,0-0.1,0
		c-2-1-2.7-1-3.9-1.3c-2.6-0.5-4.1-0.9-5.2-1.8c-5.1-0.9-9.9-0.7-15.4,0.2c-4.8,0.6-11.2,2.9-13.5,4.3c-2.7,1.6-4.1,2-5.5,2.6
		c-2.1,0.8-3.2,1.2-4.6,2.5c-0.4,0.4-3,1.7-4.6,2.6l-1.1,0.3c-2,1-4.6,1.9-5.3,3.1c-0.1,0.2,1-0.1-0.1,0.6c-1.5,0.9-1.2,0.4-1.4,0.3
		c-0.5-0.1-2.1,1-2.6,1.2c-3.1,1.2-5.9,3.8-8.9,4.9c0.2,0.1,1,0-0.5,0.8c-1.2,0.7-0.4-0.1-0.4-0.2c-12.1,6.7-23.9,13.5-35.5,20.5
		c0.1,0.1,1.9-0.6,0.1,0.6c-1.2,0.8-2,1.2-2.7,1.4c-1.5,0.8-3.1,1.7-4.3,2.1c-2.7,1.4-5.3,2.8-8.1,4.4c-9.1,5.3-18.2,10.6-27.3,15.8
		l-0.4-1.2c-8.2,3-17.6,9.6-27.9,18.3c-0.2,0.1-0.4,0.2-0.6,0.4c-4.9,3.2-4.6,2.9-3.9,3.5c-9.4,8.3-19.5,18.1-30.3,28.6l-1,1
		c-30.8,30-50.3,60.4-55.8,77.2c-3.8,11.6-6.1,21.4-8.1,30.1c-4,17.5-6.7,29-18.2,39.5c-8.7,7.9-20,13-33.7,15.4l1.8,10.8
		c15.8-2.7,29-8.8,39.2-18.1c14.2-12.9,17.4-27.1,21.6-45.2c1.9-8.5,4.1-18.1,7.8-29.1c5.1-15.5,23.5-44.1,53-72.8l1-1
		c11.9-11.5,22.9-22.3,32.8-30.8c1.9-0.8,4.3-2,7.4-3.8c2-1.2,4.1-2.2,6.1-3.4c16.5-8.7,32.9-17.8,49.2-27.3c3.1-1.8,5.8-3.3,9-4.7
		c3.8-1.6,9.2-4.3,12.9-7c4.7-3.4,10.3-6.6,15.7-9.6c10.8-6,21.7-12.1,32.5-18.1c3.1-1.7,6.5-3.5,9.2-4.3c2.9-0.9,5.7-1.8,7.8-2.4
		c3.6-1,6.6-0.5,9.6-0.5c3.5,0,6.9,1.5,9.6,3.3c0.6,0.4,1.1,0.7,1.6,1.1c1.6,1.1,2,2.4,3.1,3.9c0.3,0.4,0.6,0.9,0.9,1.3l0.4,0.8
		l0.3,0.7c0.6,1,0.8,2.1,1.1,3.2c0.5,2.2,0.7,4.5,0.4,7c-0.4,4.8-2.1,9.9-4.3,14.8c-2.7,5.2-6.2,10.3-10.1,15
		c-1.2,1.4-2.4,2.8-3.7,4.1c-3,3.1-6,6.2-9.1,9.4c-3.1,3.2-6.1,6.5-9.1,10.1c-1.5,1.7-3.1,4.1-4.4,6.3c-2.9,5-5.6,10.3-7.1,16.3
		c-1.4,5.2-1.9,10.8-0.7,15.7c0.2,1,0.2,2.3,0.4,3.2c0.6,2.8,1.3,5.5,2,8c0.3,1.2,0.7,2.5,1,3.6c1.1,3.6,1.9,6.8,3.1,10.1
		c0.1,0.3,0.2,0.7,0.3,1.1c0.1,0.4,0.2,0.8,0.1,0.9c-0.5,1.3,0.4,4.4,1,6.7c0.8,2.8,0.9,5.9,1.1,8.9c0.1,1.5,0.2,3,0.3,4.5
		c0.1,1.5,0.2,2.9,0.4,4.3c0,0.1-0.1,0.8-0.1,1.1c-0.2,1.2-0.1,3-0.2,4.7c-0.1,5.3-0.6,10.6-1.3,15.9c-1.4,10.2-3.9,20.3-7.6,29.9
		c-1.7,4.3-3.5,8.5-5.5,12.7c-3.3,6.7-7.2,13.1-11.8,18.8c-2.6,3.2-4,5.1-4.3,6.5c-0.3,1.1-0.1,1.8,0.2,2.3c0.2,0.4,0,0.9-2.2,2.9
		c-0.9,0.8-5,4.2-9.7,8.3c-4.7,4.1-10.2,8.7-14,12c-2.4,2-4.1,3.6-4.8,4.2c-3,3-0.8,2-1.4,3.2c-1.9,3.7-0.4,4.5,2.4,4.3
		c0.5,0,7.2-5.5,13.7-10.9c5.8-4.8,11.5-9.6,12.6-10.5c4.9-4.2,5.6-4.5,6.6-4.4c0.3,0,0.8-0.1,1.5-0.5c0.2-0.1,0.4-0.2,0.6-0.4
		c1-0.7,2.3-1.9,3.9-3.9c3.7-4.3,7.1-8.9,10-13.6c1.5-2.8,2.4-4.1,3.1-4.3c0.8-0.3,1.8-1.3,3.1-3c1.2-1.8,2.5-4.3,4.1-7.5
		c2.1-4.3,3.5-7.6,4.7-8.4c0.8-0.5,2.2-2.8,3.2-6.3c1-3.4,2.2-6.5,3.1-9.8c0.9-3.3,2-6.5,2.5-9.9l1.3-7.3l0.9-7.4
		c0.3-2.5,0.5-4.9,0.6-7.4c0.1-2.5,0.3-5,0.3-7.4c0-9.3-0.8-18.7-2.6-28c-0.1-0.6-0.2-1.1-0.3-1.7c-1-4.7-2.2-8.4-3.5-11.7
		c-0.5-1.3-1.1-2.7-1.2-3.8c-0.2-2.1-1.1-5-1.9-7.3c-0.3-0.8-0.5-1.6-0.7-2.3c-0.9-3.6-0.9-7.2-0.4-10.8l0.2-1.2
		c0.3-0.9,1-2.2,1.3-3.5c1.5-4.9,4.7-9.7,7.7-14.3v0c0.2-0.2,0.3-0.3,0.5-0.5c3.3-3.3,6.5-7.2,9.6-11c1.5-1.8,3.1-3.6,4.3-4.5
		c1.1-0.8,2.2-1.8,3.2-3c1.1-1.2,2.2-2.3,3.2-3.5h0c-0.2,0.2-0.5,0.4-0.6,0.4c-0.2,0-1.7,1.5-1.1,0.8c0.5-0.7,1.2-1.1,1.5-1.2
		c0.1,0,0.2,0,0.2,0.1c1.3-1.5,2.5-3,3.6-4.5c3.6-4.8,6.9-9.9,9.9-15.8l4.7-13.3c-0.1,0-0.2,0.1-0.3,0.1c0.1-0.6,0.2-1.1,0.3-1.7
		c0.1-0.7,0.2-1.3,0.3-2C526.5,172.8,526.3,168.4,525.3,164z"/>
	<path class="st3" d="M-3.7,504.4c0,0,137.4-99.7,178.1-119.1s54.7-14,86.7,30s192.6,154.7,227,173.3s-56.4,66-115,142.7H-3.7V504.4
		z"/>
	<path class="st2" d="M214.9,423.8c-14,10-28.1,20-42.1,30l-42.2,29.7l-21.1,15c-7,5-14.1,9.8-21.4,14.5l-10.9,7
		c-3.7,2.3-7.3,4.6-11,6.8c-7.4,4.5-14.8,8.9-22.4,13c-0.2,0.1-0.5,0-0.4-0.1c3.1-2.5-47.8,20.5-42.1,17.9
		c7.9-3.6,55.6-29.1,62.5-34.3c3.4-2.6,6.9-5.1,10.4-7.7l10.5-7.5c7-5,14.2-9.8,21.4-14.5l21.7-14l43.3-28.2
		c14.5-9.3,28.9-18.7,43.4-28c0.1-0.1,0.3,0,0.4,0.1C215,423.5,215,423.7,214.9,423.8z"/>
	<path class="st2" d="M329.3,531.6c-6.1,6.7-12.7,12.8-19.4,18.9c-3.3,3-6.7,6-10.1,9s-6.9,5.8-10.5,8.6
		c-7.1,5.5-14.6,10.5-21.7,16.2s-13.7,11.6-20.2,17.8c-3.3,3.1-6.5,6.2-9.9,9.3s-6.7,6-10.1,9c-6.8,6-13.5,11.9-20.4,17.7
		c-3.5,2.8-7,5.7-10.5,8.5l-5.3,4.2l-62.1,61.7c-7.2,5.4-14.3,4-21.8,9c-0.1,0.1,56.2-50.8,56.1-50.9c-0.1-0.1-0.1-0.3,0-0.4
		c6.2-6.6,12.8-12.8,19.4-19l5-4.6l5-4.5c3.3-3,6.7-6,10.1-8.9c6.8-5.9,13.9-11.5,20.9-17.1c3.5-2.8,7-5.6,10.6-8.4
		s7.2-5.4,10.8-8.1c7.2-5.4,14.3-10.9,21.1-16.9s13-12.5,19.7-18.5c3.3-3.1,6.7-6,10.2-8.8c3.5-2.9,7-5.7,10.5-8.4
		c7.1-5.5,14.4-10.9,22-15.8c0.1-0.1,0.3,0,0.4,0.1l0,0C329.4,531.3,329.4,531.5,329.3,531.6z"/>
	<path class="st2" d="M270.2,474c-13.6,10.7-27.4,20.9-41.4,30.9c-7,5.1-14.1,9.9-21.1,14.9l-21.3,14.6c-14.2,9.7-93.5,76.8-108,86
		s-52,37.4-67,46c13.5-10.7,115.3-97.5,129.3-107.5s28.1-19.9,42.4-29.5l21.4-14.3c7.2-4.7,14.4-9.5,21.7-14.1
		C240.6,491.7,255.2,482.6,270.2,474z"/>
	<path class="st2" d="M389.5,584.3c-12.7,13.4-25.9,26.4-39.1,39.2c-6.6,6.5-13.3,12.8-20,19.1l-20.2,18.9
		c-13.6,12.5-27.3,24.9-41.1,37c-13.9,12.2-18.6,16.6-33,28.2c12.7-13.4,16.6-18.8,29.8-31.7c13.3-12.8,26.7-25.5,40.2-38l20.5-18.6
		c6.9-6.1,13.7-12.3,20.7-18.4C361.1,607.9,375.1,595.9,389.5,584.3z"/>
	<g id="BNuLAg_1_">
		<path class="st2" d="M546.7,367.3l4-13l-22.4-8.5l7.8-25.6l-11.5-4.3l-8.5,28.3c-0.1,5.4,2.1,10.6,5.9,13.8L546.7,367.3z"/>
		<path class="st2" d="M661.7,237.7l-4,13l22.4,8.5l-7.8,25.6l11.3,4.3l8.5-28.3c0.1-5.4-2.1-10.6-5.9-13.8L661.7,237.7z"/>
		<path class="st2" d="M548.1,238.1l11.3,4.3l7.8-25.6l22.4,8.5l4-13l-24.8-9.3c-4.8-0.1-9.3,2.5-12.2,6.9L548.1,238.1z"/>
		<path class="st2" d="M614.8,392.8l24.8,9.3c1.5,0,3-0.2,4.4-0.7c2.9-0.9,5.5-2.9,7.5-5.7c-1-2.2-1.6-4.4-2.3-6.6l-0.8-2.8
			l-0.7-2.8c-0.4-1.9-0.7-3.9-0.8-5.5c-0.1-1.7,0.1-3,0.5-4.1c0.4-1.1,1.2-2.4,2.3-3.7c1.1-1.2,2-2.2,2.8-3.2
			c0.4-0.4,0.7-0.7,1.1-0.8c0.6-0.1,1.3-0.5,1.9-1l-6.6-2.5l-7.8,25.7l-1.7-0.6l-20.7-7.8L614.8,392.8z"/>
		<path class="st2" d="M664.7,267.9l-33.4-12.6l-11.6,38.3l33.4,12.6L664.7,267.9z M634.9,285l3.8-12.5l11.1,4.1l-3.8,12.7
			L634.9,285z"/>
		<path class="st2" d="M596.8,285.1l11.6-38.3l-33.5-12.6l-11.6,38.3L596.8,285.1z M593.2,255.2l-3.9,12.7l-11.1-4.1L582,251
			L593.2,255.2z"/>
		<path class="st2" d="M633.6,370.8l11.6-38.3l-33.5-12.6l-11.6,38.3L633.6,370.8z M619,337.2l11.1,4.1l-3.8,12.7l-11.1-4.1
			L619,337.2z"/>
		<path class="st2" d="M569.8,333l16.8,6.4l-3.8,12.5l11.2,4.2l7.7-25.5l-16.6-6.2l1.7-6.8l-11.6-3.7l0.2-0.1l-5.6,19.3L569.8,333z"
			/>
		<path class="st2" d="M593.1,319.6l11,4.1l3.8-12.4l11.1,4.1l3.9-13.1l-22.1-8.2L593.1,319.6z"/>
		<path class="st2" d="M602.6,287.4l10.8,4.1l7.7-25.5l-10.8-4.1L602.6,287.4z"/>
		<path class="st2" d="M558,328.8l5.9-19.4l-10.7-4.1l-5.9,19.2L558,328.8L558,328.8z"/>
		<path class="st2" d="M579.5,300.5l11.2,4.2l3.8-12.7l-11.1-4.1l-3.8,12.8L579.5,300.5z"/>
		<path class="st2" d="M568,296.3l-3.7,12.2l11.2,5.2l-0.2,0.1c1.4-4.5,2.8-8.9,4.3-13.4l0.1,0.2L568,296.3L568,296.3z"/>
		<path class="st2" d="M567.9,296.4l4-13.1l-10.7-4.1l-4,13l10.8,4.1L567.9,296.4z"/>
		<path class="st2" d="M647.4,325.8l3.8-12.5l-10.8-4.1l-3.8,12.5L647.4,325.8z"/>
		<path class="st2" d="M558.2,328.7l-3.8,12.4l11.6,4.4c1.2-4.3,2.6-8.3,3.8-12.5l0.1,0.2L558.2,328.7L558.2,328.7z"/>
	</g>
	<path class="st0" d="M598.3,81.5c1.7,0.2,3.4,0,4.9-0.7c0.6-0.3,1.2-0.6,1.8-1.1c2.3-1.7,3.9-4.5,4.3-7.8
		c0.8-6.1-2.9-11.6-8.3-12.4c-1.8-0.3-3.5,0-5,0.8c-0.6,0.3-1.2,0.6-1.7,1c-0.2,0.2-0.4,0.3-0.5,0.5c-2,1.7-3.4,4.3-3.8,7.3
		C589.2,75.2,592.9,80.7,598.3,81.5z"/>
	<path class="st0" d="M692.8,112.4c19.8,7.5,27.7,8.9,31.2,7.2c0.3-0.2,0.6-0.4,0.8-0.6c1.9-1.6,1.9-4.7,2.6-8.2
		c0,0-8.2-7.2-26-12.6c-16.6-5.1-55.7-22.3-65.3-16.8c-0.2,0.1-0.4,0.3-0.6,0.4c-0.4,0.4-0.8,0.8-1,1.2
		C629.2,92.6,657.6,99,692.8,112.4z"/>
	<path class="st2" d="M593.3,484.1c-36-12-98-38.2-99.8-44.3s98.1,29.1,111.4,33.1C618.1,476.8,614.7,491.2,593.3,484.1z"/>
</g>
<path class="st0" d="M347.8,60.9L347.8,60.9L347.8,60.9C347.8,60.9,347.8,60.9,347.8,60.9L347.8,60.9z M422.6,115.7
	c-1.6-8.8-5.3-17.3-10.4-24.6C402,76.5,386.3,66.2,369,62.3l-3.4-0.7c-1.1-0.2-2.3-0.3-3.4-0.5c-2.3-0.4-4.6-0.4-6.9-0.5l-1.7-0.1
	l-1.8,0.1l-3.5,0.2l-0.4,0c0,0,0,0,0,0s0,0,0,0l0,0l0,0v0l0,0l-0.2-0.7c-0.7-2.3-1.6-4.6-2.7-6.7c-2.1-4.3-4.9-8.3-8.2-11.8
	c-6.5-6.9-15-12.2-24.5-14.4c-5-1.1-9-1.1-12.1-0.9c-3,0.3-5.1,0.9-6.5,1.5c-2.4,0.9-3,1.7-3.4,2.2c-0.2,0.5-1.4,0.6-7.5,3.3
	c-3.1,1.5-6,3.1-8.7,5.2c-1.1,0.8-2.2,1.7-3.2,2.7c-3.7-1.3-8.4-2.6-14.7-4c-4.6-0.9-9.2-1.8-13.9-2.4c-4.7-0.6-9.4-1.1-14.1-1.3
	c-2.4-0.2-4.7-0.2-7.1-0.3h-3.5l-1.8,0l-2.8,0.1l-6,0.3c-0.1,0-0.3,0-0.4,0l-0.2,0.4l-0.3,0.7l-0.6,1.5l-1.3,3
	c-0.2,0.5-0.4,1-0.6,1.5l-0.4,1.2c-0.2,0.6-0.4,1.2-0.6,1.8c-0.4,1.2-0.8,2.4-1,3.7c-1.2,4.9-1.8,10-1.8,15.1c0,5.1,0.7,10.1,2,15.1
	c0.6,2.5,1.5,4.9,2.4,7.3c0.5,1.2,1,2.4,1.6,3.5l0.3,0.7l0.1,0.1c0.1,0.2,0.1,0.4-0.1,0.5c-0.1,0.1-0.4,0.1-0.5,0.1
	c-0.1,0-0.1,0-0.2,0c-0.3-0.1-0.8-0.3-1.2-0.5c-0.8-0.4-1.7-0.8-2.6-1.3l-1.3-0.8l-1.7-1c-1.2-0.6-2.3-1.3-3.6-1.8
	c-7.5-3.2-14.5-4.2-22.2-4.1c-4.4,0.1-10,0.8-15.2,2.4c-5.3,1.6-10.5,3.9-14.7,6.2c-5.2,3-10.5,6.4-15.6,10.3
	c-5,3.9-10.1,8.2-14.3,13.8c-2.6,3.5-4.9,7.6-6.1,12.2c-0.3,1.1-0.5,2.3-0.7,3.5c-0.1,1.2-0.3,2.6-0.2,3.9c0,2.6,0.7,5.1,1.5,7.4
	c0.5,1.5,1.2,2.8,2,4.2c-2.4,0.3-4.7,0.8-7.1,1.3c-3.8,0.9-7.8,2.1-11.5,3.8c-3.7,1.6-7.2,3.6-10.1,5.6c-3.2,2.2-5.9,5-8.2,7.8
	c-2.3,2.8-3.9,5.9-5.1,8.6c-2,4.5-3.2,9.1-3.6,13.8c-0.4,4.7,0.3,9.5,2.2,13.9c0.8,1.4,1.4,3,2.4,4.3c0.5,0.7,0.9,1.4,1.4,2l1.6,1.9
	c2.2,2.4,4.8,4.5,7.5,6.1c2.8,1.6,5.7,2.8,8.5,3.7c2.9,0.9,5.8,1.5,8.6,1.8c5.6,0.6,9.2,1.3,14.5,1.3c24-0.2,48.5,0.5,72.1,0
	c16.8,0.1,33.6,0,50.5,0c8.5-0.1,17.2-0.3,26-1.6c8.8-1.2,17.5-3.4,25.9-7.5c4.1-2,8.9-5.3,12.5-8.6c4.2-3.8,7.8-8.3,10.7-13.3
	c0.8-1.2,1.4-2.6,2-3.9c0.5-1,1.1-2.7,1.1-2.9c0.1-0.2,0.1-0.5,0.2-0.7l0-0.1c0-0.1,0-0.1,0.1,0l0.1,0.1l0.2,0.3l0.2,0.2l0.1,0.1
	l0,0l0.3,0.2c3.6,2.7,7.3,5.1,11.2,6.8c1.6,0.7,3.8,2,5.4,2.5c0.7,0.3,1.5,0.6,2.2,0.8c4.5-3.6,8.8-6.7,12.9-9.2
	c-1.8-0.4-3.7-0.8-5.5-1.3c-2.3-0.5-4.5-1.5-6.8-2.3c-2.2-1.1-4.4-2-6.5-3.3c-1-0.6-2.1-1.2-3.1-2l-1.5-1.1l-0.7-0.5
	c-0.3-0.2-0.3-0.2-1.2-1c-4-4-8.1-7.9-11.7-11.9l-4.1-4.4c-0.2-0.2-0.4-0.4-0.7-0.7c-0.2,2.4-0.5,5.3-0.8,9.1
	c-0.1,0.9-0.1,1.9-0.2,2.8l-0.1,1.4l-0.2,1.3c-0.2,1.7-0.4,3.5-0.6,5.1c-0.1,0.9-0.3,1.6-0.5,2.3l-0.6,1.7c-0.2,0.6-0.4,1.2-0.7,1.8
	c-0.3,0.6-0.5,1.2-0.8,1.7l-1,1.7c-1.4,2.2-2.9,4.4-4.8,6.4c-3.6,4-8,7.3-12.6,9.9l0,0c-8.2,3.8-18.2,6.2-27.9,7.3
	c-4.4,0.6-9,0.8-11.9,0.7c-5.2-0.2-11.4,0-16.9-0.1c0,0,0,0,0,0c0.4,0.1,1.1,0.1,1.2,0.2c0.2,0.1,4,0.2,2.5,0.3
	c-1.5,0.1-3-0.1-3.4-0.2c-0.2-0.1-0.2-0.1-0.2-0.2c-14.5,0.1-28.4,0.2-43.6,0c-19.7-0.2-39.6,0.2-59.9,0c-5.6-0.1-11,0.1-16.2-0.2
	c-5.2-0.3-10.4-1-14.9-2.9c-2.8-1.2-3.4-1.5-4.9-2.2c-3-1.6-4.2-3.4-4.7-4.9c-3.6-4.9-4.5-11.4-2-18.9c1.1-3.2,3.2-7,5.7-9.9
	c2.5-3,5.2-5,7-6.3c4.1-2.9,6.5-3.5,8.8-4.2c3.6-1,5.6-1.4,8.7-2.4c0.9-0.3,6-1.1,9.4-1.3l2.1,0.1c1.2,0,2.5,0,3.7,0
	c0.5,0.2,1.1,0.3,1.7,0.4c2.8,0.5,5.9,0.3,8.6-0.5l35-10.8l-36.7-0.6c-2.2,0-4.5,0-6.7,0c-1.5-0.9-3.2-2.4-4.4-4.2
	c-1.5-2-2.2-4.5-2.2-6.5c-0.1,0.2-0.3,1.1-0.4-1.1c0.1-1.7,0.2-0.4,0.3-0.3c0.4-4.9,3.3-10,7.4-14.3c4.1-4.4,9.2-8.3,14.5-11.9
	c10.5-7,22.3-12.3,34.3-13.1c-0.1-0.2-3.4-0.2,0.3-0.5c2.5-0.3,4,0,5.4,0.2c1.4,0.1,2.9,0.5,4.3,0.7c1.4,0.3,2.7,0.8,3.7,1.1
	c1.2,0.4,2.3,1,3.4,1.4c1.1,0.6,2.2,1.2,3.3,1.9c1.3,0.8,2.8,1.7,4.4,2.5c0.8,0.4,1.6,0.8,2.5,1.1c0.4,0.1,1.1,0.4,1.7,0.6
	c0.7,0.2,1.3,0.4,2,0.5c2.8,0.6,5.7,0.5,8-0.6c1.1-0.6,2.3-1.3,3.1-2.4c0.5-0.5,0.7-1.1,1.1-1.7c0.4-0.5,0.6-1.2,0.8-1.8
	c0.8-2.5,0.5-5.3-0.6-8c-0.3-0.7-0.5-1.4-0.9-2l-0.6-1.3l-0.9-2c-2.3-5.5-3.7-11.5-3.8-17.6c-0.2-6,0.7-12.2,2.6-17.9l0.4-1.1
	l0.2-0.6c0.5-0.1,1.2-0.1,1.8-0.2l4.6-0.1l4.8,0c7.3,0.1,16.5,1.4,21.5,1.9c5.4,0.6,11.8,1.8,17.8,3.4c-0.3,0.6-0.6,1.1-0.8,1.5
	c-0.4,0.8-0.4,1.2-0.4,1.3c0.1,0.3,0.6-0.1,0.2,1.2c-0.7,2-0.9,3.5-1,4.5s0.1,1.5,0.4,1.6c0.6,0.2,1.8-1,3.3-2.7
	c0.8-0.8,2.1-2.9,4.3-5.6c0.2,0.1,0.5,0.1,0.8,0.2c2.7,0.8,4.7,1.5,6.1,1.9c1.4,0.5,2.3,0.7,2.8,0.9c1.1,0.3,0.7,0,0.6-0.5
	c-0.1-0.5-2.5-1.8-2.9-2.4c-0.4-0.5,1.3-0.5,9.1,2.4c1.8,0.7,2.8,0.8,2.7,0.6c-0.6-1.1-0.7-2-1.8-3.3c-1.1-1.3-3.2-3.1-8.1-5.7
	c-0.8-0.4-1.6-0.8-2.5-1.2c1.8-1.4,3.3-2.2,4.3-2.8c1.7-0.8,2.4-0.8,3-0.9c0.5,0,1.6-0.3,3.6-1c2-0.6,4.9-1.7,9.2-2.4
	c4.8-0.8,9.7-0.5,14.4,0.8c4.7,1.2,9,3.6,12.8,6.3c1.1,0.8,2,1.6,2.8,2.3c0.8,0.7,1.4,1.4,1.9,1.9c1,1.1,1.5,1.9,1.6,2.4
	c0.4,1.1,1.5,3,3,5.9c0.2,0.4,0.4,0.7,0.6,1.1c0.2,0.4,0.3,0.8,0.5,1.3c0.2,0.4,0.4,0.9,0.6,1.4c0.2,0.5,0.3,1,0.5,1.5
	c0.2,0.5,0.4,1,0.5,1.6c0.1,0.4,0.5,1.6,0.7,2.8c0.4,2.4,0.9,5,1.4,7.7c0.9-0.1,2-0.3,3.1-0.5c1.9-0.3,3.8-0.6,5.6-0.9l0.7-0.1
	l0.5-0.1c0.3,0,0.2,0,0.3,0l0.7,0c0.5,0,0.9,0,1.4-0.1c0.9,0,1.7-0.1,2.5-0.1c0.8,0,1.5,0.1,2.2,0.1c2.8,0.1,4.8,0.7,5.8,1.1
	c0.6,0.3,2,0.6,4,1.2c1,0.3,2.1,0.5,3.3,0.9c1.2,0.4,2.6,0.8,4,1.2c11.2,3.8,20.4,10.8,27.5,19.8c5,6.5,8.4,14.1,9.9,22.1
	c1.3,8.1,0.9,16.5-1.2,24.5c-0.6,2.1-1.3,4.1-2,6.2c5.2-3.1,10.5-6.1,15.8-9.1C424.1,132.2,424.2,123.8,422.6,115.7z M273,203.3
	c1.8-0.8,4-1.7,6.2-2.9c-0.9,0.5-1.6,0.9-2.4,1.3c-0.8,0.4-1.6,0.9-3,1.4C272.6,203.5,272.3,203.6,273,203.3z M120.5,154.2
	c0.1,0.1,0.2,0.1,0.4,0.1c-1.1,0.1-2.8,0.2-4.4,0.3C117,154.5,117.8,154.3,120.5,154.2z"/>
<path class="st1" d="M1014.3,355.5c-2.1,0.2-2.7,0.4-3.1,0.6c1.5-0.2,3-0.3,3.6-0.6C1014.8,355.5,1014.5,355.5,1014.3,355.5z"/>
<polygon class="st4" points="1012.6,356.2 1012.5,356.2 1012.5,356.2 "/>
<polygon class="st4" points="1051.3,301.5 1051.2,301.5 1051.1,301.5 "/>
<path class="st0" d="M1029.2,343.7c-0.2,0-0.4-0.1-0.6-0.1l-2-0.1c-1-0.1-2-0.1-3-0.1c-4-0.1-8.1,0.2-12.1,0.7
	c-4,0.5-8,1.3-11.9,2.3c-5.5,1.4-11.5,3.8-15.9,5.8c-4.8,2.1-9.5,5-12.8,7.9c-5.4,4.7-10.3,10.2-11.8,17.6c-0.6,2.9-0.7,5.9-0.4,8.9
	c-1-0.2-2-0.4-2.9-0.6c-5-0.5-10.1-0.7-15,0c-9.8,1.2-19.1,4.4-27.2,8.9c-5.9,2.9-11.5,6.5-16.7,10.4c-1.3,1-2.6,2-3.9,3.1l-3.7,3.2
	c-2.4,2.2-4.9,4.6-7.2,7.5c-2.3,2.9-4.4,6.6-5.2,10.9c-0.9,4.1-0.4,8.7,1,12.5c1.4,3.9,3.6,7.1,6.1,9.9c2.5,2.8,5.2,5.1,8.1,7.1
	c2.8,2,6.7,4,10.2,5.3c7.6,2.8,15.2,4.8,22.9,6.3c6.7,1.2,13.5,2.3,19.8,2.1c1.2,0,3,0.3,4.1,0.3c11,0.3,22,0.7,32.7-0.3
	c1-0.1,2.8-0.2,3.1-0.1c1.8,0.6,6.7,0.1,10.3-0.2c4.5-0.3,9.1-0.3,13.6-0.3c4.5,0.1,8.7,0.3,12.7,0.4c0,0,1,0.2,1.4,0.3
	c1.6,0.5,4,0.9,6.2,1.5c4.9,1.3,9.9,3.8,15.2,6.5c2.7,1.3,5.5,2.7,8.5,4c3,1.1,6,2.4,9.1,3.2c12.3,3.8,25.1,4.9,37.6,4.6
	c19.3-0.6,38-5,56-9.1c6.2-1.4,10.1-2.7,11.8-3.9c1.5-1,1.9-1.7,2.1-2.2c0.1-0.4,0.9-0.7,5.4-2.7c2.3-1.1,4.6-2.1,6.8-3.6
	c2.2-1.5,4.5-3.4,6.5-6.6c0.5-0.9,0.9-1.7,1.2-2.3c0.2-0.6,0.4-1.2,0.5-1.5c0.2-0.8,0.2-1.1,0.1-1.2c-0.2-0.2-0.6,0.2-0.5-1
	c0-0.9,0.1-1.7,0-2.3c-0.1-0.6-0.2-1.1-0.4-1.5c-0.3-0.8-0.6-1.1-1-1.1c-0.7,0-1.5,1.2-2.5,2.6c-0.7,0.9-1.6,3.4-4.2,6.4
	c-2.9,3.1-5.2,4.1-6.5,4.7c-1.3,0.5-1.9,0.4-2.4,0.4c-0.9-0.2-3.2,0.7-9.6,2.8c-3.5,1.1-7.4,2-11.3,2.9c-3.8,0.9-7.6,1.8-11.2,2.8
	c-4.3,1.1-6.5,1.4-7.2,1.2c-2-0.6-7.7,0.3-17.3,1.7c-6.4,0.9-11.2,1-12.9,0.4c-0.5-0.2-1.7-0.3-3.2-0.4c-1.6-0.1-3.6-0.2-6-0.1
	c-9.1,0.1-17.6-1.3-26-3.5l-4.5-1.3l-4.4-1.7c-2.9-1.1-5.8-2.6-8.8-4c-3-1.5-6.2-3.1-9.6-4.5c-3.4-1.4-7.2-2.7-10.9-3.5
	c-7.5-1.6-14.8-1.9-21.8-1.9c-7,0.1-13.8,0.3-20.6,0.6c-6.6,0.3-11.8,0.5-16.5,1l0.2,0c-2,0.1-4.2,0.3-5.7,0.1
	c-2.9-0.4-7.4-0.4-11.3-0.3c-7.6,0.2-15.4-0.5-22.9-1.5c-0.7-0.1-1.4-0.2-2.1-0.3c-1.6-0.5-4-1-6.2-1.5c-2.1-0.4-4.2-0.9-6.2-1.5
	l-3.1-0.9l-3-1.1c-1-0.4-2.1-0.7-3-1.1c-0.9-0.4-1.8-0.7-2.7-1.1c-1.8-0.8-3.5-1.7-5.1-2.6l0,0c-5.1-4-9.7-9-10.3-13.3
	c-0.4-2,0.1-4.1,0.9-5.3c1.4-2.1,3.7-5.1,6.5-7.6c-0.3,0.2-0.6,0.4-0.7,0.4c-0.2,0-2.1,1.7-1.4,0.9c0.6-0.7,1.5-1.3,1.8-1.4
	c0.1,0,0.2,0,0.2,0c3.7-3.4,7.4-6.6,11.6-9.4c4.1-2.9,8.5-5.4,13.2-7.6c6.2-2.8,12.5-5.1,19.1-6.2c6.5-1.1,13.1-1.1,19.2,0.8
	c1,0.3,2,0.7,3,1c0.9,0.4,1.9,0.9,2.8,1.3l1.2,0.5c1,0.9,2.2,1.7,3.4,2.3c0.9,0.4,1.7,0.8,2.5,1.1l5.9-10.8
	c-1.8-1.2-3.3-2.5-5.1-3.7c-0.2-0.3-0.5-0.7-0.7-1c-0.8-1.6-1-2-1.5-2.9c-0.9-2.1-0.8-3.6-0.2-4.6c0.1-2.2,0.5-4,1.6-6.1
	c1-2.1,2.5-4.1,4.6-6c1.8-1.7,4.4-3.6,7-5.2c2.6-1.6,5.1-2.8,6.6-3.7c3.4-1.9,5.3-2.3,7.1-2.8c2.7-0.7,4.3-0.9,6.5-1.9
	c0.6-0.3,4.4-1,6.8-1.4l1.5,0c3-0.3,6.6,0,8.2-0.7c0.3-0.1-1.2-0.3,0.6-0.4c2.3,0,1.6,0.2,1.9,0.4c0.6,0.2,3.1,0.2,3.8,0.3l0.8,0.1
	c0.7,0,1.2,0.1,1.8,0.2c1.2,0.2,2.3,0.3,3.5,0.5c1.2,0.2,2.3,0.2,3.6,0.5l3.8,0.8c5,1,10.2,2.1,14.9,3.5c-0.7-0.3-3.2-1.1,1.5,0
	c0.8,0.2,1.3,0.3,1.5,0.3c0.2,0.1,0.3,0.1,0.3,0.2c0,0.1-0.3,0.1-0.2,0.2c1.2,0.2,2.4,0.4,3.6,0.6c-4.7-4.8-10.8-10.8-15-15.4
	l-3-3.4c-0.6-0.6-0.7-1-1.1-1.6l-0.8-1.5l-0.8-1.5l-0.4-0.7c-0.3-0.5-0.2-0.6-0.3-0.7l-0.5-1.4c-1.4-3.7-1.9-7.8-1.8-11.7
	c0.1-4,1.1-7.9,2.8-11.3c1.8-3.4,4.1-6.8,7.2-9.2c-0.2-0.1-2,1.3-0.2-0.6c0.6-0.7,1.2-1,1.7-1.3c0.5-0.3,1-0.6,1.4-0.8
	c0.8-0.6,1.9-1,2.8-1.5c0.5-0.2,0.9-0.4,1.4-0.6c0.5-0.1,0.9-0.3,1.3-0.3l-0.1,0c3.5-1.3,7.3-1.9,11.4-2.4c5.2-0.4,10.5,0,15.6,1.1
	l3.8,1l3.8,1.3l6.1,2.8l6.8,3.5c1-3.5,1.9-6.9,3-10.4c0.3-0.9,0.6-1.6,0.9-2.4l0.5-1.4l1.2-2.5c0.7-1.7,1.7-3.2,2.6-4.8
	c1-1.5,2-3.1,3.1-4.5c3-4.1,8-8.2,10.7-10.3c4-3.3,10.1-6,15.6-6.9c1.9-0.2,3.3-0.6,4.3-0.6c1,0,1.7-0.1,2-0.1
	c0.8-0.1,0.5-0.3,0.3-0.7c-0.2-0.4-2.1-0.9-2.5-1.3c-0.2-0.2,0-0.4,0.9-0.6c1-0.2,2.8-0.5,5.9-0.2c1.4,0.1,2.2-0.1,2.1-0.3
	c-0.6-0.9-0.8-1.8-1.8-2.8c-0.5-0.5-1.3-1-2.4-1.5c-1.2-0.5-2.8-0.9-5-1.3c-1.1-0.2-2.2-0.2-3.5-0.2c-0.6,0-1.3,0-2,0
	c-0.7,0.1-1.5,0.2-2.3,0.3c-0.8,0.1-1.7,0.3-2.6,0.5c-0.9,0.2-1.8,0.5-2.8,0.8c-1,0.3-2.1,0.6-3.2,1.1c-1.1,0.5-2.2,1-3.4,1.6
	c-1.7,0.9-3.3,1.9-4.9,2.8c-1.5,1.1-3.2,2.1-4.7,3.3c-5.3,4.2-9.8,9.2-13.5,14.9c-0.9,1.4-1.7,2.9-2.5,4.3l-2.2,4.5l-0.6,1.5
	l-0.1,0.2l-0.1,0.3l-0.2-0.1l-0.1-0.1l-0.4-0.2l-0.9-0.4l-2.7-0.9c-3.9-1.4-8-2.2-12.1-2.9c-8.2-1.1-16.8-0.7-25.1,1.8
	c-5.7,1.9-10.4,4.3-15.3,7.8c-1.4,1.1-3,2.2-4.4,3.8c-0.7,0.8-1.4,1.6-2.2,2.4c-0.7,0.9-1.3,1.8-1.9,2.7c-2.6,3.7-4.4,8.2-5.1,12.1
	c-0.9,4.9-1.1,10.1-0.4,15.3c0.3,2.6,0.9,5.2,1.7,7.7c0.4,1.3,0.9,2.5,1.3,3.7c-0.1-0.2,0-0.1,0-0.1l0,0l0,0.1l0.1,0.2
	c0.2,0.3,0.4,0.6,0.6,0.8c0,0.1,0.2,0.2,0.1,0.2l-0.3-0.1C1029.7,343.7,1029.4,343.7,1029.2,343.7z M895.1,445.7
	c1,0.8,2.4,1.8,3.9,2.7c-1.3-0.8-2-1-3.5-2.3C894.8,445.6,894.7,445.4,895.1,445.7z M1011.1,356.1c0.5-0.2,1.1-0.4,3.1-0.6
	c0.2,0,0.6,0,0.5,0C1014.2,355.8,1012.6,355.9,1011.1,356.1z"/>
<polygon class="st4" points="970.9,383.2 970.9,383.3 970.9,383.3 "/>
</svg>
